<svg width="82" height="82" viewBox="0 0 82 82" fill="none" xmlns="http://www.w3.org/2000/svg">
<rect x="0.5" y="0.5" width="81" height="81" rx="40.5" fill="#FFD497" fill-opacity="0.23"/>
<rect x="0.5" y="0.5" width="81" height="81" rx="40.5" stroke="#F9B34E"/>
<path opacity="0.5" d="M34.625 30.375C34.625 28.6842 35.2966 27.0627 36.4922 25.8672C37.6877 24.6716 39.3092 24 41 24C42.6908 24 44.3123 24.6716 45.5078 25.8672C46.7034 27.0627 47.375 28.6842 47.375 30.375V34.625H51.625V30.375C51.625 27.5571 50.5056 24.8546 48.513 22.862C46.5204 20.8694 43.8179 19.75 41 19.75C38.1821 19.75 35.4796 20.8694 33.487 22.862C31.4944 24.8546 30.375 27.5571 30.375 30.375V34.625H34.625V30.375ZM41 53.75C40.4364 53.75 39.8959 53.5261 39.4974 53.1276C39.0989 52.7291 38.875 52.1886 38.875 51.625V45.25C38.875 44.6864 39.0989 44.1459 39.4974 43.7474C39.8959 43.3489 40.4364 43.125 41 43.125C41.5636 43.125 42.1041 43.3489 42.5026 43.7474C42.9011 44.1459 43.125 44.6864 43.125 45.25V51.625C43.125 52.1886 42.9011 52.7291 42.5026 53.1276C42.1041 53.5261 41.5636 53.75 41 53.75Z" fill="#F9B34E"/>
<path d="M51.625 34.625H30.375C28.6842 34.625 27.0627 35.2966 25.8672 36.4922C24.6717 37.6877 24 39.3092 24 41V55.875C24 57.5658 24.6717 59.1873 25.8672 60.3828C27.0627 61.5784 28.6842 62.25 30.375 62.25H51.625C53.3158 62.25 54.9373 61.5784 56.1328 60.3828C57.3284 59.1873 58 57.5658 58 55.875V41C58 39.3092 57.3284 37.6877 56.1328 36.4922C54.9373 35.2966 53.3158 34.625 51.625 34.625ZM43.125 51.625C43.125 52.1886 42.9011 52.7291 42.5026 53.1276C42.1041 53.5261 41.5636 53.75 41 53.75C40.4364 53.75 39.8959 53.5261 39.4974 53.1276C39.0989 52.7291 38.875 52.1886 38.875 51.625V45.25C38.875 44.6864 39.0989 44.1459 39.4974 43.7474C39.8959 43.3489 40.4364 43.125 41 43.125C41.5636 43.125 42.1041 43.3489 42.5026 43.7474C42.9011 44.1459 43.125 44.6864 43.125 45.25V51.625Z" fill="#F9B34E"/>
</svg>
