<svg width="105" height="105" viewBox="0 0 105 105" fill="none" xmlns="http://www.w3.org/2000/svg">
<path d="M51.2607 52.138L56.7032 46.6969C57.1994 46.2015 57.1994 45.3998 56.7032 44.9037C56.2078 44.4083 55.4054 44.4083 54.91 44.9037L49.4675 50.3448L44.025 44.9037C43.5289 44.4083 42.7272 44.4083 42.2311 44.9037C41.7356 45.3998 41.7356 46.2015 42.2311 46.6969L47.6736 52.138L42.2311 57.5784C41.7356 58.0745 41.7356 58.8762 42.2311 59.3716C42.4788 59.6193 42.8027 59.7435 43.1266 59.7435C43.4498 59.7435 43.7738 59.6193 44.0215 59.3716L49.464 53.9305L54.9065 59.3716C55.1542 59.6193 55.4781 59.7435 55.8013 59.7435C56.1253 59.7435 56.4485 59.6193 56.6962 59.3716C57.1923 58.8762 57.1923 58.0745 56.6962 57.5784L51.2607 52.138Z" fill="#C868C4"/>
<mask id="mask0_129_3242" style="mask-type:luminance" maskUnits="userSpaceOnUse" x="22" y="18" width="60" height="69">
<path d="M22.8401 18.6996H81.9483V86.3131H22.8401V18.6996Z" fill="white"/>
</mask>
<g mask="url(#mask0_129_3242)">
<path d="M80.673 77.3631L76.0951 72.7859V35.4815C76.0951 34.442 75.6646 33.4406 74.9038 32.718L61.2234 19.7511C60.5142 19.0799 59.5742 18.7115 58.5967 18.7115H26.6439C24.5508 18.7115 22.8401 20.4215 22.8401 22.514V82.4838C22.8401 84.5869 24.5508 86.287 26.6439 86.287H72.2912C73.8262 86.287 75.1444 85.3745 75.7401 84.0668C76.2736 84.3321 76.8558 84.4591 77.4274 84.4591C78.4147 84.4591 79.4063 84.0809 80.1536 83.3307L80.673 82.8106C82.1706 81.3067 82.1706 78.8741 80.673 77.3631ZM71.6575 33.1237H62.1458C61.4471 33.1237 60.879 32.5563 60.879 31.8577V22.9205L71.6575 33.1237ZM72.2912 83.7541H26.6439C25.9453 83.7541 25.3771 83.1825 25.3771 82.4874V22.514C25.3771 21.8153 25.9488 21.2479 26.6439 21.2479H58.3455V31.8577C58.3455 33.9537 60.0526 35.6601 62.1493 35.6601H73.5615V70.2671L69.2235 65.9312C68.5904 65.2975 67.5509 65.2975 66.9172 65.9312L66.0223 66.8253L62.0153 62.8197C64.4733 59.9432 65.9567 56.2057 65.9567 52.1379C65.9567 43.049 58.5657 35.6601 49.4739 35.6601C40.3828 35.6601 32.9848 43.049 32.9848 52.1379C32.9848 61.2262 40.3758 68.6151 49.4676 68.6151C53.5636 68.6151 57.3265 67.1076 60.2185 64.6094L64.2256 68.6151L63.2616 69.5791C62.6278 70.2121 62.6278 71.2509 63.2616 71.8981L73.558 82.1917V82.4838C73.5615 83.1825 72.9899 83.7541 72.2912 83.7541ZM49.4676 66.0822C41.7703 66.0822 35.5183 59.8324 35.5183 52.1379C35.5183 44.4428 41.7703 38.1929 49.4676 38.1929C57.1648 38.1929 63.4161 44.4428 63.4161 52.1379C63.4161 59.8324 57.1648 66.0822 49.4676 66.0822ZM78.8869 81.0279L78.3668 81.5481C77.8474 82.0541 77.0104 82.0541 76.5044 81.5481L76.0986 81.1416L73.5615 78.6052L65.6885 70.735L68.0703 68.3539L73.5615 73.8423L76.0986 76.3787L78.8869 79.1663C79.3929 79.6723 79.3929 80.5085 78.8869 81.0279Z" fill="#C868C4"/>
</g>
</svg>
