<svg width="24" height="25" viewBox="0 0 24 25" fill="none" xmlns="http://www.w3.org/2000/svg">
<path fill-rule="evenodd" clip-rule="evenodd" d="M12.7044 16.2073C12.5169 16.3948 12.2626 16.5001 11.9974 16.5001C11.7322 16.5001 11.4779 16.3948 11.2904 16.2073L5.63341 10.5503C5.5379 10.4581 5.46172 10.3478 5.40931 10.2257C5.3569 10.1037 5.32932 9.97252 5.32816 9.83974C5.32701 9.70696 5.35231 9.57529 5.40259 9.45239C5.45287 9.32949 5.52713 9.21784 5.62102 9.12395C5.71491 9.03006 5.82656 8.9558 5.94946 8.90552C6.07236 8.85524 6.20404 8.82994 6.33681 8.83109C6.46959 8.83225 6.60081 8.85983 6.72282 8.91224C6.84482 8.96465 6.95517 9.04083 7.04741 9.13634L11.9974 14.0863L16.9474 9.13634C17.136 8.95418 17.3886 8.85339 17.6508 8.85567C17.913 8.85795 18.1638 8.96312 18.3492 9.14852C18.5346 9.33393 18.6398 9.58474 18.6421 9.84694C18.6444 10.1091 18.5436 10.3617 18.3614 10.5503L12.7044 16.2073Z" fill="#1E252B"/>
</svg>
