<svg xmlns="http://www.w3.org/2000/svg" xmlns:xlink="http://www.w3.org/1999/xlink" width="126" zoomAndPan="magnify" viewBox="0 0 375 374.999991" height="126" preserveAspectRatio="xMidYMid meet" version="1.0"><defs><clipPath id="6f2d869614"><path d="M 56 19.273438 L 60 19.273438 L 60 22 L 56 22 Z M 56 19.273438 " clip-rule="nonzero"/></clipPath><clipPath id="b5a16081ee"><path d="M 21 20 L 126 20 L 126 121.273438 L 21 121.273438 Z M 21 20 " clip-rule="nonzero"/></clipPath></defs><path fill="#ffbd59" d="M 93.0625 111.625 C 92.613281 111.730469 92.160156 111.820312 91.703125 111.910156 C 91.253906 111.996094 90.960938 112.433594 91.046875 112.886719 C 91.125 113.28125 91.472656 113.558594 91.863281 113.558594 C 91.917969 113.558594 91.96875 113.550781 92.023438 113.542969 C 92.5 113.449219 92.976562 113.351562 93.445312 113.242188 C 93.890625 113.136719 94.167969 112.6875 94.0625 112.242188 C 93.957031 111.792969 93.507812 111.515625 93.0625 111.625 Z M 93.0625 111.625 " fill-opacity="1" fill-rule="nonzero"/><path fill="#ffbd59" d="M 124.125 90.585938 C 123.742188 90.332031 123.226562 90.441406 122.976562 90.824219 C 116.722656 100.390625 107.257812 107.472656 96.324219 110.765625 C 95.882812 110.894531 95.636719 111.359375 95.769531 111.800781 C 95.875 112.160156 96.207031 112.390625 96.5625 112.390625 C 96.644531 112.390625 96.726562 112.378906 96.804688 112.355469 C 108.113281 108.953125 117.902344 101.628906 124.367188 91.738281 C 124.621094 91.351562 124.511719 90.835938 124.125 90.585938 Z M 124.125 90.585938 " fill-opacity="1" fill-rule="nonzero"/><g clip-path="url(#6f2d869614)"><path fill="#ffbd59" d="M 57.621094 21.644531 C 57.757812 21.644531 57.894531 21.609375 58.019531 21.542969 L 59.019531 20.992188 C 59.421875 20.769531 59.566406 20.265625 59.347656 19.863281 C 59.125 19.460938 58.621094 19.3125 58.21875 19.535156 L 57.21875 20.082031 C 56.816406 20.304688 56.671875 20.8125 56.890625 21.214844 C 57.042969 21.488281 57.328125 21.644531 57.621094 21.644531 Z M 57.621094 21.644531 " fill-opacity="1" fill-rule="nonzero"/></g><path fill="#ffbd59" d="M 36.007812 45.367188 C 36.117188 45.414062 36.226562 45.433594 36.335938 45.433594 C 36.660156 45.433594 36.964844 45.246094 37.101562 44.929688 C 40.929688 35.949219 47.328125 28.371094 55.601562 23.015625 C 55.988281 22.765625 56.097656 22.253906 55.847656 21.867188 C 55.601562 21.480469 55.085938 21.371094 54.699219 21.621094 C 46.144531 27.15625 39.53125 34.988281 35.570312 44.273438 C 35.390625 44.699219 35.585938 45.1875 36.007812 45.367188 Z M 36.007812 45.367188 " fill-opacity="1" fill-rule="nonzero"/><g clip-path="url(#b5a16081ee)"><path fill="#ffbd59" d="M 85.117188 108.664062 L 86.203125 107.683594 L 86.5 107.644531 C 94.832031 106.8125 102.71875 103.613281 109.308594 98.386719 L 109.304688 98.382812 C 109.308594 98.378906 109.3125 98.375 109.316406 98.371094 C 114.109375 94.578125 118.132812 89.714844 120.957031 84.3125 C 124.210938 78.097656 125.933594 71.074219 125.933594 64.007812 C 125.933594 48.539062 118.03125 34.515625 104.796875 26.488281 C 97.96875 22.339844 90.109375 20.148438 82.074219 20.148438 C 76.554688 20.148438 71.179688 21.15625 66.101562 23.148438 C 54.648438 27.625 45.542969 36.785156 41.125 48.277344 L 41.128906 48.28125 C 41.128906 48.285156 41.128906 48.285156 41.128906 48.289062 L 41.125 48.289062 C 40.488281 49.945312 39.953125 51.652344 39.519531 53.382812 L 33.992188 47.230469 C 33.183594 46.335938 32.25 45.652344 31.210938 45.203125 C 28.324219 43.949219 24.464844 42.878906 22.445312 44.894531 C 20.515625 46.824219 21.058594 50.5625 21.855469 53.367188 C 22.207031 54.59375 22.820312 55.6875 23.664062 56.625 L 33.234375 67.285156 L 32.773438 71.066406 C 30.644531 71.742188 29.171875 73.183594 28.382812 75.359375 C 28.277344 75.652344 28.34375 75.976562 28.550781 76.203125 L 30.972656 78.867188 L 29.023438 84.535156 C 26.859375 85.359375 25.273438 86.859375 24.304688 89.007812 C 24.171875 89.308594 24.226562 89.664062 24.445312 89.910156 L 26.757812 92.46875 L 24.804688 99.140625 C 24.550781 100.011719 24.773438 100.972656 25.390625 101.648438 L 26.40625 102.765625 C 27.382812 103.828125 29 103.914062 30.089844 102.960938 L 46 88.929688 C 51.277344 96.558594 58.933594 102.40625 67.640625 105.433594 C 67.703125 105.457031 69.140625 106 70.484375 106.414062 L 71.960938 107.894531 L 67.386719 117.394531 C 67.253906 117.730469 67.1875 118.078125 67.1875 118.429688 C 67.1875 119.125 67.441406 119.792969 67.90625 120.316406 C 68.464844 120.9375 69.234375 121.253906 70.011719 121.253906 C 70.679688 121.253906 71.355469 121.015625 71.894531 120.539062 L 79.238281 113.945312 L 82.53125 115.847656 C 82.84375 116.027344 83.234375 115.988281 83.503906 115.746094 L 86.457031 113.101562 C 86.726562 112.859375 86.808594 112.476562 86.664062 112.144531 Z M 110.019531 95.613281 C 110.089844 94.386719 109.910156 92.964844 108.960938 91.988281 C 108.164062 91.171875 106.929688 90.753906 105.292969 90.742188 C 104.117188 90.734375 103.011719 90.214844 102.257812 89.316406 C 101.902344 88.890625 101.542969 88.421875 101.175781 87.9375 C 99.066406 85.171875 96.449219 81.734375 91.058594 82.269531 C 88.714844 82.5 86.753906 83.960938 85.222656 86.609375 C 84.464844 87.921875 82.949219 88.703125 81.445312 88.566406 C 80.324219 88.460938 78.851562 88.410156 77.390625 88.964844 C 75.082031 89.828125 74.101562 91.683594 73.679688 93.128906 L 60.089844 76.335938 L 76.585938 61.230469 C 79.070312 63.96875 82.109375 65.613281 85.648438 66.09375 C 88.339844 66.453125 90.5625 68.246094 91.3125 70.664062 C 92.523438 74.601562 94.929688 79.589844 99.484375 81.011719 C 102.707031 82.015625 106.230469 81.660156 109.683594 79.980469 C 111.304688 79.179688 113.261719 79.605469 114.234375 80.964844 C 115.359375 82.542969 116.957031 83.699219 118.996094 84.417969 C 116.675781 88.605469 113.617188 92.429688 110.019531 95.613281 Z M 42.019531 50.746094 C 42.523438 51.429688 43.277344 52.078125 44.378906 52.296875 C 44.636719 52.347656 44.925781 52.375 45.242188 52.375 C 46.28125 52.375 47.609375 52.089844 49.21875 51.527344 C 50.171875 51.195312 51.179688 51.140625 52.121094 51.371094 C 53.640625 51.75 55.84375 51.945312 57.71875 50.730469 C 58.828125 50.007812 59.636719 48.84375 60.121094 47.273438 C 60.628906 45.613281 61.859375 44.332031 63.414062 43.839844 C 66.410156 42.917969 68.289062 41.257812 68.84375 39.035156 C 69.320312 37.097656 68.957031 35.171875 67.761719 33.3125 C 66.847656 31.898438 66.636719 30.199219 67.164062 28.535156 C 67.578125 27.242188 67.628906 25.871094 67.359375 24.457031 C 72.054688 22.707031 77 21.808594 82.074219 21.808594 C 89.359375 21.808594 96.492188 23.6875 102.789062 27.242188 C 99.84375 29.308594 97.925781 31.84375 97.09375 34.800781 C 96.632812 36.4375 95.136719 37.597656 93.378906 37.691406 C 87.90625 37.960938 84.320312 38.792969 82.726562 40.15625 C 81.421875 41.261719 80.527344 42.792969 80.058594 44.699219 C 79.714844 46.085938 78.910156 47.230469 77.855469 47.835938 C 77.253906 48.175781 76.742188 48.613281 76.339844 49.136719 C 75.347656 50.433594 75.289062 52.113281 75.359375 53.113281 L 69.351562 54.1875 L 67.058594 51.625 C 66.863281 51.40625 66.570312 51.304688 66.28125 51.359375 C 63.695312 51.84375 61.972656 53.28125 61.152344 55.625 L 55.386719 56.929688 L 52.984375 54.234375 C 52.773438 54 52.449219 53.902344 52.144531 53.988281 C 49.992188 54.570312 48.417969 55.882812 47.457031 57.882812 L 43.621094 57.945312 L 40.875 54.890625 C 41.1875 53.492188 41.566406 52.105469 42.019531 50.746094 Z M 47.253906 87.824219 L 49.757812 85.609375 L 67.800781 103.71875 C 59.511719 100.738281 52.253906 95.121094 47.253906 87.824219 Z M 82.84375 114.105469 L 79.546875 112.203125 C 79.234375 112.023438 78.84375 112.0625 78.574219 112.304688 L 70.785156 119.296875 C 70.308594 119.722656 69.570312 119.679688 69.148438 119.207031 C 68.957031 118.992188 68.851562 118.714844 68.851562 118.429688 C 68.851562 118.289062 68.878906 118.140625 68.910156 118.058594 L 73.714844 108.085938 C 73.871094 107.769531 73.804688 107.386719 73.558594 107.136719 L 50.382812 83.882812 C 50.222656 83.71875 50.007812 83.636719 49.792969 83.636719 C 49.597656 83.636719 49.402344 83.707031 49.242188 83.84375 L 28.992188 101.710938 C 28.589844 102.0625 27.992188 102.03125 27.632812 101.640625 L 26.621094 100.527344 C 26.394531 100.28125 26.3125 99.925781 26.402344 99.609375 L 28.484375 92.488281 C 28.5625 92.210938 28.496094 91.910156 28.300781 91.699219 L 26.058594 89.210938 C 26.90625 87.621094 28.183594 86.558594 29.941406 85.972656 C 30.1875 85.890625 30.382812 85.699219 30.46875 85.457031 L 32.703125 78.941406 C 32.804688 78.65625 32.738281 78.335938 32.535156 78.113281 L 30.132812 75.46875 C 30.828125 73.910156 32.007812 72.945312 33.726562 72.527344 C 34.066406 72.445312 34.316406 72.164062 34.359375 71.820312 L 34.933594 67.109375 C 34.960938 66.871094 34.886719 66.632812 34.722656 66.453125 L 24.898438 55.515625 C 24.222656 54.765625 23.734375 53.886719 23.453125 52.910156 C 22.515625 49.609375 22.578125 47.117188 23.621094 46.070312 C 24.664062 45.03125 27.1875 45.269531 30.546875 46.726562 C 31.363281 47.085938 32.109375 47.628906 32.753906 48.34375 L 42.636719 59.339844 C 42.796875 59.519531 43.023438 59.621094 43.269531 59.613281 L 48.015625 59.539062 C 48.351562 59.535156 48.648438 59.332031 48.773438 59.019531 C 49.441406 57.375 50.53125 56.296875 52.097656 55.742188 L 54.46875 58.40625 C 54.671875 58.628906 54.980469 58.726562 55.273438 58.664062 L 61.988281 57.140625 C 62.285156 57.074219 62.523438 56.847656 62.605469 56.554688 C 63.128906 54.703125 64.285156 53.566406 66.140625 53.09375 L 68.421875 55.644531 C 68.613281 55.859375 68.902344 55.957031 69.1875 55.910156 L 76.429688 54.609375 C 76.800781 54.542969 77.175781 54.675781 77.425781 54.957031 L 78.3125 55.964844 C 78.699219 56.398438 78.664062 57.070312 78.234375 57.460938 L 58.390625 75.636719 C 58.0625 75.933594 58.027344 76.433594 58.304688 76.773438 L 78.949219 102.285156 C 79.171875 102.558594 79.542969 102.660156 79.875 102.542969 L 90.253906 98.851562 C 90.679688 98.730469 91.125 98.859375 91.425781 99.183594 C 91.671875 99.457031 91.722656 99.753906 91.722656 99.957031 C 91.722656 100.289062 91.585938 100.597656 91.339844 100.816406 L 83.554688 107.832031 C 83.289062 108.070312 83.207031 108.457031 83.351562 108.785156 L 84.894531 112.265625 Z M 82.84375 114.105469 " fill-opacity="1" fill-rule="nonzero"/></g><path fill="#ffbd59" d="M 76.226562 68.859375 C 73.71875 68.472656 70.691406 70.453125 68.808594 72.589844 C 66.683594 74.996094 65.816406 77.609375 66.425781 79.761719 C 67.183594 82.417969 69.871094 84.363281 73.441406 84.839844 C 73.960938 84.90625 74.496094 84.941406 75.042969 84.941406 C 77.851562 84.941406 80.851562 83.992188 82.253906 81.664062 C 83.496094 79.609375 83.488281 76.898438 82.242188 74.222656 C 80.90625 71.363281 78.492188 69.207031 76.226562 68.859375 Z M 76.226562 68.859375 " fill-opacity="1" fill-rule="nonzero"/></svg>