<svg xmlns="http://www.w3.org/2000/svg" xmlns:xlink="http://www.w3.org/1999/xlink" width="351" zoomAndPan="magnify" viewBox="0 0 263.25 58.499998" height="78" preserveAspectRatio="xMidYMid meet" version="1.0"><defs><g/><clipPath id="5cad285ef6"><path d="M 225 7.160156 L 248.796875 7.160156 L 248.796875 30.957031 L 225 30.957031 Z M 225 7.160156 " clip-rule="nonzero"/></clipPath><clipPath id="b18a577f1c"><path d="M 3.621094 8.125 L 45.265625 8.125 L 45.265625 31.921875 L 3.621094 31.921875 Z M 3.621094 8.125 " clip-rule="nonzero"/></clipPath><clipPath id="7db57ef7ee"><path d="M 18 24 L 24 24 L 24 31.921875 L 18 31.921875 Z M 18 24 " clip-rule="nonzero"/></clipPath><clipPath id="f0c126abd1"><path d="M 0.742188 24 L 22 24 L 22 49 L 0.742188 49 Z M 0.742188 24 " clip-rule="nonzero"/></clipPath><clipPath id="392a66dc66"><path d="M 222.832031 42.503906 L 236.964844 42.503906 L 236.964844 56.632812 L 222.832031 56.632812 Z M 222.832031 42.503906 " clip-rule="nonzero"/></clipPath></defs><g clip-path="url(#5cad285ef6)"><path fill="#f9b34d" d="M 248.75 19.035156 C 248.75 19.816406 248.671875 20.589844 248.519531 21.355469 C 248.367188 22.117188 248.144531 22.859375 247.84375 23.582031 C 247.546875 24.300781 247.179688 24.984375 246.75 25.632812 C 246.316406 26.28125 245.824219 26.882812 245.269531 27.433594 C 244.71875 27.984375 244.121094 28.476562 243.472656 28.910156 C 242.824219 29.34375 242.140625 29.710938 241.417969 30.007812 C 240.699219 30.304688 239.957031 30.53125 239.191406 30.683594 C 238.425781 30.835938 237.652344 30.914062 236.875 30.914062 C 236.09375 30.914062 235.324219 30.835938 234.558594 30.683594 C 233.792969 30.53125 233.050781 30.304688 232.328125 30.007812 C 231.609375 29.710938 230.925781 29.34375 230.277344 28.910156 C 229.628906 28.476562 229.027344 27.984375 228.476562 27.433594 C 227.925781 26.882812 227.433594 26.28125 227 25.632812 C 226.566406 24.984375 226.203125 24.300781 225.902344 23.582031 C 225.605469 22.859375 225.378906 22.117188 225.226562 21.355469 C 225.074219 20.589844 225 19.816406 225 19.035156 C 225 18.257812 225.074219 17.484375 225.226562 16.71875 C 225.378906 15.957031 225.605469 15.214844 225.902344 14.492188 C 226.203125 13.773438 226.566406 13.089844 227 12.441406 C 227.433594 11.792969 227.925781 11.191406 228.476562 10.640625 C 229.027344 10.089844 229.628906 9.597656 230.277344 9.164062 C 230.925781 8.730469 231.609375 8.363281 232.328125 8.066406 C 233.050781 7.765625 233.792969 7.542969 234.558594 7.390625 C 235.324219 7.238281 236.09375 7.160156 236.875 7.160156 C 237.652344 7.160156 238.425781 7.238281 239.191406 7.390625 C 239.957031 7.542969 240.699219 7.765625 241.417969 8.066406 C 242.140625 8.363281 242.824219 8.730469 243.472656 9.164062 C 244.121094 9.597656 244.71875 10.089844 245.269531 10.640625 C 245.824219 11.191406 246.316406 11.792969 246.75 12.441406 C 247.179688 13.089844 247.546875 13.773438 247.84375 14.492188 C 248.144531 15.214844 248.367188 15.957031 248.519531 16.71875 C 248.671875 17.484375 248.75 18.257812 248.75 19.035156 Z M 248.75 19.035156 " fill-opacity="1" fill-rule="nonzero"/></g><g fill="#1c2043" fill-opacity="1"><g transform="translate(37.172249, 33.06032)"><g><path d="M 7.1875 0.765625 C 5.050781 0.765625 3.375 0.289062 2.15625 -0.65625 C 1.125 -1.445312 0.609375 -2.359375 0.609375 -3.390625 C 0.609375 -3.910156 0.765625 -4.34375 1.078125 -4.6875 C 1.398438 -5.039062 1.84375 -5.21875 2.40625 -5.21875 C 3.15625 -5.21875 3.707031 -4.832031 4.0625 -4.0625 C 4.539062 -3.03125 5.625 -2.515625 7.3125 -2.515625 C 8.757812 -2.515625 10.15625 -2.832031 11.5 -3.46875 C 12.90625 -4.113281 13.609375 -4.820312 13.609375 -5.59375 C 13.609375 -6.644531 13.171875 -7.335938 12.296875 -7.671875 C 11.679688 -7.921875 10.4375 -8.066406 8.5625 -8.109375 C 7.101562 -8.140625 5.800781 -8.410156 4.65625 -8.921875 C 3.101562 -9.617188 2.335938 -10.617188 2.359375 -11.921875 C 2.390625 -13.554688 3.265625 -15.054688 4.984375 -16.421875 C 6.703125 -17.785156 8.597656 -18.46875 10.671875 -18.46875 C 11.492188 -18.46875 12.507812 -18.28125 13.71875 -17.90625 C 15.21875 -17.4375 15.96875 -16.894531 15.96875 -16.28125 C 15.96875 -15.84375 15.816406 -15.457031 15.515625 -15.125 C 15.179688 -14.738281 14.75 -14.546875 14.21875 -14.546875 C 13.832031 -14.546875 13.242188 -14.628906 12.453125 -14.796875 C 11.671875 -14.972656 11.078125 -15.0625 10.671875 -15.0625 C 9.585938 -15.050781 8.5625 -14.789062 7.59375 -14.28125 C 6.582031 -13.757812 6.078125 -13.191406 6.078125 -12.578125 C 6.078125 -12.253906 6.226562 -11.988281 6.53125 -11.78125 C 6.84375 -11.582031 7.304688 -11.441406 7.921875 -11.359375 C 8.992188 -11.296875 10.0625 -11.234375 11.125 -11.171875 C 12.988281 -11.035156 14.460938 -10.515625 15.546875 -9.609375 C 16.734375 -8.597656 17.328125 -7.203125 17.328125 -5.421875 C 17.328125 -3.253906 16.097656 -1.613281 13.640625 -0.5 C 11.753906 0.34375 9.601562 0.765625 7.1875 0.765625 Z M 7.1875 0.765625 "/></g></g></g><g fill="#1c2043" fill-opacity="1"><g transform="translate(55.041446, 33.06032)"><g><path d="M 7.625 0.578125 C 5.625 0.578125 3.984375 0.0976562 2.703125 -0.859375 C 1.296875 -1.910156 0.59375 -3.398438 0.59375 -5.328125 C 0.59375 -7.453125 1.148438 -9.25 2.265625 -10.71875 C 3.503906 -12.34375 5.175781 -13.15625 7.28125 -13.15625 C 8.75 -13.15625 9.960938 -12.921875 10.921875 -12.453125 C 12.191406 -11.828125 12.828125 -10.859375 12.828125 -9.546875 C 12.828125 -8.628906 12.3125 -7.8125 11.28125 -7.09375 C 10.8125 -6.769531 9.867188 -6.296875 8.453125 -5.671875 L 4.203125 -3.796875 C 4.609375 -3.359375 5.09375 -3.03125 5.65625 -2.8125 C 6.226562 -2.59375 6.882812 -2.484375 7.625 -2.484375 C 8.75 -2.484375 9.703125 -2.710938 10.484375 -3.171875 C 11.179688 -3.585938 11.738281 -3.796875 12.15625 -3.796875 C 13.03125 -3.796875 13.46875 -3.367188 13.46875 -2.515625 C 13.46875 -1.554688 12.769531 -0.773438 11.375 -0.171875 C 10.195312 0.328125 8.945312 0.578125 7.625 0.578125 Z M 7.28125 -10.109375 C 6.507812 -10.109375 5.84375 -9.847656 5.28125 -9.328125 C 4.726562 -8.804688 4.285156 -8.023438 3.953125 -6.984375 C 4.898438 -7.398438 5.84375 -7.804688 6.78125 -8.203125 C 7.914062 -8.710938 8.816406 -9.1875 9.484375 -9.625 C 8.921875 -9.945312 8.1875 -10.109375 7.28125 -10.109375 Z M 7.28125 -10.109375 "/></g></g></g><g fill="#1c2043" fill-opacity="1"><g transform="translate(69.45006, 33.06032)"><g><path d="M 13.796875 -10.640625 C 12.878906 -8.734375 11.429688 -5.738281 9.453125 -1.65625 C 8.378906 0.53125 7.5625 2.347656 7 3.796875 C 6.820312 4.304688 6.546875 5.078125 6.171875 6.109375 C 5.867188 6.890625 5.332031 7.28125 4.5625 7.28125 C 4.082031 7.28125 3.660156 7.125 3.296875 6.8125 C 2.929688 6.507812 2.75 6.125 2.75 5.65625 C 2.75 4.875 3.640625 2.5625 5.421875 -1.28125 C 4.503906 -3.101562 3.039062 -5.785156 1.03125 -9.328125 C 0.832031 -9.648438 0.628906 -9.972656 0.421875 -10.296875 C 0.191406 -10.679688 0.078125 -11.035156 0.078125 -11.359375 C 0.078125 -11.804688 0.253906 -12.203125 0.609375 -12.546875 C 0.972656 -12.890625 1.390625 -13.0625 1.859375 -13.0625 C 2.410156 -13.0625 2.84375 -12.859375 3.15625 -12.453125 C 4.351562 -10.867188 5.742188 -8.476562 7.328125 -5.28125 C 8.222656 -7.269531 8.769531 -8.472656 8.96875 -8.890625 C 9.5625 -10.140625 10.144531 -11.238281 10.71875 -12.1875 C 11.070312 -12.789062 11.566406 -13.09375 12.203125 -13.09375 C 12.671875 -13.09375 13.085938 -12.929688 13.453125 -12.609375 C 13.828125 -12.296875 14.015625 -11.90625 14.015625 -11.4375 C 14.015625 -11.195312 13.941406 -10.929688 13.796875 -10.640625 Z M 13.796875 -10.640625 "/></g></g></g><g fill="#1c2043" fill-opacity="1"><g transform="translate(83.695082, 33.06032)"><g><path d="M 12.140625 0.828125 C 11.753906 0.828125 11.144531 0.410156 10.3125 -0.421875 C 9.539062 -0.0546875 8.859375 0.21875 8.265625 0.40625 C 7.679688 0.59375 7.179688 0.6875 6.765625 0.6875 C 4.742188 0.6875 3.226562 0.144531 2.21875 -0.9375 C 1.207031 -2.019531 0.703125 -3.640625 0.703125 -5.796875 C 0.703125 -7.816406 1.445312 -9.546875 2.9375 -10.984375 C 4.4375 -12.421875 6.226562 -13.140625 8.3125 -13.140625 C 9.101562 -13.140625 10.023438 -12.914062 11.078125 -12.46875 C 12.347656 -11.914062 12.984375 -11.28125 12.984375 -10.5625 C 12.984375 -10.257812 12.882812 -9.992188 12.6875 -9.765625 C 12.601562 -9.429688 12.535156 -9.007812 12.484375 -8.5 C 12.441406 -7.988281 12.421875 -7.394531 12.421875 -6.71875 C 12.421875 -5.113281 12.535156 -3.960938 12.765625 -3.265625 C 12.785156 -3.179688 12.976562 -2.742188 13.34375 -1.953125 C 13.664062 -1.234375 13.828125 -0.820312 13.828125 -0.71875 C 13.828125 -0.269531 13.65625 0.0976562 13.3125 0.390625 C 12.976562 0.679688 12.585938 0.828125 12.140625 0.828125 Z M 9.03125 -7.8125 C 9.03125 -8.070312 9.046875 -8.375 9.078125 -8.71875 C 9.117188 -9.070312 9.175781 -9.460938 9.25 -9.890625 C 9.082031 -9.972656 8.929688 -10.035156 8.796875 -10.078125 C 8.671875 -10.117188 8.5625 -10.140625 8.46875 -10.140625 C 7.332031 -10.140625 6.332031 -9.691406 5.46875 -8.796875 C 4.613281 -7.898438 4.1875 -6.863281 4.1875 -5.6875 C 4.1875 -4.5625 4.390625 -3.710938 4.796875 -3.140625 C 5.203125 -2.578125 5.804688 -2.296875 6.609375 -2.296875 C 7.128906 -2.296875 7.617188 -2.378906 8.078125 -2.546875 C 8.546875 -2.722656 8.988281 -2.984375 9.40625 -3.328125 C 9.15625 -5.316406 9.03125 -6.8125 9.03125 -7.8125 Z M 9.03125 -7.8125 "/></g></g></g><g fill="#1c2043" fill-opacity="1"><g transform="translate(98.015608, 33.06032)"><g><path d="M 5.015625 -11.515625 C 5.628906 -12.117188 6.285156 -12.566406 6.984375 -12.859375 C 7.691406 -13.160156 8.441406 -13.3125 9.234375 -13.3125 C 10.671875 -13.3125 11.707031 -12.910156 12.34375 -12.109375 C 12.8125 -11.503906 13.09375 -10.578125 13.1875 -9.328125 C 13.226562 -8.296875 13.273438 -7.257812 13.328125 -6.21875 C 13.460938 -4.863281 13.546875 -4.039062 13.578125 -3.75 C 13.703125 -2.820312 13.847656 -2.007812 14.015625 -1.3125 C 14.054688 -1.132812 14.078125 -0.976562 14.078125 -0.84375 C 14.078125 -0.375 13.894531 0.0078125 13.53125 0.3125 C 13.175781 0.625 12.757812 0.78125 12.28125 0.78125 C 11.4375 0.78125 10.890625 0.359375 10.640625 -0.484375 C 10.429688 -1.160156 10.242188 -2.113281 10.078125 -3.34375 C 9.929688 -4.53125 9.859375 -5.503906 9.859375 -6.265625 C 9.859375 -6.472656 9.867188 -6.789062 9.890625 -7.21875 C 9.910156 -7.644531 9.921875 -7.960938 9.921875 -8.171875 C 9.921875 -8.785156 9.910156 -9.144531 9.890625 -9.25 C 9.816406 -9.707031 9.597656 -9.9375 9.234375 -9.9375 C 8.304688 -9.9375 7.460938 -9.507812 6.703125 -8.65625 C 6.316406 -8.226562 5.789062 -7.414062 5.125 -6.21875 C 5.125 -3.175781 4.976562 -1.347656 4.6875 -0.734375 C 4.351562 -0.046875 3.832031 0.296875 3.125 0.296875 C 2.65625 0.296875 2.238281 0.140625 1.875 -0.171875 C 1.507812 -0.484375 1.328125 -0.867188 1.328125 -1.328125 C 1.328125 -1.492188 1.367188 -1.71875 1.453125 -2 C 1.515625 -2.1875 1.566406 -3.320312 1.609375 -5.40625 C 1.566406 -7.09375 1.578125 -9.898438 1.640625 -13.828125 L 1.65625 -14.234375 C 1.707031 -15.222656 1.734375 -15.890625 1.734375 -16.234375 C 1.734375 -16.484375 1.691406 -16.863281 1.609375 -17.375 C 1.535156 -17.882812 1.5 -18.269531 1.5 -18.53125 C 1.5 -19.007812 1.671875 -19.398438 2.015625 -19.703125 C 2.359375 -20.015625 2.773438 -20.171875 3.265625 -20.171875 C 4.085938 -20.171875 4.644531 -19.722656 4.9375 -18.828125 C 5.09375 -18.328125 5.171875 -17.554688 5.171875 -16.515625 C 5.171875 -15.671875 5.144531 -14.816406 5.09375 -13.953125 C 5.039062 -13.140625 5.015625 -12.328125 5.015625 -11.515625 Z M 5.015625 -11.515625 "/></g></g></g><g fill="#1c2043" fill-opacity="1"><g transform="translate(112.902412, 33.06032)"><g><path d="M 12.140625 0.828125 C 11.753906 0.828125 11.144531 0.410156 10.3125 -0.421875 C 9.539062 -0.0546875 8.859375 0.21875 8.265625 0.40625 C 7.679688 0.59375 7.179688 0.6875 6.765625 0.6875 C 4.742188 0.6875 3.226562 0.144531 2.21875 -0.9375 C 1.207031 -2.019531 0.703125 -3.640625 0.703125 -5.796875 C 0.703125 -7.816406 1.445312 -9.546875 2.9375 -10.984375 C 4.4375 -12.421875 6.226562 -13.140625 8.3125 -13.140625 C 9.101562 -13.140625 10.023438 -12.914062 11.078125 -12.46875 C 12.347656 -11.914062 12.984375 -11.28125 12.984375 -10.5625 C 12.984375 -10.257812 12.882812 -9.992188 12.6875 -9.765625 C 12.601562 -9.429688 12.535156 -9.007812 12.484375 -8.5 C 12.441406 -7.988281 12.421875 -7.394531 12.421875 -6.71875 C 12.421875 -5.113281 12.535156 -3.960938 12.765625 -3.265625 C 12.785156 -3.179688 12.976562 -2.742188 13.34375 -1.953125 C 13.664062 -1.234375 13.828125 -0.820312 13.828125 -0.71875 C 13.828125 -0.269531 13.65625 0.0976562 13.3125 0.390625 C 12.976562 0.679688 12.585938 0.828125 12.140625 0.828125 Z M 9.03125 -7.8125 C 9.03125 -8.070312 9.046875 -8.375 9.078125 -8.71875 C 9.117188 -9.070312 9.175781 -9.460938 9.25 -9.890625 C 9.082031 -9.972656 8.929688 -10.035156 8.796875 -10.078125 C 8.671875 -10.117188 8.5625 -10.140625 8.46875 -10.140625 C 7.332031 -10.140625 6.332031 -9.691406 5.46875 -8.796875 C 4.613281 -7.898438 4.1875 -6.863281 4.1875 -5.6875 C 4.1875 -4.5625 4.390625 -3.710938 4.796875 -3.140625 C 5.203125 -2.578125 5.804688 -2.296875 6.609375 -2.296875 C 7.128906 -2.296875 7.617188 -2.378906 8.078125 -2.546875 C 8.546875 -2.722656 8.988281 -2.984375 9.40625 -3.328125 C 9.15625 -5.316406 9.03125 -6.8125 9.03125 -7.8125 Z M 9.03125 -7.8125 "/></g></g></g><g fill="#1c2043" fill-opacity="1"><g transform="translate(127.222938, 33.06032)"><g><path d="M 10.171875 -10.140625 C 9.992188 -10.140625 9.785156 -10.144531 9.546875 -10.15625 C 9.304688 -10.164062 9.097656 -10.171875 8.921875 -10.171875 C 8.578125 -10.171875 8.179688 -10.140625 7.734375 -10.078125 C 7.878906 -6.679688 7.953125 -4.460938 7.953125 -3.421875 C 7.953125 -3.316406 7.957031 -3.113281 7.96875 -2.8125 C 7.976562 -2.507812 7.984375 -2.269531 7.984375 -2.09375 C 7.984375 -0.15625 7.375 0.8125 6.15625 0.8125 C 5.695312 0.8125 5.296875 0.664062 4.953125 0.375 C 4.585938 0.0703125 4.40625 -0.300781 4.40625 -0.75 C 4.40625 -1.050781 4.414062 -1.503906 4.4375 -2.109375 C 4.46875 -2.710938 4.484375 -3.164062 4.484375 -3.46875 C 4.484375 -4.488281 4.40625 -6.664062 4.25 -10 C 3.726562 -10.019531 2.941406 -10.085938 1.890625 -10.203125 C 0.835938 -10.316406 0.3125 -10.859375 0.3125 -11.828125 C 0.3125 -12.296875 0.46875 -12.691406 0.78125 -13.015625 C 1.101562 -13.347656 1.519531 -13.515625 2.03125 -13.515625 C 2.34375 -13.515625 3.054688 -13.46875 4.171875 -13.375 C 4.160156 -13.632812 4.140625 -14.078125 4.109375 -14.703125 C 4.066406 -15.242188 4.046875 -15.660156 4.046875 -15.953125 C 4.046875 -16.421875 4.21875 -16.8125 4.5625 -17.125 C 4.90625 -17.4375 5.320312 -17.59375 5.8125 -17.59375 C 7.050781 -17.59375 7.671875 -16.546875 7.671875 -14.453125 L 7.65625 -13.421875 C 8.175781 -13.492188 8.597656 -13.53125 8.921875 -13.53125 C 9.890625 -13.53125 10.550781 -13.46875 10.90625 -13.34375 C 11.570312 -13.101562 11.90625 -12.59375 11.90625 -11.8125 C 11.90625 -11.332031 11.738281 -10.929688 11.40625 -10.609375 C 11.082031 -10.296875 10.671875 -10.140625 10.171875 -10.140625 Z M 10.171875 -10.140625 "/></g></g></g><g fill="#1c2043" fill-opacity="1"><g transform="translate(139.366442, 33.06032)"><g/></g></g><g fill="#1c2043" fill-opacity="1"><g transform="translate(150.540982, 33.06032)"><g><path d="M 3.546875 0.125 C 3.054688 0.113281 2.640625 -0.0507812 2.296875 -0.375 C 1.960938 -0.707031 1.796875 -1.113281 1.796875 -1.59375 C 1.796875 -2.425781 1.835938 -3.679688 1.921875 -5.359375 C 2.003906 -7.035156 2.046875 -8.296875 2.046875 -9.140625 C 2.046875 -10.066406 2.023438 -11.460938 1.984375 -13.328125 C 1.941406 -15.191406 1.921875 -16.585938 1.921875 -17.515625 C 1.921875 -17.984375 2.144531 -18.445312 2.59375 -18.90625 C 3.039062 -19.363281 3.515625 -19.59375 4.015625 -19.59375 C 4.296875 -19.59375 4.992188 -19.332031 6.109375 -18.8125 C 7.410156 -18.1875 8.179688 -17.835938 8.421875 -17.765625 C 10.878906 -16.960938 12.976562 -15.726562 14.71875 -14.0625 C 16.789062 -12.070312 17.828125 -9.875 17.828125 -7.46875 C 17.828125 -6.007812 17.46875 -4.628906 16.75 -3.328125 C 16.039062 -1.992188 15.066406 -0.921875 13.828125 -0.109375 C 12.429688 0.796875 10.46875 1.25 7.9375 1.25 C 7.332031 1.25 6.628906 1.160156 5.828125 0.984375 C 4.859375 0.765625 4.097656 0.476562 3.546875 0.125 Z M 10.625 -12.8125 C 9.8125 -13.320312 8.066406 -14.128906 5.390625 -15.234375 L 5.390625 -2.765625 C 5.710938 -2.554688 6.085938 -2.398438 6.515625 -2.296875 C 6.941406 -2.191406 7.414062 -2.140625 7.9375 -2.140625 C 9.75 -2.140625 11.046875 -2.390625 11.828125 -2.890625 C 12.578125 -3.367188 13.171875 -4.019531 13.609375 -4.84375 C 14.054688 -5.664062 14.28125 -6.523438 14.28125 -7.421875 C 14.28125 -9.492188 13.0625 -11.289062 10.625 -12.8125 Z M 10.625 -12.8125 "/></g></g></g><g fill="#1c2043" fill-opacity="1"><g transform="translate(169.140048, 33.06032)"><g><path d="M 13.015625 -7.28125 C 13.015625 -6.71875 13.019531 -5.867188 13.03125 -4.734375 C 13.039062 -3.597656 13.046875 -2.75 13.046875 -2.1875 C 13.046875 -2.007812 13.054688 -1.742188 13.078125 -1.390625 C 13.109375 -1.046875 13.125 -0.785156 13.125 -0.609375 C 13.125 -0.140625 12.953125 0.242188 12.609375 0.546875 C 12.273438 0.847656 11.859375 1 11.359375 1 C 10.671875 1 10.164062 0.6875 9.84375 0.0625 C 8.769531 0.457031 7.65625 0.65625 6.5 0.65625 C 5.3125 0.65625 4.3125 0.40625 3.5 -0.09375 C 2.582031 -0.675781 2.035156 -1.519531 1.859375 -2.625 C 1.535156 -4.726562 1.375 -6.609375 1.375 -8.265625 C 1.375 -9.347656 1.5 -10.59375 1.75 -12 C 1.914062 -12.945312 2.484375 -13.421875 3.453125 -13.421875 C 3.929688 -13.421875 4.34375 -13.265625 4.6875 -12.953125 C 5.03125 -12.648438 5.203125 -12.265625 5.203125 -11.796875 C 5.203125 -11.421875 5.140625 -10.835938 5.015625 -10.046875 C 4.898438 -9.265625 4.84375 -8.671875 4.84375 -8.265625 C 4.84375 -7.078125 4.878906 -6.039062 4.953125 -5.15625 C 5.035156 -4.269531 5.160156 -3.535156 5.328125 -2.953125 C 5.535156 -2.859375 5.738281 -2.785156 5.9375 -2.734375 C 6.132812 -2.691406 6.320312 -2.671875 6.5 -2.671875 C 7.4375 -2.671875 8.460938 -2.804688 9.578125 -3.078125 C 9.578125 -3.722656 9.570312 -4.457031 9.5625 -5.28125 C 9.550781 -6.257812 9.546875 -6.960938 9.546875 -7.390625 C 9.546875 -9.109375 9.625 -10.59375 9.78125 -11.84375 C 9.90625 -12.84375 10.472656 -13.34375 11.484375 -13.34375 C 11.984375 -13.34375 12.410156 -13.1875 12.765625 -12.875 C 13.117188 -12.5625 13.28125 -12.171875 13.25 -11.703125 C 13.09375 -8.503906 13.015625 -7.03125 13.015625 -7.28125 Z M 10.875 -14.65625 C 10.375 -14.65625 9.90625 -14.789062 9.46875 -15.0625 C 8.945312 -15.375 8.6875 -15.773438 8.6875 -16.265625 C 8.6875 -17.441406 9.5625 -18.03125 11.3125 -18.03125 C 11.757812 -18.03125 12.207031 -17.878906 12.65625 -17.578125 C 13.164062 -17.234375 13.421875 -16.820312 13.421875 -16.34375 C 13.421875 -15.78125 13.140625 -15.34375 12.578125 -15.03125 C 12.097656 -14.78125 11.53125 -14.65625 10.875 -14.65625 Z M 5.453125 -14.65625 C 3.890625 -14.65625 3.109375 -15.25 3.109375 -16.4375 C 3.109375 -16.84375 3.367188 -17.222656 3.890625 -17.578125 C 4.367188 -17.898438 4.84375 -18.0625 5.3125 -18.0625 C 6.925781 -18.0625 7.726562 -17.457031 7.71875 -16.25 C 7.71875 -15.832031 7.425781 -15.453125 6.84375 -15.109375 C 6.332031 -14.804688 5.867188 -14.65625 5.453125 -14.65625 Z M 5.453125 -14.65625 "/></g></g></g><g fill="#1c2043" fill-opacity="1"><g transform="translate(182.541946, 33.06032)"><g><path d="M 10.140625 -9.21875 C 9.316406 -9.21875 8.816406 -9.566406 8.640625 -10.265625 C 8.304688 -10.316406 7.960938 -10.34375 7.609375 -10.34375 C 5.585938 -10.34375 4.578125 -10.066406 4.578125 -9.515625 C 4.578125 -9.191406 5.1875 -8.75 6.40625 -8.1875 C 8.070312 -7.425781 9.195312 -6.832031 9.78125 -6.40625 C 11 -5.519531 11.609375 -4.523438 11.609375 -3.421875 C 11.609375 -1.984375 10.9375 -0.890625 9.59375 -0.140625 C 8.507812 0.453125 7.179688 0.75 5.609375 0.75 C 4.484375 0.75 3.460938 0.578125 2.546875 0.234375 C 1.285156 -0.234375 0.65625 -0.925781 0.65625 -1.84375 C 0.65625 -2.675781 1.15625 -3.09375 2.15625 -3.09375 C 2.539062 -3.09375 3.097656 -2.96875 3.828125 -2.71875 C 4.554688 -2.476562 5.117188 -2.359375 5.515625 -2.359375 C 7.210938 -2.359375 8.066406 -2.707031 8.078125 -3.40625 C 8.078125 -3.832031 7.488281 -4.304688 6.3125 -4.828125 C 4.582031 -5.585938 3.472656 -6.132812 2.984375 -6.46875 C 1.796875 -7.300781 1.203125 -8.3125 1.203125 -9.5 C 1.203125 -11.1875 2.097656 -12.328125 3.890625 -12.921875 C 4.941406 -13.265625 6.535156 -13.4375 8.671875 -13.4375 C 9.515625 -13.4375 10.132812 -13.328125 10.53125 -13.109375 C 11.09375 -12.804688 11.375 -12.265625 11.375 -11.484375 C 11.375 -9.972656 10.960938 -9.21875 10.140625 -9.21875 Z M 5.953125 5.609375 C 5.148438 5.609375 4.363281 5.4375 3.59375 5.09375 C 2.675781 4.695312 2.21875 4.175781 2.21875 3.53125 C 2.21875 2.84375 2.671875 2.5 3.578125 2.5 C 3.898438 2.5 4.273438 2.585938 4.703125 2.765625 C 5.128906 2.953125 5.492188 3.046875 5.796875 3.046875 C 6.046875 3.035156 6.226562 2.984375 6.34375 2.890625 C 6.46875 2.796875 6.53125 2.660156 6.53125 2.484375 C 6.53125 2.265625 6.460938 2.070312 6.328125 1.90625 C 6.179688 1.738281 5.96875 1.597656 5.6875 1.484375 L 4.09375 0.953125 C 3.539062 0.703125 3.265625 0.332031 3.265625 -0.15625 C 3.265625 -0.507812 3.394531 -0.8125 3.65625 -1.0625 C 3.914062 -1.320312 4.253906 -1.453125 4.671875 -1.453125 C 5.804688 -1.453125 6.878906 -1.066406 7.890625 -0.296875 C 8.960938 0.503906 9.5 1.410156 9.5 2.421875 C 9.5 3.410156 9.191406 4.1875 8.578125 4.75 C 7.960938 5.320312 7.085938 5.609375 5.953125 5.609375 Z M 5.953125 5.609375 "/></g></g></g><g fill="#1c2043" fill-opacity="1"><g transform="translate(195.088136, 33.06032)"><g><path d="M 5.15625 -1.84375 C 5.15625 -0.25 4.578125 0.546875 3.421875 0.546875 C 2.921875 0.546875 2.503906 0.382812 2.171875 0.0625 C 1.847656 -0.257812 1.6875 -0.671875 1.6875 -1.171875 L 1.6875 -18.578125 C 1.6875 -19.066406 1.863281 -19.46875 2.21875 -19.78125 C 2.550781 -20.0625 2.96875 -20.203125 3.46875 -20.203125 C 3.957031 -20.203125 4.359375 -20.050781 4.671875 -19.75 C 4.992188 -19.457031 5.15625 -19.066406 5.15625 -18.578125 Z M 5.15625 -1.84375 "/></g></g></g><g fill="#1c2043" fill-opacity="1"><g transform="translate(202.147727, 33.06032)"><g><path d="M 7.625 0.578125 C 5.625 0.578125 3.984375 0.0976562 2.703125 -0.859375 C 1.296875 -1.910156 0.59375 -3.398438 0.59375 -5.328125 C 0.59375 -7.453125 1.148438 -9.25 2.265625 -10.71875 C 3.503906 -12.34375 5.175781 -13.15625 7.28125 -13.15625 C 8.75 -13.15625 9.960938 -12.921875 10.921875 -12.453125 C 12.191406 -11.828125 12.828125 -10.859375 12.828125 -9.546875 C 12.828125 -8.628906 12.3125 -7.8125 11.28125 -7.09375 C 10.8125 -6.769531 9.867188 -6.296875 8.453125 -5.671875 L 4.203125 -3.796875 C 4.609375 -3.359375 5.09375 -3.03125 5.65625 -2.8125 C 6.226562 -2.59375 6.882812 -2.484375 7.625 -2.484375 C 8.75 -2.484375 9.703125 -2.710938 10.484375 -3.171875 C 11.179688 -3.585938 11.738281 -3.796875 12.15625 -3.796875 C 13.03125 -3.796875 13.46875 -3.367188 13.46875 -2.515625 C 13.46875 -1.554688 12.769531 -0.773438 11.375 -0.171875 C 10.195312 0.328125 8.945312 0.578125 7.625 0.578125 Z M 7.28125 -10.109375 C 6.507812 -10.109375 5.84375 -9.847656 5.28125 -9.328125 C 4.726562 -8.804688 4.285156 -8.023438 3.953125 -6.984375 C 4.898438 -7.398438 5.84375 -7.804688 6.78125 -8.203125 C 7.914062 -8.710938 8.816406 -9.1875 9.484375 -9.625 C 8.921875 -9.945312 8.1875 -10.109375 7.28125 -10.109375 Z M 7.28125 -10.109375 "/></g></g></g><g fill="#1c2043" fill-opacity="1"><g transform="translate(216.556341, 33.06032)"><g><path d="M 11.828125 -9.078125 C 11.753906 -7.796875 11.171875 -7.15625 10.078125 -7.15625 C 9.023438 -7.15625 8.5 -7.695312 8.5 -8.78125 L 8.4375 -10.0625 C 6.550781 -9.757812 5.195312 -8.789062 4.375 -7.15625 L 4.390625 -0.8125 C 4.390625 -0.332031 4.222656 0.0625 3.890625 0.375 C 3.566406 0.6875 3.15625 0.84375 2.65625 0.84375 C 2.132812 0.84375 1.734375 0.675781 1.453125 0.34375 C 1.179688 0.0390625 1.046875 -0.34375 1.046875 -0.8125 L 1.046875 -9.0625 C 1.046875 -9.320312 1.050781 -9.707031 1.0625 -10.21875 C 1.082031 -10.738281 1.09375 -11.128906 1.09375 -11.390625 C 1.09375 -11.859375 1.234375 -12.25 1.515625 -12.5625 C 1.796875 -12.882812 2.195312 -13.046875 2.71875 -13.046875 C 3.644531 -13.046875 4.195312 -12.566406 4.375 -11.609375 C 5.863281 -12.710938 7.515625 -13.265625 9.328125 -13.265625 C 11.003906 -13.265625 11.84375 -12.148438 11.84375 -9.921875 C 11.84375 -9.492188 11.835938 -9.210938 11.828125 -9.078125 Z M 11.828125 -9.078125 "/></g></g></g><g fill="#1c2043" fill-opacity="1"><g transform="translate(228.938951, 33.06032)"><g><path d="M 4.15625 -15.125 C 3.613281 -15.125 3.144531 -15.304688 2.75 -15.671875 C 2.363281 -16.035156 2.171875 -16.476562 2.171875 -17 C 2.171875 -17.519531 2.363281 -17.957031 2.75 -18.3125 C 3.144531 -18.675781 3.613281 -18.859375 4.15625 -18.859375 C 4.6875 -18.859375 5.144531 -18.675781 5.53125 -18.3125 C 5.925781 -17.957031 6.125 -17.519531 6.125 -17 C 6.125 -16.476562 5.925781 -16.035156 5.53125 -15.671875 C 5.144531 -15.304688 4.6875 -15.125 4.15625 -15.125 Z M 5.21875 -5.90625 C 5.21875 -5.425781 5.234375 -4.65625 5.265625 -3.59375 C 5.296875 -2.539062 5.3125 -1.773438 5.3125 -1.296875 C 5.3125 -0.804688 5.144531 -0.40625 4.8125 -0.09375 C 4.488281 0.21875 4.078125 0.375 3.578125 0.375 C 3.066406 0.375 2.648438 0.21875 2.328125 -0.09375 C 2.003906 -0.40625 1.84375 -0.804688 1.84375 -1.296875 C 1.84375 -1.773438 1.828125 -2.539062 1.796875 -3.59375 C 1.765625 -4.65625 1.75 -5.425781 1.75 -5.90625 C 1.75 -6.65625 1.789062 -7.585938 1.875 -8.703125 C 1.957031 -9.828125 2 -10.765625 2 -11.515625 C 2 -12.003906 2.160156 -12.40625 2.484375 -12.71875 C 2.816406 -13.03125 3.234375 -13.1875 3.734375 -13.1875 C 4.242188 -13.1875 4.660156 -13.03125 4.984375 -12.71875 C 5.304688 -12.40625 5.46875 -12.003906 5.46875 -11.515625 C 5.46875 -10.765625 5.425781 -9.828125 5.34375 -8.703125 C 5.257812 -7.585938 5.21875 -6.65625 5.21875 -5.90625 Z M 5.21875 -5.90625 "/></g></g></g><g clip-path="url(#b18a577f1c)"><path fill="#f9b34d" d="M 3.621094 19.691406 L 45.414062 8.121094 L 32.386719 32.242188 L 20.378906 24.203125 L 45.351562 8.164062 L 18.988281 23.929688 L 17.359375 32.039062 L 14.171875 23.082031 L 45.347656 8.160156 L 13.59375 22.472656 Z M 3.621094 19.691406 " fill-opacity="1" fill-rule="evenodd"/></g><g clip-path="url(#7db57ef7ee)"><path fill="#f9b34d" d="M 18.171875 32.21875 L 23.542969 27.328125 L 20.089844 24.785156 Z M 18.171875 32.21875 " fill-opacity="1" fill-rule="evenodd"/></g><g clip-path="url(#f0c126abd1)"><path stroke-linecap="round" transform="matrix(0.603634, -0.434319, 0.434319, 0.603634, 1.483381, 40.3597)" fill="none" stroke-linejoin="miter" d="M 0.999345 0.99676 L 18.338307 1.002209 " stroke="#f9b34d" stroke-width="2" stroke-opacity="1" stroke-miterlimit="4"/></g><path stroke-linecap="round" transform="matrix(0.586354, -0.457379, 0.457379, 0.586354, 10.502089, 41.915448)" fill="none" stroke-linejoin="miter" d="M 1.00232 0.999329 L 20.726053 1.002212 " stroke="#f9b34d" stroke-width="2" stroke-opacity="1" stroke-miterlimit="4"/><g fill="#1c2043" fill-opacity="1"><g transform="translate(96.929739, 53.44284)"><g><path d="M 2.03125 -3.03125 C 1.914062 -2.625 1.753906 -2 1.546875 -1.15625 C 1.503906 -0.863281 1.457031 -0.578125 1.40625 -0.296875 C 1.300781 0.0664062 1.109375 0.25 0.828125 0.25 C 0.648438 0.25 0.507812 0.191406 0.40625 0.078125 C 0.320312 -0.0234375 0.28125 -0.148438 0.28125 -0.296875 C 0.28125 -0.710938 0.367188 -1.21875 0.546875 -1.8125 C 0.804688 -2.707031 0.945312 -3.203125 0.96875 -3.296875 C 1.039062 -3.691406 1.117188 -4.085938 1.203125 -4.484375 C 1.316406 -5.023438 1.4375 -5.382812 1.5625 -5.5625 C 1.695312 -5.75 1.867188 -5.84375 2.078125 -5.84375 C 2.316406 -5.84375 2.488281 -5.722656 2.59375 -5.484375 C 2.695312 -5.265625 2.804688 -4.8125 2.921875 -4.125 C 3.035156 -3.445312 3.207031 -2.722656 3.4375 -1.953125 C 3.726562 -2.710938 4 -3.550781 4.25 -4.46875 L 4.453125 -5.34375 C 4.597656 -5.71875 4.816406 -5.90625 5.109375 -5.90625 C 5.378906 -5.90625 5.582031 -5.691406 5.71875 -5.265625 C 5.78125 -5.085938 5.84375 -4.765625 5.90625 -4.296875 C 6.050781 -3.203125 6.238281 -2.265625 6.46875 -1.484375 C 6.695312 -0.691406 6.8125 -0.265625 6.8125 -0.203125 C 6.8125 -0.046875 6.75 0.0820312 6.625 0.1875 C 6.507812 0.269531 6.382812 0.3125 6.25 0.3125 C 5.96875 0.3125 5.757812 0.113281 5.625 -0.28125 L 5.40625 -1.21875 C 5.28125 -1.675781 5.148438 -2.335938 5.015625 -3.203125 C 4.898438 -2.859375 4.707031 -2.316406 4.4375 -1.578125 L 4.203125 -0.875 C 4.109375 -0.59375 4.007812 -0.363281 3.90625 -0.1875 C 3.769531 0.0507812 3.582031 0.171875 3.34375 0.171875 C 3.101562 0.171875 2.914062 0.03125 2.78125 -0.25 L 2.578125 -0.96875 C 2.367188 -1.625 2.1875 -2.3125 2.03125 -3.03125 Z M 2.03125 -3.03125 "/></g></g><g transform="translate(103.880594, 53.44284)"><g><path d="M 4.8125 0.109375 C 4.601562 0.109375 4.394531 -0.125 4.1875 -0.59375 C 4.050781 -0.894531 3.9375 -1.242188 3.84375 -1.640625 C 3.65625 -1.617188 3.347656 -1.59375 2.921875 -1.5625 C 2.515625 -1.53125 2.203125 -1.5 1.984375 -1.46875 C 1.867188 -1.175781 1.664062 -0.75 1.375 -0.1875 C 1.257812 0 1.101562 0.09375 0.90625 0.09375 C 0.757812 0.09375 0.628906 0.046875 0.515625 -0.046875 C 0.398438 -0.148438 0.34375 -0.273438 0.34375 -0.421875 C 0.34375 -0.554688 0.53125 -1 0.90625 -1.75 C 0.875 -1.832031 0.859375 -1.90625 0.859375 -1.96875 C 0.867188 -2.09375 0.992188 -2.191406 1.234375 -2.265625 C 1.597656 -2.890625 2.003906 -3.539062 2.453125 -4.21875 C 3.097656 -5.195312 3.492188 -5.6875 3.640625 -5.6875 C 3.921875 -5.6875 4.109375 -5.515625 4.203125 -5.171875 C 4.253906 -4.898438 4.332031 -4.488281 4.4375 -3.9375 C 4.59375 -3.195312 4.785156 -2.351562 5.015625 -1.40625 C 5.035156 -1.332031 5.101562 -1.160156 5.21875 -0.890625 C 5.3125 -0.671875 5.359375 -0.507812 5.359375 -0.40625 C 5.359375 -0.25 5.300781 -0.117188 5.1875 -0.015625 C 5.070312 0.078125 4.945312 0.117188 4.8125 0.109375 Z M 3.375 -3.828125 C 3.175781 -3.484375 2.898438 -3.015625 2.546875 -2.421875 C 2.660156 -2.453125 2.835938 -2.472656 3.078125 -2.484375 C 3.367188 -2.503906 3.550781 -2.519531 3.625 -2.53125 C 3.5625 -2.863281 3.476562 -3.296875 3.375 -3.828125 Z M 3.375 -3.828125 "/></g></g><g transform="translate(109.639654, 53.44284)"><g><path d="M 4.25 -4.09375 C 4.019531 -4.09375 3.847656 -4.210938 3.734375 -4.453125 C 3.679688 -4.578125 3.628906 -4.648438 3.578125 -4.671875 C 3.535156 -4.679688 3.4375 -4.6875 3.28125 -4.6875 C 2.957031 -4.6875 2.582031 -4.4375 2.15625 -3.9375 C 1.5625 -3.238281 1.265625 -2.582031 1.265625 -1.96875 C 1.265625 -1.6875 1.359375 -1.445312 1.546875 -1.25 C 1.734375 -1.050781 1.957031 -0.953125 2.21875 -0.953125 C 2.476562 -0.953125 2.738281 -1.019531 3 -1.15625 C 3.09375 -1.195312 3.285156 -1.320312 3.578125 -1.53125 C 3.773438 -1.65625 3.925781 -1.71875 4.03125 -1.71875 C 4.1875 -1.71875 4.316406 -1.664062 4.421875 -1.5625 C 4.523438 -1.457031 4.578125 -1.335938 4.578125 -1.203125 C 4.578125 -1.046875 4.507812 -0.910156 4.375 -0.796875 C 3.664062 -0.203125 2.945312 0.09375 2.21875 0.09375 C 1.644531 0.09375 1.160156 -0.113281 0.765625 -0.53125 C 0.378906 -0.9375 0.1875 -1.414062 0.1875 -1.96875 C 0.1875 -2.820312 0.5625 -3.695312 1.3125 -4.59375 C 1.957031 -5.351562 2.613281 -5.734375 3.28125 -5.734375 C 3.394531 -5.734375 3.492188 -5.726562 3.578125 -5.71875 C 3.671875 -5.71875 3.753906 -5.707031 3.828125 -5.6875 C 3.929688 -5.800781 4.066406 -5.859375 4.234375 -5.859375 C 4.492188 -5.859375 4.65625 -5.707031 4.71875 -5.40625 C 4.757812 -5.1875 4.78125 -4.9375 4.78125 -4.65625 C 4.78125 -4.519531 4.742188 -4.398438 4.671875 -4.296875 C 4.566406 -4.160156 4.425781 -4.09375 4.25 -4.09375 Z M 4.25 -4.09375 "/></g></g><g transform="translate(114.510634, 53.44284)"><g><path d="M 4.265625 -4.921875 C 4.210938 -4.921875 4.160156 -4.929688 4.109375 -4.953125 C 3.691406 -5.066406 3.285156 -5.125 2.890625 -5.125 C 2.703125 -5.125 2.492188 -5.109375 2.265625 -5.078125 C 2.046875 -5.046875 1.8125 -5 1.5625 -4.9375 C 1.5625 -4.59375 1.550781 -4.085938 1.53125 -3.421875 C 1.675781 -3.429688 2.175781 -3.476562 3.03125 -3.5625 C 3.519531 -3.613281 3.832031 -3.640625 3.96875 -3.640625 C 4.113281 -3.640625 4.238281 -3.585938 4.34375 -3.484375 C 4.457031 -3.390625 4.515625 -3.265625 4.515625 -3.109375 C 4.515625 -2.804688 4.351562 -2.632812 4.03125 -2.59375 C 3.820312 -2.570312 3.515625 -2.546875 3.109375 -2.515625 C 2.742188 -2.472656 2.195312 -2.421875 1.46875 -2.359375 C 1.445312 -2.035156 1.4375 -1.773438 1.4375 -1.578125 C 1.4375 -1.066406 1.46875 -0.78125 1.53125 -0.71875 C 1.550781 -0.6875 1.710938 -0.671875 2.015625 -0.671875 C 2.171875 -0.671875 2.40625 -0.671875 2.71875 -0.671875 C 3.039062 -0.679688 3.285156 -0.6875 3.453125 -0.6875 C 3.503906 -0.6875 3.578125 -0.691406 3.671875 -0.703125 C 3.773438 -0.722656 3.851562 -0.734375 3.90625 -0.734375 C 4.050781 -0.734375 4.175781 -0.691406 4.28125 -0.609375 C 4.394531 -0.515625 4.453125 -0.378906 4.453125 -0.203125 C 4.453125 0.078125 4.304688 0.25 4.015625 0.3125 C 3.753906 0.351562 3.222656 0.375 2.421875 0.375 C 1.578125 0.375 1.03125 0.265625 0.78125 0.046875 C 0.5 -0.203125 0.359375 -0.742188 0.359375 -1.578125 C 0.359375 -1.921875 0.382812 -2.4375 0.4375 -3.125 C 0.488281 -3.8125 0.515625 -4.328125 0.515625 -4.671875 C 0.515625 -4.753906 0.5 -4.882812 0.46875 -5.0625 C 0.445312 -5.238281 0.4375 -5.367188 0.4375 -5.453125 C 0.4375 -5.847656 0.613281 -6.046875 0.96875 -6.046875 C 1.082031 -6.046875 1.1875 -6.015625 1.28125 -5.953125 C 1.582031 -6.023438 1.863281 -6.078125 2.125 -6.109375 C 2.394531 -6.148438 2.648438 -6.171875 2.890625 -6.171875 C 3.535156 -6.171875 4.050781 -6.097656 4.4375 -5.953125 C 4.675781 -5.859375 4.796875 -5.691406 4.796875 -5.453125 C 4.796875 -5.328125 4.75 -5.210938 4.65625 -5.109375 C 4.550781 -4.984375 4.421875 -4.921875 4.265625 -4.921875 Z M 4.265625 -4.921875 "/></g></g><g transform="translate(119.427749, 53.44284)"><g><path d="M 4.328125 0.046875 C 4.191406 0.046875 4.066406 -0.00390625 3.953125 -0.109375 C 3.171875 -0.835938 2.316406 -1.34375 1.390625 -1.625 C 1.421875 -0.882812 1.4375 -0.472656 1.4375 -0.390625 C 1.4375 -0.242188 1.382812 -0.117188 1.28125 -0.015625 C 1.175781 0.0859375 1.046875 0.140625 0.890625 0.140625 C 0.734375 0.140625 0.601562 0.0859375 0.5 -0.015625 C 0.40625 -0.117188 0.359375 -0.242188 0.359375 -0.390625 C 0.359375 -0.578125 0.359375 -0.863281 0.359375 -1.25 C 0.367188 -1.632812 0.375 -1.921875 0.375 -2.109375 L 0.375 -5.21875 C 0.375 -5.382812 0.425781 -5.535156 0.53125 -5.671875 C 0.65625 -5.847656 0.832031 -5.925781 1.0625 -5.90625 C 1.6875 -5.863281 2.007812 -5.835938 2.03125 -5.828125 C 2.382812 -5.785156 2.6875 -5.703125 2.9375 -5.578125 C 4.03125 -5.023438 4.578125 -4.34375 4.578125 -3.53125 C 4.578125 -3.1875 4.460938 -2.882812 4.234375 -2.625 C 4.003906 -2.375 3.660156 -2.160156 3.203125 -1.984375 C 3.878906 -1.609375 4.390625 -1.222656 4.734375 -0.828125 C 4.828125 -0.722656 4.875 -0.609375 4.875 -0.484375 C 4.875 -0.335938 4.816406 -0.210938 4.703125 -0.109375 C 4.597656 -0.00390625 4.472656 0.046875 4.328125 0.046875 Z M 1.859375 -4.796875 C 1.835938 -4.796875 1.691406 -4.804688 1.421875 -4.828125 L 1.421875 -2.78125 C 1.484375 -2.78125 1.535156 -2.78125 1.578125 -2.78125 C 2.210938 -2.78125 2.679688 -2.859375 2.984375 -3.015625 C 3.109375 -3.078125 3.222656 -3.160156 3.328125 -3.265625 C 3.441406 -3.378906 3.5 -3.46875 3.5 -3.53125 C 3.5 -3.8125 3.316406 -4.085938 2.953125 -4.359375 C 2.609375 -4.609375 2.242188 -4.753906 1.859375 -4.796875 Z M 1.859375 -4.796875 "/></g></g><g transform="translate(124.467887, 53.44284)"><g><path d="M 4.8125 0.109375 C 4.601562 0.109375 4.394531 -0.125 4.1875 -0.59375 C 4.050781 -0.894531 3.9375 -1.242188 3.84375 -1.640625 C 3.65625 -1.617188 3.347656 -1.59375 2.921875 -1.5625 C 2.515625 -1.53125 2.203125 -1.5 1.984375 -1.46875 C 1.867188 -1.175781 1.664062 -0.75 1.375 -0.1875 C 1.257812 0 1.101562 0.09375 0.90625 0.09375 C 0.757812 0.09375 0.628906 0.046875 0.515625 -0.046875 C 0.398438 -0.148438 0.34375 -0.273438 0.34375 -0.421875 C 0.34375 -0.554688 0.53125 -1 0.90625 -1.75 C 0.875 -1.832031 0.859375 -1.90625 0.859375 -1.96875 C 0.867188 -2.09375 0.992188 -2.191406 1.234375 -2.265625 C 1.597656 -2.890625 2.003906 -3.539062 2.453125 -4.21875 C 3.097656 -5.195312 3.492188 -5.6875 3.640625 -5.6875 C 3.921875 -5.6875 4.109375 -5.515625 4.203125 -5.171875 C 4.253906 -4.898438 4.332031 -4.488281 4.4375 -3.9375 C 4.59375 -3.195312 4.785156 -2.351562 5.015625 -1.40625 C 5.035156 -1.332031 5.101562 -1.160156 5.21875 -0.890625 C 5.3125 -0.671875 5.359375 -0.507812 5.359375 -0.40625 C 5.359375 -0.25 5.300781 -0.117188 5.1875 -0.015625 C 5.070312 0.078125 4.945312 0.117188 4.8125 0.109375 Z M 3.375 -3.828125 C 3.175781 -3.484375 2.898438 -3.015625 2.546875 -2.421875 C 2.660156 -2.453125 2.835938 -2.472656 3.078125 -2.484375 C 3.367188 -2.503906 3.550781 -2.519531 3.625 -2.53125 C 3.5625 -2.863281 3.476562 -3.296875 3.375 -3.828125 Z M 3.375 -3.828125 "/></g></g><g transform="translate(130.226947, 53.44284)"><g><path d="M 4.25 -4.09375 C 4.019531 -4.09375 3.847656 -4.210938 3.734375 -4.453125 C 3.679688 -4.578125 3.628906 -4.648438 3.578125 -4.671875 C 3.535156 -4.679688 3.4375 -4.6875 3.28125 -4.6875 C 2.957031 -4.6875 2.582031 -4.4375 2.15625 -3.9375 C 1.5625 -3.238281 1.265625 -2.582031 1.265625 -1.96875 C 1.265625 -1.6875 1.359375 -1.445312 1.546875 -1.25 C 1.734375 -1.050781 1.957031 -0.953125 2.21875 -0.953125 C 2.476562 -0.953125 2.738281 -1.019531 3 -1.15625 C 3.09375 -1.195312 3.285156 -1.320312 3.578125 -1.53125 C 3.773438 -1.65625 3.925781 -1.71875 4.03125 -1.71875 C 4.1875 -1.71875 4.316406 -1.664062 4.421875 -1.5625 C 4.523438 -1.457031 4.578125 -1.335938 4.578125 -1.203125 C 4.578125 -1.046875 4.507812 -0.910156 4.375 -0.796875 C 3.664062 -0.203125 2.945312 0.09375 2.21875 0.09375 C 1.644531 0.09375 1.160156 -0.113281 0.765625 -0.53125 C 0.378906 -0.9375 0.1875 -1.414062 0.1875 -1.96875 C 0.1875 -2.820312 0.5625 -3.695312 1.3125 -4.59375 C 1.957031 -5.351562 2.613281 -5.734375 3.28125 -5.734375 C 3.394531 -5.734375 3.492188 -5.726562 3.578125 -5.71875 C 3.671875 -5.71875 3.753906 -5.707031 3.828125 -5.6875 C 3.929688 -5.800781 4.066406 -5.859375 4.234375 -5.859375 C 4.492188 -5.859375 4.65625 -5.707031 4.71875 -5.40625 C 4.757812 -5.1875 4.78125 -4.9375 4.78125 -4.65625 C 4.78125 -4.519531 4.742188 -4.398438 4.671875 -4.296875 C 4.566406 -4.160156 4.425781 -4.09375 4.25 -4.09375 Z M 4.25 -4.09375 "/></g></g><g transform="translate(135.097928, 53.44284)"><g><path d="M 3.6875 -4.546875 C 3.550781 -4.546875 3.179688 -4.582031 2.578125 -4.65625 C 2.546875 -4.175781 2.53125 -3.546875 2.53125 -2.765625 L 2.53125 -1.046875 C 2.863281 -1.054688 3.207031 -1.0625 3.5625 -1.0625 C 3.71875 -1.0625 3.847656 -1.007812 3.953125 -0.90625 C 4.054688 -0.800781 4.109375 -0.675781 4.109375 -0.53125 C 4.109375 -0.382812 4.054688 -0.257812 3.953125 -0.15625 C 3.847656 -0.0625 3.71875 -0.015625 3.5625 -0.015625 C 3.425781 -0.015625 3.210938 -0.0078125 2.921875 0 C 2.628906 0 2.414062 0 2.28125 0 C 2.101562 0 1.84375 0.0195312 1.5 0.0625 C 1.164062 0.113281 0.914062 0.140625 0.75 0.140625 C 0.59375 0.140625 0.460938 0.0859375 0.359375 -0.015625 C 0.265625 -0.117188 0.21875 -0.238281 0.21875 -0.375 C 0.21875 -0.519531 0.265625 -0.644531 0.359375 -0.75 C 0.460938 -0.851562 0.59375 -0.90625 0.75 -0.90625 C 0.925781 -0.90625 1.15625 -0.925781 1.4375 -0.96875 C 1.4375 -1.269531 1.4375 -1.847656 1.4375 -2.703125 C 1.4375 -3.398438 1.460938 -4.0625 1.515625 -4.6875 L 0.671875 -4.671875 C 0.523438 -4.671875 0.398438 -4.71875 0.296875 -4.8125 C 0.191406 -4.914062 0.140625 -5.039062 0.140625 -5.1875 C 0.140625 -5.34375 0.1875 -5.46875 0.28125 -5.5625 C 0.382812 -5.644531 0.503906 -5.695312 0.640625 -5.71875 C 0.867188 -5.738281 1.257812 -5.75 1.8125 -5.75 C 2.3125 -5.75 2.957031 -5.691406 3.75 -5.578125 C 4.070312 -5.535156 4.234375 -5.359375 4.234375 -5.046875 C 4.234375 -4.890625 4.164062 -4.765625 4.03125 -4.671875 C 3.925781 -4.585938 3.8125 -4.546875 3.6875 -4.546875 Z M 3.6875 -4.546875 "/></g></g><g transform="translate(139.399922, 53.44284)"><g/></g><g transform="translate(142.813838, 53.44284)"><g><path d="M 3.40625 -0.15625 C 2.800781 0.0703125 2.046875 0.1875 1.140625 0.1875 C 0.984375 0.1875 0.84375 0.125 0.71875 0 C 0.59375 -0.132812 0.53125 -0.273438 0.53125 -0.421875 L 0.53125 -4.5 C 0.53125 -4.664062 0.523438 -4.835938 0.515625 -5.015625 C 0.503906 -5.210938 0.507812 -5.378906 0.53125 -5.515625 C 0.570312 -5.753906 0.800781 -5.898438 1.21875 -5.953125 C 1.40625 -6.015625 1.726562 -6.046875 2.1875 -6.046875 C 2.664062 -6.046875 3.128906 -5.890625 3.578125 -5.578125 C 4.097656 -5.210938 4.359375 -4.753906 4.359375 -4.203125 C 4.359375 -3.910156 4.300781 -3.660156 4.1875 -3.453125 C 4.101562 -3.296875 3.957031 -3.125 3.75 -2.9375 C 4 -2.8125 4.21875 -2.628906 4.40625 -2.390625 C 4.625 -2.117188 4.734375 -1.847656 4.734375 -1.578125 C 4.734375 -1.234375 4.550781 -0.910156 4.1875 -0.609375 C 3.9375 -0.398438 3.675781 -0.25 3.40625 -0.15625 Z M 2.1875 -5 C 1.851562 -5 1.648438 -4.992188 1.578125 -4.984375 L 1.59375 -4.171875 L 1.578125 -3.375 C 1.816406 -3.34375 1.992188 -3.332031 2.109375 -3.34375 C 2.890625 -3.40625 3.28125 -3.691406 3.28125 -4.203125 C 3.28125 -4.390625 3.164062 -4.566406 2.9375 -4.734375 C 2.695312 -4.910156 2.445312 -5 2.1875 -5 Z M 2.625 -2.28125 C 2.394531 -2.28125 2.046875 -2.289062 1.578125 -2.3125 L 1.578125 -0.875 C 2.023438 -0.894531 2.503906 -0.976562 3.015625 -1.125 C 3.460938 -1.25 3.6875 -1.382812 3.6875 -1.53125 C 3.675781 -1.726562 3.53125 -1.90625 3.25 -2.0625 C 3.03125 -2.1875 2.820312 -2.257812 2.625 -2.28125 Z M 2.625 -2.28125 "/></g></g><g transform="translate(147.777086, 53.44284)"><g><path d="M 4 -0.140625 C 3.695312 -0.015625 3.234375 0.101562 2.609375 0.21875 C 2.023438 0.3125 1.546875 0.359375 1.171875 0.359375 C 0.546875 0.359375 0.234375 0.0820312 0.234375 -0.46875 C 0.234375 -0.425781 0.257812 -0.832031 0.3125 -1.6875 C 0.375 -2.800781 0.40625 -4.039062 0.40625 -5.40625 C 0.40625 -5.550781 0.457031 -5.671875 0.5625 -5.765625 C 0.664062 -5.867188 0.796875 -5.921875 0.953125 -5.921875 C 1.097656 -5.921875 1.222656 -5.867188 1.328125 -5.765625 C 1.429688 -5.671875 1.484375 -5.550781 1.484375 -5.40625 C 1.484375 -4.039062 1.445312 -2.78125 1.375 -1.625 C 1.351562 -1.414062 1.332031 -1.101562 1.3125 -0.6875 C 1.914062 -0.695312 2.691406 -0.84375 3.640625 -1.125 C 3.703125 -1.144531 3.757812 -1.15625 3.8125 -1.15625 C 3.976562 -1.15625 4.109375 -1.097656 4.203125 -0.984375 C 4.296875 -0.878906 4.34375 -0.757812 4.34375 -0.625 C 4.34375 -0.40625 4.226562 -0.242188 4 -0.140625 Z M 4 -0.140625 "/></g></g><g transform="translate(152.113681, 53.44284)"><g><path d="M 3.015625 0.234375 C 2.265625 0.234375 1.617188 0.015625 1.078125 -0.421875 C 0.515625 -0.890625 0.234375 -1.492188 0.234375 -2.234375 C 0.234375 -3.097656 0.503906 -3.890625 1.046875 -4.609375 C 1.660156 -5.421875 2.429688 -5.828125 3.359375 -5.828125 C 4.253906 -5.828125 4.925781 -5.617188 5.375 -5.203125 C 5.820312 -4.796875 6.046875 -4.179688 6.046875 -3.359375 C 6.046875 -2.484375 5.796875 -1.691406 5.296875 -0.984375 C 4.710938 -0.171875 3.953125 0.234375 3.015625 0.234375 Z M 3.359375 -4.78125 C 2.785156 -4.78125 2.296875 -4.503906 1.890625 -3.953125 C 1.515625 -3.429688 1.328125 -2.859375 1.328125 -2.234375 C 1.328125 -1.804688 1.488281 -1.457031 1.8125 -1.1875 C 2.132812 -0.9375 2.535156 -0.8125 3.015625 -0.8125 C 3.585938 -0.8125 4.0625 -1.085938 4.4375 -1.640625 C 4.78125 -2.140625 4.953125 -2.710938 4.953125 -3.359375 C 4.953125 -3.898438 4.832031 -4.273438 4.59375 -4.484375 C 4.363281 -4.679688 3.953125 -4.78125 3.359375 -4.78125 Z M 3.359375 -4.78125 "/></g></g><g transform="translate(158.399437, 53.44284)"><g><path d="M 5.140625 -2.265625 C 4.960938 -1.492188 4.609375 -0.878906 4.078125 -0.421875 C 3.546875 0.0351562 2.921875 0.265625 2.203125 0.265625 C 1.515625 0.265625 1 0.0859375 0.65625 -0.265625 C 0.320312 -0.628906 0.15625 -1.171875 0.15625 -1.890625 C 0.15625 -2.546875 0.316406 -3.21875 0.640625 -3.90625 C 0.960938 -4.601562 1.375 -5.164062 1.875 -5.59375 C 2.238281 -5.894531 2.625 -6.046875 3.03125 -6.046875 C 3.28125 -6.046875 3.617188 -5.953125 4.046875 -5.765625 C 4.546875 -5.554688 4.796875 -5.332031 4.796875 -5.09375 C 4.796875 -4.957031 4.742188 -4.832031 4.640625 -4.71875 C 4.535156 -4.613281 4.40625 -4.5625 4.25 -4.5625 C 4.175781 -4.5625 4.007812 -4.628906 3.75 -4.765625 C 3.488281 -4.910156 3.25 -4.984375 3.03125 -4.984375 C 2.800781 -4.984375 2.488281 -4.738281 2.09375 -4.25 C 1.519531 -3.519531 1.234375 -2.734375 1.234375 -1.890625 C 1.234375 -1.460938 1.296875 -1.171875 1.421875 -1.015625 C 1.554688 -0.859375 1.816406 -0.78125 2.203125 -0.78125 C 2.585938 -0.78125 2.929688 -0.890625 3.234375 -1.109375 C 3.546875 -1.347656 3.78125 -1.691406 3.9375 -2.140625 C 3.332031 -2.097656 2.8125 -1.976562 2.375 -1.78125 C 2.289062 -1.738281 2.210938 -1.71875 2.140625 -1.71875 C 1.984375 -1.71875 1.847656 -1.78125 1.734375 -1.90625 C 1.640625 -2.007812 1.59375 -2.128906 1.59375 -2.265625 C 1.59375 -2.648438 2.054688 -2.921875 2.984375 -3.078125 C 3.515625 -3.171875 4.128906 -3.21875 4.828125 -3.21875 C 4.972656 -3.21875 5.097656 -3.164062 5.203125 -3.0625 C 5.304688 -2.96875 5.359375 -2.847656 5.359375 -2.703125 C 5.359375 -2.515625 5.285156 -2.367188 5.140625 -2.265625 Z M 5.140625 -2.265625 "/></g></g></g><g clip-path="url(#392a66dc66)"><path fill="#f9b34d" d="M 235.832031 50.394531 L 234.382812 50.394531 L 234.382812 50.046875 C 234.382812 49.640625 234.054688 49.3125 233.652344 49.3125 L 231.960938 49.3125 C 231.554688 49.3125 231.226562 49.640625 231.226562 50.046875 L 231.226562 50.394531 L 230.816406 50.394531 L 230.816406 46.441406 C 230.816406 45.570312 230.105469 44.855469 229.230469 44.855469 L 228.78125 44.855469 L 228.78125 43.515625 C 229 43.480469 229.171875 43.289062 229.171875 43.058594 L 229.171875 42.972656 C 229.171875 42.71875 228.964844 42.511719 228.710938 42.511719 L 224.941406 42.511719 C 224.683594 42.511719 224.476562 42.71875 224.476562 42.972656 L 224.476562 43.058594 C 224.476562 43.289062 224.648438 43.480469 224.867188 43.515625 L 224.867188 44.855469 L 224.421875 44.855469 C 223.546875 44.855469 222.832031 45.570312 222.832031 46.441406 L 222.832031 54.453125 C 222.832031 55.097656 223.226562 55.675781 223.816406 55.917969 L 223.816406 56.480469 C 223.816406 56.757812 224.042969 56.984375 224.320312 56.984375 C 224.453125 56.984375 224.578125 56.933594 224.675781 56.835938 C 224.769531 56.742188 224.820312 56.617188 224.820312 56.480469 L 224.820312 56.039062 L 228.746094 56.039062 C 228.800781 56.5625 229.242188 56.96875 229.78125 56.96875 L 235.832031 56.96875 C 236.40625 56.96875 236.871094 56.5 236.871094 55.925781 L 236.871094 51.433594 C 236.871094 50.859375 236.40625 50.394531 235.832031 50.394531 Z M 235.082031 50.625 L 235.082031 56.738281 L 230.527344 56.738281 L 230.527344 50.625 Z M 231.976562 50.25 C 231.976562 50.113281 232.089844 50 232.226562 50 L 233.382812 50 C 233.519531 50 233.632812 50.113281 233.632812 50.25 L 233.632812 50.394531 L 231.976562 50.394531 Z M 228.25 44.855469 L 228.25 43.523438 L 228.550781 43.523438 L 228.550781 44.855469 Z M 227.996094 44.855469 L 227.792969 44.585938 C 227.695312 44.457031 227.550781 44.382812 227.398438 44.382812 L 226.25 44.382812 C 226.097656 44.382812 225.953125 44.457031 225.855469 44.589844 L 225.652344 44.855469 L 225.632812 44.855469 L 225.632812 43.523438 L 228.019531 43.523438 L 228.019531 44.855469 Z M 227.710938 44.855469 L 225.941406 44.855469 L 226.039062 44.726562 C 226.09375 44.65625 226.171875 44.613281 226.253906 44.613281 L 227.398438 44.613281 C 227.480469 44.613281 227.558594 44.65625 227.609375 44.726562 Z M 225.097656 43.523438 L 225.402344 43.523438 L 225.402344 44.855469 L 225.097656 44.855469 Z M 223.0625 54.453125 L 223.0625 46.441406 C 223.0625 45.695312 223.671875 45.085938 224.421875 45.085938 L 229.230469 45.085938 C 229.976562 45.085938 230.585938 45.695312 230.585938 46.441406 L 230.585938 50.394531 L 229.882812 50.394531 L 229.882812 46.285156 C 229.882812 46.039062 229.683594 45.835938 229.4375 45.835938 C 229.316406 45.835938 229.207031 45.882812 229.121094 45.96875 C 229.035156 46.050781 228.988281 46.164062 228.988281 46.285156 L 228.988281 50.761719 C 228.828125 50.949219 228.738281 51.1875 228.738281 51.433594 L 228.738281 55.808594 L 224.421875 55.808594 C 224.265625 55.808594 224.113281 55.785156 223.96875 55.734375 C 223.425781 55.542969 223.0625 55.027344 223.0625 54.453125 Z M 228.96875 55.9375 C 228.96875 55.933594 228.972656 55.929688 228.972656 55.925781 C 228.972656 55.921875 228.96875 55.917969 228.96875 55.910156 L 228.96875 51.433594 C 228.96875 51.273438 229.015625 51.121094 229.105469 50.988281 C 229.167969 50.988281 229.21875 50.9375 229.21875 50.871094 L 229.21875 50.851562 C 229.363281 50.710938 229.550781 50.632812 229.75 50.625 C 229.757812 50.625 229.761719 50.628906 229.765625 50.628906 C 229.773438 50.628906 229.777344 50.625 229.785156 50.625 L 230.296875 50.625 L 230.296875 56.738281 L 229.78125 56.738281 C 229.335938 56.738281 228.976562 56.382812 228.96875 55.9375 Z M 236.640625 55.925781 C 236.640625 56.375 236.277344 56.738281 235.832031 56.738281 L 235.3125 56.738281 L 235.3125 50.625 L 235.832031 50.625 C 236.277344 50.625 236.640625 50.988281 236.640625 51.433594 Z M 236.640625 55.925781 " fill-opacity="1" fill-rule="nonzero"/></g><path fill="#f9b34d" d="M 226.789062 54.917969 L 226.863281 54.917969 C 227.085938 54.917969 227.269531 54.734375 227.269531 54.507812 L 227.269531 46.246094 C 227.269531 46.019531 227.085938 45.835938 226.863281 45.835938 L 226.789062 45.835938 C 226.5625 45.835938 226.378906 46.019531 226.378906 46.246094 L 226.378906 54.507812 C 226.378906 54.734375 226.5625 54.917969 226.789062 54.917969 Z M 226.789062 54.917969 " fill-opacity="1" fill-rule="nonzero"/><path fill="#f9b34d" d="M 225.449219 54.917969 L 225.519531 54.917969 C 225.746094 54.917969 225.929688 54.734375 225.929688 54.507812 L 225.929688 46.246094 C 225.929688 46.019531 225.746094 45.835938 225.519531 45.835938 L 225.449219 45.835938 C 225.222656 45.835938 225.039062 46.019531 225.039062 46.246094 L 225.039062 54.507812 C 225.039062 54.734375 225.222656 54.917969 225.449219 54.917969 Z M 225.449219 54.917969 " fill-opacity="1" fill-rule="nonzero"/><path fill="#f9b34d" d="M 224.179688 54.917969 C 224.40625 54.917969 224.589844 54.734375 224.589844 54.507812 L 224.589844 46.246094 C 224.589844 46.019531 224.40625 45.835938 224.179688 45.835938 L 224.109375 45.835938 C 223.882812 45.835938 223.699219 46.019531 223.699219 46.246094 L 223.699219 54.507812 C 223.699219 54.734375 223.882812 54.917969 224.109375 54.917969 Z M 224.179688 54.917969 " fill-opacity="1" fill-rule="nonzero"/><path fill="#f9b34d" d="M 228.058594 54.917969 L 228.132812 54.917969 C 228.359375 54.917969 228.542969 54.734375 228.542969 54.507812 L 228.542969 46.246094 C 228.542969 46.019531 228.359375 45.835938 228.132812 45.835938 L 228.058594 45.835938 C 227.832031 45.835938 227.648438 46.019531 227.648438 46.246094 L 227.648438 54.507812 C 227.648438 54.734375 227.832031 54.917969 228.058594 54.917969 Z M 228.058594 54.917969 " fill-opacity="1" fill-rule="nonzero"/></svg>