<svg width="64" height="64" viewBox="0 0 64 64" fill="none" xmlns="http://www.w3.org/2000/svg">
<path fill-rule="evenodd" clip-rule="evenodd" d="M36.8237 33.4303C36.8237 33.7852 36.5222 34.0872 36.1641 34.0872H29.2553C28.905 34.0872 28.6036 33.7852 28.6036 33.4303V25.8548C28.6036 25.4987 28.905 25.1986 29.2553 25.1986H36.1641C36.5222 25.1986 36.8237 25.4987 36.8237 25.8548V33.4303ZM36.1641 23.2663H31.0398V22.0677C31.0398 19.3724 28.8484 17.181 26.1433 17.181C23.4467 17.181 21.2559 19.3724 21.2559 22.0677V23.8613C21.2559 24.3945 21.6876 24.8275 22.2253 24.8275C22.7546 24.8275 23.1863 24.3945 23.1863 23.8613V22.0677C23.1863 20.4388 24.5144 19.1133 26.1433 19.1133C27.7813 19.1133 29.1088 20.4388 29.1088 22.0677V23.2747C27.7488 23.3542 26.6733 24.4798 26.6733 25.8548V33.4303C26.6733 34.8568 27.8302 36.0182 29.2559 36.0182H36.1641C37.5977 36.0182 38.7546 34.8574 38.7546 33.4303V25.8548C38.7546 24.4284 37.5977 23.2663 36.1641 23.2663ZM31.1537 41.752C39.4063 41.752 46.127 35.0469 46.127 26.8014C46.127 18.5579 39.4063 11.8516 31.1537 11.8516C22.9011 11.8516 16.1882 18.5579 16.1882 26.8014C16.1882 35.0469 22.9011 41.752 31.1537 41.752ZM31.1537 9.91992C21.8341 9.91992 14.2579 17.4928 14.2579 26.8014C14.2579 36.1113 21.8341 43.6842 31.1537 43.6842C40.4734 43.6842 48.058 36.1113 48.058 26.8014C48.058 17.4928 40.4734 9.91992 31.1537 9.91992ZM54.3471 29.7422C55.4473 29.11 56.0496 28.0664 56.0496 26.8014C56.0496 25.5384 55.4473 24.4928 54.3471 23.8607L52.9213 23.0352C51.5737 22.2572 51.1127 20.5319 51.8868 19.1953L52.7175 17.7643C53.3451 16.6699 53.3451 15.4629 52.7175 14.3685C52.0821 13.2734 51.0398 12.6699 49.769 12.6699H48.1153C46.5671 12.6699 45.3048 11.4095 45.3048 9.85938V8.20768C45.3048 6.94336 44.7019 5.89844 43.6016 5.26562C42.5098 4.63542 41.3041 4.63542 40.2045 5.26562L38.7709 6.09245C37.4265 6.86719 35.6993 6.4056 34.9259 5.0625L34.1029 3.63346C33.4675 2.53776 32.4246 1.9349 31.1537 1.9349C29.8907 1.9349 28.8484 2.53776 28.213 3.63346L27.3901 5.0625C26.6179 6.40365 24.8868 6.87044 23.545 6.09245L22.1108 5.26562C21.0112 4.63542 19.8054 4.63346 18.7058 5.26562C17.614 5.89844 17.0111 6.94271 17.0111 8.20768V9.85938C17.0111 11.4102 15.7481 12.6706 14.1921 12.6706H12.5385C11.2761 12.6706 10.2332 13.2734 9.59774 14.3685C8.96232 15.4635 8.96232 16.6699 9.59774 17.7643L10.4207 19.1953C11.2026 20.5371 10.7384 22.2598 9.39396 23.0352L7.96037 23.8607C6.86857 24.4928 6.26571 25.5384 6.26571 26.8014C6.26571 28.0664 6.86857 29.112 7.96037 29.7428L9.39396 30.5697C10.7384 31.3444 11.2026 33.0677 10.4207 34.4095L9.59774 35.8392C8.96232 36.9336 8.96232 38.1406 9.59774 39.235C10.2332 40.3294 11.2761 40.9336 12.5385 40.9336H14.1921C15.7481 40.9336 17.0111 42.194 17.0111 43.7441V45.3965C17.0111 46.6602 17.614 47.7038 18.7058 48.3379C19.8054 48.9694 21.0112 48.9694 22.1108 48.3379L23.545 47.5111C24.8842 46.7389 26.614 47.1947 27.3901 48.5417L28.213 49.9707C28.8484 51.0651 29.8907 51.6686 31.1537 51.6686C32.4246 51.6686 33.4675 51.0651 34.1029 49.9707L34.9259 48.5417C35.6973 47.2018 37.422 46.7344 38.7709 47.5111L40.2045 48.3379C41.2963 48.9688 42.5098 48.9694 43.6016 48.3379C44.7013 47.7057 45.3048 46.6602 45.3048 45.3965V43.7441C45.3048 42.194 46.5671 40.9336 48.1153 40.9336H49.769C51.0398 40.9336 52.0828 40.3294 52.7175 39.235C53.3451 38.1406 53.3451 36.9336 52.7175 35.8392L51.8868 34.4095C51.1127 33.0736 51.5723 31.3477 52.9213 30.5697L54.3471 29.7422ZM50.0294 55.8086L44.8647 54.3822C44.3406 54.2376 43.8015 54.5527 43.6667 55.0697L42.323 60.2526L36.3595 49.9303C36.5789 49.5508 36.7052 49.2116 37.1335 49.097C37.3614 49.0371 37.6062 49.0664 37.8093 49.1836L39.2351 50.0104C40.9298 50.9876 42.877 50.9876 44.571 50.0104C45.1251 49.6888 45.6062 49.291 45.9968 48.832L50.0294 55.8086ZM19.9929 60.2526L18.6485 55.0697C18.5131 54.5495 17.9701 54.2389 17.4513 54.3815L12.2859 55.8086L16.3184 48.832C16.7097 49.291 17.1824 49.6888 17.7442 50.0104C19.4389 50.9876 21.3777 50.9876 23.0808 50.0104L24.5059 49.1836C24.9259 48.9427 25.474 49.0885 25.7117 49.5072L25.9565 49.9323L19.9929 60.2526ZM55.3165 22.1875L53.8829 21.362C53.4708 21.1204 53.3184 20.5794 53.5652 20.1608L54.3881 18.7305C55.3653 17.0371 55.3653 15.0951 54.3881 13.4036C53.4102 11.7103 51.724 10.7383 49.769 10.7383H48.1153C47.6342 10.7383 47.2351 10.3438 47.2351 9.85938V8.20768C47.2351 4.0944 42.8002 1.5319 39.2351 3.59375L37.8093 4.42057C37.3862 4.66276 36.8484 4.51823 36.6036 4.09766L35.7729 2.66732C34.795 0.97526 33.1173 0.00390625 31.1537 0.00390625C29.1987 0.00390625 27.5203 0.97526 26.5346 2.66732L25.7117 4.09766C25.4675 4.51823 24.9298 4.66276 24.5059 4.42057L23.0802 3.59375C19.5144 1.53581 15.0723 4.09896 15.0723 8.20768V9.85938C15.0723 10.3438 14.6811 10.7383 14.1921 10.7383H12.5385C10.5834 10.7383 8.90503 11.7103 7.92782 13.4036C6.94214 15.0957 6.94214 17.0371 7.92782 18.7305L8.75073 20.1615C8.99487 20.5814 8.84839 21.1198 8.42456 21.3626L6.99878 22.1875C3.42521 24.252 3.42716 29.3516 6.99878 31.416L8.42456 32.2415C8.84839 32.4844 8.99487 33.0234 8.75073 33.4434L7.92782 34.8744C6.94214 36.5664 6.94214 38.5078 7.92782 40.2012C8.90503 41.8945 10.5834 42.8652 12.5385 42.8652H14.1921C14.6811 42.8652 15.0723 43.2591 15.0723 43.7441V45.3965C15.0723 45.8861 15.1375 46.3581 15.2514 46.8066L9.43498 56.8854C8.99487 57.6341 9.69474 58.5273 10.5268 58.2995L17.0196 56.5059L18.7136 63.0208C18.9291 63.8529 20.0535 64.0078 20.4819 63.2611L27.1296 51.7708C29.2019 54.2174 33.0958 54.2194 35.1863 51.7708L41.8256 63.2611C42.2631 64.0072 43.3855 63.8561 43.6016 63.0208L45.2963 56.5059L51.7891 58.2995C52.6127 58.528 53.3139 57.6367 52.8809 56.8854L47.0561 46.8066C47.1778 46.3581 47.2351 45.8861 47.2351 45.3965V43.7441C47.2351 43.2591 47.6342 42.8652 48.1153 42.8652H49.769C53.8888 42.8652 56.4421 38.4382 54.3881 34.8744L53.5652 33.4434C53.3184 33.0247 53.4708 32.4831 53.8829 32.2415L55.3165 31.416C58.879 29.3633 58.8783 24.2415 55.3165 22.1875Z" fill="#C868C4"/>
<path fill-rule="evenodd" clip-rule="evenodd" d="M36.8237 33.4303C36.8237 33.7852 36.5222 34.0872 36.1641 34.0872H29.2553C28.905 34.0872 28.6036 33.7852 28.6036 33.4303V25.8548C28.6036 25.4987 28.905 25.1986 29.2553 25.1986H36.1641C36.5222 25.1986 36.8237 25.4987 36.8237 25.8548V33.4303ZM36.1641 23.2663H31.0398V22.0677C31.0398 19.3724 28.8484 17.181 26.1433 17.181C23.4467 17.181 21.2559 19.3724 21.2559 22.0677V23.8613C21.2559 24.3945 21.6876 24.8275 22.2253 24.8275C22.7546 24.8275 23.1863 24.3945 23.1863 23.8613V22.0677C23.1863 20.4388 24.5144 19.1133 26.1433 19.1133C27.7813 19.1133 29.1088 20.4388 29.1088 22.0677V23.2747C27.7488 23.3542 26.6733 24.4798 26.6733 25.8548V33.4303C26.6733 34.8568 27.8302 36.0182 29.2559 36.0182H36.1641C37.5977 36.0182 38.7546 34.8574 38.7546 33.4303V25.8548C38.7546 24.4284 37.5977 23.2663 36.1641 23.2663ZM31.1537 41.752C39.4063 41.752 46.127 35.0469 46.127 26.8014C46.127 18.5579 39.4063 11.8516 31.1537 11.8516C22.9011 11.8516 16.1882 18.5579 16.1882 26.8014C16.1882 35.0469 22.9011 41.752 31.1537 41.752ZM31.1537 9.91992C21.8341 9.91992 14.2579 17.4928 14.2579 26.8014C14.2579 36.1113 21.8341 43.6842 31.1537 43.6842C40.4734 43.6842 48.058 36.1113 48.058 26.8014C48.058 17.4928 40.4734 9.91992 31.1537 9.91992ZM54.3471 29.7422C55.4473 29.11 56.0496 28.0664 56.0496 26.8014C56.0496 25.5384 55.4473 24.4928 54.3471 23.8607L52.9213 23.0352C51.5737 22.2572 51.1127 20.5319 51.8868 19.1953L52.7175 17.7643C53.3451 16.6699 53.3451 15.4629 52.7175 14.3685C52.0821 13.2734 51.0398 12.6699 49.769 12.6699H48.1153C46.5671 12.6699 45.3048 11.4095 45.3048 9.85938V8.20768C45.3048 6.94336 44.7019 5.89844 43.6016 5.26562C42.5098 4.63542 41.3041 4.63542 40.2045 5.26562L38.7709 6.09245C37.4265 6.86719 35.6993 6.4056 34.9259 5.0625L34.1029 3.63346C33.4675 2.53776 32.4246 1.9349 31.1537 1.9349C29.8907 1.9349 28.8484 2.53776 28.213 3.63346L27.3901 5.0625C26.6179 6.40365 24.8868 6.87044 23.545 6.09245L22.1108 5.26562C21.0112 4.63542 19.8054 4.63346 18.7058 5.26562C17.614 5.89844 17.0111 6.94271 17.0111 8.20768V9.85938C17.0111 11.4102 15.7481 12.6706 14.1921 12.6706H12.5385C11.2761 12.6706 10.2332 13.2734 9.59774 14.3685C8.96232 15.4635 8.96232 16.6699 9.59774 17.7643L10.4207 19.1953C11.2026 20.5371 10.7384 22.2598 9.39396 23.0352L7.96037 23.8607C6.86857 24.4928 6.26571 25.5384 6.26571 26.8014C6.26571 28.0664 6.86857 29.112 7.96037 29.7428L9.39396 30.5697C10.7384 31.3444 11.2026 33.0677 10.4207 34.4095L9.59774 35.8392C8.96232 36.9336 8.96232 38.1406 9.59774 39.235C10.2332 40.3294 11.2761 40.9336 12.5385 40.9336H14.1921C15.7481 40.9336 17.0111 42.194 17.0111 43.7441V45.3965C17.0111 46.6602 17.614 47.7038 18.7058 48.3379C19.8054 48.9694 21.0112 48.9694 22.1108 48.3379L23.545 47.5111C24.8842 46.7389 26.614 47.1947 27.3901 48.5417L28.213 49.9707C28.8484 51.0651 29.8907 51.6686 31.1537 51.6686C32.4246 51.6686 33.4675 51.0651 34.1029 49.9707L34.9259 48.5417C35.6973 47.2018 37.422 46.7344 38.7709 47.5111L40.2045 48.3379C41.2963 48.9688 42.5098 48.9694 43.6016 48.3379C44.7013 47.7057 45.3048 46.6602 45.3048 45.3965V43.7441C45.3048 42.194 46.5671 40.9336 48.1153 40.9336H49.769C51.0398 40.9336 52.0828 40.3294 52.7175 39.235C53.3451 38.1406 53.3451 36.9336 52.7175 35.8392L51.8868 34.4095C51.1127 33.0736 51.5723 31.3477 52.9213 30.5697L54.3471 29.7422ZM50.0294 55.8086L44.8647 54.3822C44.3406 54.2376 43.8015 54.5527 43.6667 55.0697L42.323 60.2526L36.3595 49.9303C36.5789 49.5508 36.7052 49.2116 37.1335 49.097C37.3614 49.0371 37.6062 49.0664 37.8093 49.1836L39.2351 50.0104C40.9298 50.9876 42.877 50.9876 44.571 50.0104C45.1251 49.6888 45.6062 49.291 45.9968 48.832L50.0294 55.8086ZM19.9929 60.2526L18.6485 55.0697C18.5131 54.5495 17.9701 54.2389 17.4513 54.3815L12.2859 55.8086L16.3184 48.832C16.7097 49.291 17.1824 49.6888 17.7442 50.0104C19.4389 50.9876 21.3777 50.9876 23.0808 50.0104L24.5059 49.1836C24.9259 48.9427 25.474 49.0885 25.7117 49.5072L25.9565 49.9323L19.9929 60.2526ZM55.3165 22.1875L53.8829 21.362C53.4708 21.1204 53.3184 20.5794 53.5652 20.1608L54.3881 18.7305C55.3653 17.0371 55.3653 15.0951 54.3881 13.4036C53.4102 11.7103 51.724 10.7383 49.769 10.7383H48.1153C47.6342 10.7383 47.2351 10.3438 47.2351 9.85938V8.20768C47.2351 4.0944 42.8002 1.5319 39.2351 3.59375L37.8093 4.42057C37.3862 4.66276 36.8484 4.51823 36.6036 4.09766L35.7729 2.66732C34.795 0.97526 33.1173 0.00390625 31.1537 0.00390625C29.1987 0.00390625 27.5203 0.97526 26.5346 2.66732L25.7117 4.09766C25.4675 4.51823 24.9298 4.66276 24.5059 4.42057L23.0802 3.59375C19.5144 1.53581 15.0723 4.09896 15.0723 8.20768V9.85938C15.0723 10.3438 14.6811 10.7383 14.1921 10.7383H12.5385C10.5834 10.7383 8.90503 11.7103 7.92782 13.4036C6.94214 15.0957 6.94214 17.0371 7.92782 18.7305L8.75073 20.1615C8.99487 20.5814 8.84839 21.1198 8.42456 21.3626L6.99878 22.1875C3.42521 24.252 3.42716 29.3516 6.99878 31.416L8.42456 32.2415C8.84839 32.4844 8.99487 33.0234 8.75073 33.4434L7.92782 34.8744C6.94214 36.5664 6.94214 38.5078 7.92782 40.2012C8.90503 41.8945 10.5834 42.8652 12.5385 42.8652H14.1921C14.6811 42.8652 15.0723 43.2591 15.0723 43.7441V45.3965C15.0723 45.8861 15.1375 46.3581 15.2514 46.8066L9.43498 56.8854C8.99487 57.6341 9.69474 58.5273 10.5268 58.2995L17.0196 56.5059L18.7136 63.0208C18.9291 63.8529 20.0535 64.0078 20.4819 63.2611L27.1296 51.7708C29.2019 54.2174 33.0958 54.2194 35.1863 51.7708L41.8256 63.2611C42.2631 64.0072 43.3855 63.8561 43.6016 63.0208L45.2963 56.5059L51.7891 58.2995C52.6127 58.528 53.3139 57.6367 52.8809 56.8854L47.0561 46.8066C47.1778 46.3581 47.2351 45.8861 47.2351 45.3965V43.7441C47.2351 43.2591 47.6342 42.8652 48.1153 42.8652H49.769C53.8888 42.8652 56.4421 38.4382 54.3881 34.8744L53.5652 33.4434C53.3184 33.0247 53.4708 32.4831 53.8829 32.2415L55.3165 31.416C58.879 29.3633 58.8783 24.2415 55.3165 22.1875Z" fill="url(#paint0_angular_82_948)" fill-opacity="0.63"/>
<defs>
<radialGradient id="paint0_angular_82_948" cx="0" cy="0" r="1" gradientUnits="userSpaceOnUse" gradientTransform="translate(24.5 21.5) rotate(114.076) scale(25.7391 27.7741)">
<stop stop-color="#DF8DDC"/>
<stop offset="1" stop-color="white" stop-opacity="0.03"/>
</radialGradient>
</defs>
</svg>
