<svg xmlns="http://www.w3.org/2000/svg" xmlns:xlink="http://www.w3.org/1999/xlink" width="47" zoomAndPan="magnify" viewBox="0 0 35.25 31.499999" height="42" preserveAspectRatio="xMidYMid meet" version="1.0"><defs><clipPath id="5bb830bfda"><path d="M 1 0.0820312 L 32 0.0820312 L 32 22 L 1 22 Z M 1 0.0820312 " clip-rule="nonzero"/></clipPath><clipPath id="3951208e00"><path d="M 0.140625 5.679688 L 31.242188 0.214844 L 34.421875 18.296875 L 3.320312 23.761719 Z M 0.140625 5.679688 " clip-rule="nonzero"/></clipPath><clipPath id="f707ab0ee9"><path d="M 0.140625 5.679688 L 31.242188 0.214844 L 34.421875 18.296875 L 3.320312 23.761719 Z M 0.140625 5.679688 " clip-rule="nonzero"/></clipPath><clipPath id="143758a3a6"><path d="M 14 15 L 18 15 L 18 22 L 14 22 Z M 14 15 " clip-rule="nonzero"/></clipPath><clipPath id="89c4b38894"><path d="M 0.140625 5.679688 L 31.242188 0.214844 L 34.421875 18.296875 L 3.320312 23.761719 Z M 0.140625 5.679688 " clip-rule="nonzero"/></clipPath><clipPath id="90f1229ab2"><path d="M 0.140625 5.679688 L 31.242188 0.214844 L 34.421875 18.296875 L 3.320312 23.761719 Z M 0.140625 5.679688 " clip-rule="nonzero"/></clipPath><clipPath id="a357a88207"><path d="M 0 18 L 15 18 L 15 30.925781 L 0 30.925781 Z M 0 18 " clip-rule="nonzero"/></clipPath><clipPath id="671fefb219"><path d="M 6 17 L 23 17 L 23 30.925781 L 6 30.925781 Z M 6 17 " clip-rule="nonzero"/></clipPath></defs><g clip-path="url(#5bb830bfda)"><g clip-path="url(#3951208e00)"><g clip-path="url(#f707ab0ee9)"><path fill="#f9b34f" d="M 1.648438 14.253906 L 31.117188 0.234375 L 24.601562 19.808594 L 14.65625 15.414062 L 31.078125 0.273438 L 13.589844 15.394531 L 13.4375 21.613281 L 9.910156 15.394531 L 31.074219 0.273438 L 9.402344 15.015625 Z M 1.648438 14.253906 " fill-opacity="1" fill-rule="evenodd"/></g></g></g><g clip-path="url(#143758a3a6)"><g clip-path="url(#89c4b38894)"><g clip-path="url(#90f1229ab2)"><path fill="#f9b34f" d="M 14.0625 21.644531 L 17.410156 17.316406 L 14.519531 15.882812 Z M 14.0625 21.644531 " fill-opacity="1" fill-rule="evenodd"/></g></g></g><path stroke-linecap="round" transform="matrix(0.550218, -0.486381, 0.486381, 0.550218, 2.866713, 22.300795)" fill="none" stroke-linejoin="miter" d="M 0.502357 0.500842 L 9.553908 0.501126 " stroke="#f9b34f" stroke-width="1" stroke-opacity="1" stroke-miterlimit="4"/><g clip-path="url(#a357a88207)"><path stroke-linecap="round" transform="matrix(0.512886, -0.525599, 0.525599, 0.512886, 2.893777, 29.987318)" fill="none" stroke-linejoin="miter" d="M 0.501472 0.500547 L 14.234679 0.499397 " stroke="#f9b34f" stroke-width="1" stroke-opacity="1" stroke-miterlimit="4"/></g><g clip-path="url(#671fefb219)"><path stroke-linecap="round" transform="matrix(0.492138, -0.545075, 0.545075, 0.492138, 9.785154, 29.958076)" fill="none" stroke-linejoin="miter" d="M 0.502787 0.499185 L 16.056637 0.502139 " stroke="#f9b34f" stroke-width="1" stroke-opacity="1" stroke-miterlimit="4"/></g></svg>