<svg width="30" height="30" viewBox="0 0 30 30" fill="none" xmlns="http://www.w3.org/2000/svg">
<path opacity="0.16" fill-rule="evenodd" clip-rule="evenodd" d="M21.8748 20.6245L14.9998 27.4995L8.12485 20.6245C6.76518 19.2648 5.83924 17.5324 5.46413 15.6464C5.08902 13.7605 5.28159 11.8056 6.01747 10.0291C6.75336 8.25257 7.99951 6.73415 9.59836 5.66585C11.1972 4.59755 13.0769 4.02734 14.9998 4.02734C16.9228 4.02734 18.8025 4.59755 20.4013 5.66585C22.0002 6.73415 23.2463 8.25257 23.9822 10.0291C24.7181 11.8056 24.9107 13.7605 24.5356 15.6464C24.1605 17.5324 23.2345 19.2648 21.8748 20.6245ZM14.9998 14.9995C15.3314 14.9995 15.6493 14.8678 15.8837 14.6334C16.1182 14.399 16.2498 14.0811 16.2498 13.7495C16.2498 13.418 16.1182 13.1001 15.8837 12.8657C15.6493 12.6312 15.3314 12.4995 14.9998 12.4995C14.6683 12.4995 14.3504 12.6312 14.116 12.8657C13.8815 13.1001 13.7498 13.418 13.7498 13.7495C13.7498 14.0811 13.8815 14.399 14.116 14.6334C14.3504 14.8678 14.6683 14.9995 14.9998 14.9995Z" fill="#B5B5B5"/>
<path d="M13.125 13.7615L15 15.624L16.875 13.7615L15 11.874L13.125 13.7615Z" stroke="#B5B5B5" stroke-linejoin="round"/>
<path d="M14.9998 27.4995L21.8748 20.6245C23.2345 19.2648 24.1605 17.5324 24.5356 15.6464C24.9107 13.7605 24.7181 11.8056 23.9822 10.0291C23.2463 8.25257 22.0002 6.73415 20.4013 5.66585C18.8025 4.59755 16.9228 4.02734 14.9998 4.02734C13.0769 4.02734 11.1972 4.59755 9.59836 5.66585C7.99951 6.73415 6.75336 8.25257 6.01747 10.0291C5.28159 11.8056 5.08902 13.7605 5.46413 15.6464C5.83924 17.5324 6.76518 19.2648 8.12485 20.6245L14.9998 27.4995Z" stroke="#B5B5B5" stroke-width="2" stroke-linejoin="round"/>
</svg>
