<svg width="30" height="30" viewBox="0 0 30 30" fill="none" xmlns="http://www.w3.org/2000/svg">
<path opacity="0.2" d="M26.243 20.3998C26.0609 21.7604 25.3909 23.0085 24.3575 23.9121C23.3241 24.8158 21.9977 25.3133 20.625 25.3123C16.3981 25.3123 12.3443 23.6331 9.35549 20.6443C6.36663 17.6554 4.6875 13.6016 4.6875 9.37476C4.68645 8.00203 5.184 6.67564 6.08761 5.64226C6.99123 4.60888 8.2394 3.93886 9.6 3.75679C9.80113 3.7329 10.0046 3.77478 10.1799 3.87618C10.3553 3.97758 10.4931 4.13304 10.5727 4.31929L13.0488 9.85054C13.1097 9.99261 13.1344 10.1475 13.1209 10.3015C13.1075 10.4554 13.0561 10.6036 12.9715 10.733L10.4672 13.7107C10.3784 13.8447 10.3258 13.9995 10.3147 14.16C10.3036 14.3204 10.3344 14.4809 10.4039 14.6259C11.373 16.6099 13.4238 18.6361 15.4137 19.5959C15.5594 19.6651 15.7207 19.6951 15.8816 19.683C16.0425 19.6709 16.1975 19.617 16.3313 19.5267L19.2609 17.0306C19.3908 16.9442 19.5401 16.8916 19.6954 16.8775C19.8507 16.8633 20.0071 16.8882 20.1504 16.9498L25.677 19.4259C25.8641 19.505 26.0204 19.6427 26.1225 19.8184C26.2246 19.994 26.2669 20.198 26.243 20.3998Z" fill="#B5B5B5"/>
<path d="M26.059 18.5695L20.5383 16.0957L20.5231 16.0887C20.2365 15.9661 19.9238 15.9169 19.6134 15.9455C19.303 15.9742 19.0047 16.0798 18.7453 16.2527C18.7148 16.2729 18.6854 16.2948 18.6574 16.3184L15.8051 18.75C13.9981 17.8723 12.1324 16.0207 11.2547 14.2371L13.6899 11.3414C13.7133 11.3121 13.7356 11.2828 13.7567 11.2512C13.9259 10.9925 14.0286 10.6961 14.0556 10.3882C14.0826 10.0803 14.033 9.77046 13.9113 9.48633V9.47227L11.4305 3.94219C11.2696 3.57102 10.993 3.26182 10.642 3.06076C10.291 2.85969 9.88437 2.77754 9.48282 2.82657C7.8949 3.03552 6.43733 3.81536 5.38235 5.02043C4.32738 6.2255 3.74714 7.77339 3.75001 9.37501C3.75001 18.6797 11.3203 26.25 20.625 26.25C22.2266 26.2529 23.7745 25.6726 24.9796 24.6177C26.1847 23.5627 26.9645 22.1051 27.1734 20.5172C27.2226 20.1158 27.1406 19.7092 26.9397 19.3582C26.7389 19.0072 26.43 18.7306 26.059 18.5695ZM20.625 24.375C16.6481 24.3707 12.8353 22.7889 10.0232 19.9768C7.2111 17.1647 5.62935 13.3519 5.62501 9.37501C5.6206 8.23066 6.03288 7.12383 6.78486 6.26123C7.53683 5.39862 8.57708 4.83923 9.71134 4.68751C9.71088 4.69218 9.71088 4.69689 9.71134 4.70157L12.1723 10.2094L9.75001 13.1086C9.72542 13.1369 9.70309 13.1671 9.68321 13.1988C9.50686 13.4694 9.40341 13.781 9.38288 14.1034C9.36235 14.4257 9.42543 14.7479 9.56603 15.0387C10.6277 17.2102 12.8156 19.3816 15.0106 20.4422C15.3035 20.5815 15.6275 20.6424 15.951 20.619C16.2745 20.5955 16.5864 20.4886 16.8563 20.3086C16.8863 20.2883 16.9153 20.2664 16.943 20.243L19.7918 17.8125L25.2996 20.2793H25.3125C25.1626 21.4152 24.6041 22.4575 23.7413 23.2113C22.8786 23.9652 21.7707 24.3789 20.625 24.375Z" fill="#B5B5B5"/>
</svg>
