<svg width="15" height="16" viewBox="0 0 15 16" fill="none" xmlns="http://www.w3.org/2000/svg">
<path d="M10.625 11.125V12.375C10.625 12.5408 10.6908 12.6997 10.8081 12.8169C10.9253 12.9342 11.0842 13 11.25 13C11.4158 13 11.5747 12.9342 11.6919 12.8169C11.8092 12.6997 11.875 12.5408 11.875 12.375V3H3.125V9.875H1.875V2.375C1.875 2.20924 1.94085 2.05027 2.05806 1.93306C2.17527 1.81585 2.33424 1.75 2.5 1.75H12.5C12.6658 1.75 12.8247 1.81585 12.9419 1.93306C13.0592 2.05027 13.125 2.20924 13.125 2.375V12.375C13.125 12.8723 12.9275 13.3492 12.5758 13.7008C12.2242 14.0525 11.7473 14.25 11.25 14.25H2.5C2.00272 14.25 1.52581 14.0525 1.17417 13.7008C0.822544 13.3492 0.625 12.8723 0.625 12.375V11.125H10.625Z" fill="#C868C4"/>
</svg>
