<svg width="15" height="16" viewBox="0 0 15 16" fill="none" xmlns="http://www.w3.org/2000/svg">
<path d="M8.20313 11.0469C8.20313 11.1859 8.16189 11.3219 8.08463 11.4375C8.00737 11.5531 7.89756 11.6433 7.76908 11.6965C7.6406 11.7497 7.49922 11.7636 7.36283 11.7365C7.22644 11.7094 7.10115 11.6424 7.00282 11.5441C6.90448 11.4457 6.83752 11.3204 6.81039 11.184C6.78326 11.0477 6.79718 10.9063 6.8504 10.7778C6.90362 10.6493 6.99374 10.5395 7.10937 10.4622C7.225 10.385 7.36094 10.3438 7.5 10.3438C7.68648 10.3438 7.86533 10.4178 7.99719 10.5497C8.12905 10.6816 8.20313 10.8604 8.20313 11.0469ZM7.5 4.71875C6.20742 4.71875 5.15625 5.66504 5.15625 6.82812V7.0625C5.15625 7.18682 5.20564 7.30605 5.29355 7.39396C5.38145 7.48186 5.50068 7.53125 5.625 7.53125C5.74932 7.53125 5.86855 7.48186 5.95646 7.39396C6.04437 7.30605 6.09375 7.18682 6.09375 7.0625V6.82812C6.09375 6.18359 6.72481 5.65625 7.5 5.65625C8.2752 5.65625 8.90625 6.18359 8.90625 6.82812C8.90625 7.47266 8.2752 8 7.5 8C7.37568 8 7.25645 8.04939 7.16855 8.13729C7.08064 8.2252 7.03125 8.34443 7.03125 8.46875V8.9375C7.03125 9.06182 7.08064 9.18105 7.16855 9.26896C7.25645 9.35686 7.37568 9.40625 7.5 9.40625C7.62432 9.40625 7.74355 9.35686 7.83146 9.26896C7.91937 9.18105 7.96875 9.06182 7.96875 8.9375V8.89531C9.0375 8.69902 9.84375 7.84648 9.84375 6.82812C9.84375 5.66504 8.79258 4.71875 7.5 4.71875ZM13.5938 8C13.5938 9.20523 13.2364 10.3834 12.5668 11.3855C11.8972 12.3876 10.9455 13.1687 9.83198 13.6299C8.71849 14.0911 7.49324 14.2118 6.31117 13.9767C5.1291 13.7415 4.0433 13.1612 3.19107 12.3089C2.33884 11.4567 1.75847 10.3709 1.52334 9.18883C1.28821 8.00676 1.40889 6.78151 1.87011 5.66802C2.33133 4.55454 3.11238 3.60282 4.1145 2.93323C5.11661 2.26364 6.29477 1.90625 7.5 1.90625C9.11564 1.90796 10.6646 2.55052 11.807 3.69295C12.9495 4.83538 13.592 6.38436 13.5938 8ZM12.6563 8C12.6563 6.98019 12.3538 5.98328 11.7873 5.13534C11.2207 4.2874 10.4154 3.62651 9.47321 3.23625C8.53103 2.84598 7.49428 2.74387 6.49407 2.94283C5.49385 3.14178 4.5751 3.63287 3.85398 4.35398C3.13287 5.0751 2.64178 5.99385 2.44283 6.99407C2.24387 7.99428 2.34598 9.03103 2.73625 9.97321C3.12651 10.9154 3.7874 11.7207 4.63534 12.2873C5.48328 12.8538 6.48019 13.1562 7.5 13.1562C8.86705 13.1547 10.1777 12.611 11.1443 11.6443C12.111 10.6777 12.6547 9.36705 12.6563 8Z" fill="#C868C4"/>
</svg>
