<svg width="127" height="126" viewBox="0 0 127 126" fill="none" xmlns="http://www.w3.org/2000/svg">
<g clip-path="url(#clip0_82_959)">
<path d="M63.4014 45.0146C53.377 45.0146 45.3174 53.0729 45.3174 63.0987C45.3174 73.1232 53.377 81.1827 63.4014 81.1827C73.4272 81.1827 81.4855 73.1232 81.4855 63.0987C81.4855 53.0729 73.4272 45.0146 63.4014 45.0146ZM63.4014 77.2516C55.5392 77.2516 49.2485 70.9609 49.2485 63.0987C49.2485 55.2352 55.5392 48.9457 63.4014 48.9457C71.2649 48.9457 77.5544 55.2352 77.5544 63.0987C77.5544 70.9609 71.2649 77.2516 63.4014 77.2516Z" fill="#C868C4"/>
<path d="M125.714 61.7221L119.03 55.0391C118.244 54.2521 117.065 54.2521 116.278 55.0391C115.492 55.8248 115.492 57.0053 116.278 57.791L119.62 61.1325H103.698V57.3975C103.698 56.4144 102.912 55.6287 101.929 55.4326L93.2799 54.2521C92.6903 52.2872 91.9046 50.321 90.7241 48.3561L95.8357 41.4758C96.4253 40.6901 96.4253 39.5096 95.6383 38.92L92.8864 36.1681L104.287 24.767V29.4851C104.287 30.6643 105.074 31.4513 106.254 31.4513C107.433 31.4513 108.219 30.6643 108.219 29.4851V20.0502C108.219 18.871 107.433 18.084 106.254 18.084H96.8188C95.6383 18.084 94.8526 18.871 94.8526 20.0502C94.8526 21.2294 95.6383 22.0151 96.8188 22.0151H101.536L90.3319 33.2201L87.58 30.4682C86.793 29.6812 85.8099 29.6812 85.0242 30.2708L78.3412 35.5785C76.3751 34.5954 74.4089 33.8097 72.444 33.024L71.2648 24.3748C71.0674 23.3917 70.2817 22.6047 69.2986 22.6047H65.3675V6.88036L68.709 10.2218C69.4947 11.0076 70.6752 11.0076 71.4609 10.2218C72.2479 9.43486 72.2479 8.25566 71.4609 7.46996L64.7779 0.78569C63.9909 -1.52737e-05 62.8117 -1.52737e-05 62.026 0.78569L55.343 7.46996C54.556 8.25566 54.556 9.43486 55.343 10.2218C56.1287 11.0076 57.3079 11.0076 58.0949 10.2218L61.4364 6.88036V22.8021H57.7014C56.7183 22.8021 55.9326 23.5878 55.7352 24.5709L54.556 33.2201C52.3937 33.8097 50.4288 34.5954 48.6588 35.7759L41.7797 30.4682C40.9927 29.8786 39.8135 29.8786 39.2239 30.6643L36.472 33.4162L25.267 22.2125H29.9851C31.1643 22.2125 31.9513 21.4255 31.9513 20.2463C31.9513 19.0671 31.1643 18.2814 29.9851 18.2814H20.5502C19.371 18.2814 18.584 19.0671 18.584 20.2463V29.6812C18.584 30.8617 19.371 31.6474 20.5502 31.6474C21.7294 31.6474 22.5151 30.8617 22.5151 29.6812V24.9644L33.9162 36.3655L31.1643 39.1174C30.3786 39.9031 30.3786 40.8862 30.9682 41.6719L36.0785 48.5522C35.0954 50.5184 34.3097 52.4833 33.524 54.4495L24.8748 55.6287C23.8917 55.8248 23.1047 56.6118 23.1047 57.5949V61.1325H7.18298L10.5245 57.791C11.3115 57.0053 11.3115 55.8248 10.5245 55.0391C9.73877 54.2521 8.55957 54.2521 7.77258 55.0391L1.0896 61.7221C0.696106 62.1156 0.5 62.5091 0.5 63.0987C0.5 63.6883 0.696106 64.0805 1.0896 64.474L7.77258 71.157C8.55957 71.944 9.73877 71.944 10.5245 71.157C11.3115 70.3713 11.3115 69.1921 10.5245 68.4051L7.18298 65.0636H23.1047V68.7986C23.1047 69.7817 23.8917 70.5674 24.8748 70.7648L33.524 71.944C34.1136 73.9089 34.8993 75.8751 36.0785 77.8412V78.0373C33.7201 77.0543 31.9513 75.4816 30.9682 73.3193C30.5747 72.5336 29.9851 72.1401 29.1994 72.1401H17.4048C16.6191 72.1401 15.8322 72.5336 15.636 73.3193C12.4907 80.3957 3.64539 78.6269 2.46619 78.8243C1.28571 78.8243 0.5 79.61 0.5 80.7892V94.7461C0.5 107.916 9.14917 120.103 22.7125 125.804C22.9086 126 23.3021 126 23.4982 126C23.6956 126 24.0878 126 24.2852 125.804C37.8473 120.103 46.4965 107.916 46.4965 94.7461V91.9942L48.6588 90.4215C50.6249 91.4046 52.5898 92.1903 54.556 92.976L55.7352 101.625C55.9326 102.608 56.7183 103.395 57.7014 103.395H61.4364V119.317L58.0949 115.976C57.3079 115.189 56.1287 115.189 55.343 115.976C54.556 116.761 54.556 117.94 55.343 118.727L62.026 125.41C62.4195 125.804 63.0091 126 63.4013 126C63.7948 126 64.3844 125.804 64.7779 125.41L71.4609 118.727C72.2479 117.94 72.2479 116.761 71.4609 115.976C70.6752 115.189 69.4947 115.189 68.709 115.976L65.3675 119.317V103.395H69.1025C70.0856 103.395 70.8713 102.608 71.0674 101.625L72.2479 92.976C74.4089 92.3864 76.3751 91.6007 78.1439 90.4215L85.0242 95.7279C85.8099 96.3188 86.9904 96.3188 87.58 95.5318L90.3319 92.7799L101.733 104.181H97.0149C95.8357 104.181 95.0487 104.967 95.0487 106.147C95.0487 107.326 95.8357 108.112 97.0149 108.112H106.45C107.629 108.112 108.416 107.326 108.416 106.147V96.711C108.416 95.5318 107.629 94.7461 106.45 94.7461C105.271 94.7461 104.485 95.5318 104.485 96.711V101.429L93.0838 90.028L95.8357 87.2761C96.6214 86.4904 96.6214 85.5073 96.0318 84.7203L90.9215 78.0373C91.9046 76.0712 92.6903 74.1063 93.476 72.1401L102.125 70.9609C103.108 70.7648 103.895 69.9778 103.895 68.9947V65.0636H119.817L116.476 68.4051C115.689 69.1921 115.689 70.3713 116.476 71.157C117.261 71.944 118.44 71.944 119.227 71.157L125.91 64.474C126.304 64.0805 126.5 63.6883 126.5 63.0987C126.5 62.5091 126.107 62.1156 125.714 61.7221ZM42.5654 94.7461C42.5654 106.147 35.2928 116.565 23.4982 121.872C11.705 116.565 4.43109 106.343 4.43109 94.7461V82.7554C4.82458 82.558 14.0634 83.7385 18.3879 76.0712H27.8228C32.3435 84.1307 41.9758 82.558 42.5654 82.7554V94.7461ZM99.7668 67.2259L91.5111 68.4051C90.7241 68.6025 90.1345 69.1921 89.9384 69.9778C89.3488 72.5336 88.3657 74.892 86.9904 77.2516C86.5969 77.8412 86.5969 78.8243 87.1865 79.4139L92.1007 86.0969L86.3995 91.7968L79.7166 86.6865C79.127 86.293 78.1439 86.0969 77.5543 86.4904C75.1959 87.8657 72.8375 88.8488 70.2817 89.4384C69.4947 89.6345 68.9051 90.2241 68.9051 91.0111L67.7259 99.2668H59.4702L58.291 91.0111C58.0949 90.2241 57.5053 89.6345 56.9144 89.4384C54.3599 88.8488 51.8041 87.6696 49.6418 86.4904C49.0522 86.0969 48.0692 86.0969 47.4796 86.6865L46.6938 87.2761V80.7892C46.6938 79.61 45.9069 78.8243 44.7277 78.8243H40.4031C40.6005 78.2335 40.6005 77.6439 40.207 77.0543C38.8304 74.6959 37.8473 72.1401 37.2577 69.7817C37.0616 68.9947 36.472 68.4051 35.6863 68.209L27.4293 67.0298V58.9702L35.6863 57.791C36.472 57.5949 37.0616 57.0053 37.2577 56.2183C37.8473 53.6625 38.8304 51.3041 40.207 48.9457C40.6005 48.3561 40.6005 47.373 40.0096 46.7834L35.0954 40.1005L40.7966 34.3993L47.4796 39.3135C48.0692 39.707 49.0522 39.9031 49.6418 39.5096C51.8041 38.1343 54.3599 37.1512 56.9144 36.5616C57.7014 36.3655 58.291 35.7759 58.291 34.9889L59.4702 26.7332H67.5298L68.709 34.9889C68.9051 35.7759 69.4947 36.3655 70.0856 36.5616C72.6401 37.1512 75.1959 38.3304 77.3582 39.5096C77.9478 39.9031 78.9308 39.9031 79.5204 39.3135L86.2034 34.3993L91.9046 40.1005L86.9904 46.9795C86.5969 47.5691 86.3995 48.5522 86.793 49.1418C88.1696 51.5002 89.1527 53.8599 89.7423 56.4144C89.9384 57.2014 90.528 57.791 91.3137 57.9871L99.5707 59.1663V67.2259H99.7668Z" fill="#C868C4"/>
<path d="M125.714 61.7221L119.03 55.0391C118.244 54.2521 117.065 54.2521 116.278 55.0391C115.492 55.8248 115.492 57.0053 116.278 57.791L119.62 61.1325H103.698V57.3975C103.698 56.4144 102.912 55.6287 101.929 55.4326L93.2799 54.2521C92.6903 52.2872 91.9046 50.321 90.7241 48.3561L95.8357 41.4758C96.4253 40.6901 96.4253 39.5096 95.6383 38.92L92.8864 36.1681L104.287 24.767V29.4851C104.287 30.6643 105.074 31.4513 106.254 31.4513C107.433 31.4513 108.219 30.6643 108.219 29.4851V20.0502C108.219 18.871 107.433 18.084 106.254 18.084H96.8188C95.6383 18.084 94.8526 18.871 94.8526 20.0502C94.8526 21.2294 95.6383 22.0151 96.8188 22.0151H101.536L90.3319 33.2201L87.58 30.4682C86.793 29.6812 85.8099 29.6812 85.0242 30.2708L78.3412 35.5785C76.3751 34.5954 74.4089 33.8097 72.444 33.024L71.2648 24.3748C71.0674 23.3917 70.2817 22.6047 69.2986 22.6047H65.3675V6.88036L68.709 10.2218C69.4947 11.0076 70.6752 11.0076 71.4609 10.2218C72.2479 9.43486 72.2479 8.25566 71.4609 7.46996L64.7779 0.78569C63.9909 -1.52737e-05 62.8117 -1.52737e-05 62.026 0.78569L55.343 7.46996C54.556 8.25566 54.556 9.43486 55.343 10.2218C56.1287 11.0076 57.3079 11.0076 58.0949 10.2218L61.4364 6.88036V22.8021H57.7014C56.7183 22.8021 55.9326 23.5878 55.7352 24.5709L54.556 33.2201C52.3937 33.8097 50.4288 34.5954 48.6588 35.7759L41.7797 30.4682C40.9927 29.8786 39.8135 29.8786 39.2239 30.6643L36.472 33.4162L25.267 22.2125H29.9851C31.1643 22.2125 31.9513 21.4255 31.9513 20.2463C31.9513 19.0671 31.1643 18.2814 29.9851 18.2814H20.5502C19.371 18.2814 18.584 19.0671 18.584 20.2463V29.6812C18.584 30.8617 19.371 31.6474 20.5502 31.6474C21.7294 31.6474 22.5151 30.8617 22.5151 29.6812V24.9644L33.9162 36.3655L31.1643 39.1174C30.3786 39.9031 30.3786 40.8862 30.9682 41.6719L36.0785 48.5522C35.0954 50.5184 34.3097 52.4833 33.524 54.4495L24.8748 55.6287C23.8917 55.8248 23.1047 56.6118 23.1047 57.5949V61.1325H7.18298L10.5245 57.791C11.3115 57.0053 11.3115 55.8248 10.5245 55.0391C9.73877 54.2521 8.55957 54.2521 7.77258 55.0391L1.0896 61.7221C0.696106 62.1156 0.5 62.5091 0.5 63.0987C0.5 63.6883 0.696106 64.0805 1.0896 64.474L7.77258 71.157C8.55957 71.944 9.73877 71.944 10.5245 71.157C11.3115 70.3713 11.3115 69.1921 10.5245 68.4051L7.18298 65.0636H23.1047V68.7986C23.1047 69.7817 23.8917 70.5674 24.8748 70.7648L33.524 71.944C34.1136 73.9089 34.8993 75.8751 36.0785 77.8412V78.0373C33.7201 77.0543 31.9513 75.4816 30.9682 73.3193C30.5747 72.5336 29.9851 72.1401 29.1994 72.1401H17.4048C16.6191 72.1401 15.8322 72.5336 15.636 73.3193C12.4907 80.3957 3.64539 78.6269 2.46619 78.8243C1.28571 78.8243 0.5 79.61 0.5 80.7892V94.7461C0.5 107.916 9.14917 120.103 22.7125 125.804C22.9086 126 23.3021 126 23.4982 126C23.6956 126 24.0878 126 24.2852 125.804C37.8473 120.103 46.4965 107.916 46.4965 94.7461V91.9942L48.6588 90.4215C50.6249 91.4046 52.5898 92.1903 54.556 92.976L55.7352 101.625C55.9326 102.608 56.7183 103.395 57.7014 103.395H61.4364V119.317L58.0949 115.976C57.3079 115.189 56.1287 115.189 55.343 115.976C54.556 116.761 54.556 117.94 55.343 118.727L62.026 125.41C62.4195 125.804 63.0091 126 63.4013 126C63.7948 126 64.3844 125.804 64.7779 125.41L71.4609 118.727C72.2479 117.94 72.2479 116.761 71.4609 115.976C70.6752 115.189 69.4947 115.189 68.709 115.976L65.3675 119.317V103.395H69.1025C70.0856 103.395 70.8713 102.608 71.0674 101.625L72.2479 92.976C74.4089 92.3864 76.3751 91.6007 78.1439 90.4215L85.0242 95.7279C85.8099 96.3188 86.9904 96.3188 87.58 95.5318L90.3319 92.7799L101.733 104.181H97.0149C95.8357 104.181 95.0487 104.967 95.0487 106.147C95.0487 107.326 95.8357 108.112 97.0149 108.112H106.45C107.629 108.112 108.416 107.326 108.416 106.147V96.711C108.416 95.5318 107.629 94.7461 106.45 94.7461C105.271 94.7461 104.485 95.5318 104.485 96.711V101.429L93.0838 90.028L95.8357 87.2761C96.6214 86.4904 96.6214 85.5073 96.0318 84.7203L90.9215 78.0373C91.9046 76.0712 92.6903 74.1063 93.476 72.1401L102.125 70.9609C103.108 70.7648 103.895 69.9778 103.895 68.9947V65.0636H119.817L116.476 68.4051C115.689 69.1921 115.689 70.3713 116.476 71.157C117.261 71.944 118.44 71.944 119.227 71.157L125.91 64.474C126.304 64.0805 126.5 63.6883 126.5 63.0987C126.5 62.5091 126.107 62.1156 125.714 61.7221ZM42.5654 94.7461C42.5654 106.147 35.2928 116.565 23.4982 121.872C11.705 116.565 4.43109 106.343 4.43109 94.7461V82.7554C4.82458 82.558 14.0634 83.7385 18.3879 76.0712H27.8228C32.3435 84.1307 41.9758 82.558 42.5654 82.7554V94.7461ZM99.7668 67.2259L91.5111 68.4051C90.7241 68.6025 90.1345 69.1921 89.9384 69.9778C89.3488 72.5336 88.3657 74.892 86.9904 77.2516C86.5969 77.8412 86.5969 78.8243 87.1865 79.4139L92.1007 86.0969L86.3995 91.7968L79.7166 86.6865C79.127 86.293 78.1439 86.0969 77.5543 86.4904C75.1959 87.8657 72.8375 88.8488 70.2817 89.4384C69.4947 89.6345 68.9051 90.2241 68.9051 91.0111L67.7259 99.2668H59.4702L58.291 91.0111C58.0949 90.2241 57.5053 89.6345 56.9144 89.4384C54.3599 88.8488 51.8041 87.6696 49.6418 86.4904C49.0522 86.0969 48.0692 86.0969 47.4796 86.6865L46.6938 87.2761V80.7892C46.6938 79.61 45.9069 78.8243 44.7277 78.8243H40.4031C40.6005 78.2335 40.6005 77.6439 40.207 77.0543C38.8304 74.6959 37.8473 72.1401 37.2577 69.7817C37.0616 68.9947 36.472 68.4051 35.6863 68.209L27.4293 67.0298V58.9702L35.6863 57.791C36.472 57.5949 37.0616 57.0053 37.2577 56.2183C37.8473 53.6625 38.8304 51.3041 40.207 48.9457C40.6005 48.3561 40.6005 47.373 40.0096 46.7834L35.0954 40.1005L40.7966 34.3993L47.4796 39.3135C48.0692 39.707 49.0522 39.9031 49.6418 39.5096C51.8041 38.1343 54.3599 37.1512 56.9144 36.5616C57.7014 36.3655 58.291 35.7759 58.291 34.9889L59.4702 26.7332H67.5298L68.709 34.9889C68.9051 35.7759 69.4947 36.3655 70.0856 36.5616C72.6401 37.1512 75.1959 38.3304 77.3582 39.5096C77.9478 39.9031 78.9308 39.9031 79.5204 39.3135L86.2034 34.3993L91.9046 40.1005L86.9904 46.9795C86.5969 47.5691 86.3995 48.5522 86.793 49.1418C88.1696 51.5002 89.1527 53.8599 89.7423 56.4144C89.9384 57.2014 90.528 57.791 91.3137 57.9871L99.5707 59.1663V67.2259H99.7668Z" fill="url(#paint0_radial_82_959)"/>
<path d="M31.7539 91.0111L19.9606 102.804L15.2425 98.0876C14.4568 97.3006 13.2764 97.3006 12.4906 98.0876C11.7049 98.8733 11.7049 100.053 12.4906 100.84L18.584 106.933C18.9775 107.326 19.5671 107.522 19.9606 107.522C20.3528 107.522 20.9424 107.326 21.3359 106.933L34.5058 93.763C35.2928 92.976 35.2928 91.7968 34.5058 91.0111C33.7201 90.2242 32.5409 90.2242 31.7539 91.0111Z" fill="#C868C4"/>
<path d="M64.9736 61.3286V56.8079C66.1528 57.0053 67.3333 57.3975 68.3151 58.1845L69.8878 56.0222C68.3151 55.0391 66.7424 54.4495 64.9736 54.2521V53.0729H63.4009V54.2521C61.8282 54.2521 60.649 54.843 59.6659 55.6287C58.6841 56.4144 58.2906 57.5949 58.2906 58.9702C58.2906 60.3468 58.6841 61.3286 59.4698 62.1156C60.2568 62.9013 61.6321 63.2948 63.4009 63.8844V68.4051C62.0256 68.209 60.649 67.4233 59.2737 66.4402L57.5049 68.4051C59.2737 69.9778 61.2386 70.7648 63.4009 70.9609V72.7297H64.9736V70.9609C66.5463 70.9609 67.9229 70.3713 68.9047 69.5856C69.8878 68.7986 70.2812 67.6194 70.2812 66.2428C70.2812 64.8675 69.8878 63.8844 69.1021 63.0987C68.119 62.3117 66.7424 61.7221 64.9736 61.3286ZM63.4009 60.9364C62.6152 60.739 61.8282 60.3468 61.6321 59.9533C61.436 59.5598 61.2386 59.1663 61.2386 58.7741C61.2386 58.1845 61.436 57.791 61.8282 57.3975C62.2217 57.0053 62.8113 56.8079 63.4009 56.8079V60.9364ZM66.7424 67.8155C66.3502 68.209 65.7606 68.4051 64.9736 68.4051V64.0805C65.9567 64.2779 66.5463 64.6714 66.9398 65.0636C67.3333 65.4571 67.5294 65.8506 67.5294 66.4402C67.3333 67.0298 67.1359 67.4233 66.7424 67.8155Z" fill="#C868C4"/>
</g>
<defs>
<radialGradient id="paint0_radial_82_959" cx="0" cy="0" r="1" gradientUnits="userSpaceOnUse" gradientTransform="translate(89.1667 55.2222) rotate(155.505) scale(72.2224 72.3352)">
<stop stop-color="#FCA6F9"/>
<stop offset="1" stop-color="white" stop-opacity="0.08"/>
</radialGradient>
<clipPath id="clip0_82_959">
<rect width="126" height="126" fill="white" transform="translate(0.5)"/>
</clipPath>
</defs>
</svg>
