<svg width="22" height="22" viewBox="0 0 22 22" fill="none" xmlns="http://www.w3.org/2000/svg">
<path d="M10.3125 2.75C11.1361 2.75 11.9274 2.85384 12.6865 3.06152C13.4456 3.26921 14.1582 3.56999 14.8242 3.96387C15.4902 4.35775 16.0918 4.82324 16.6289 5.36035C17.166 5.89746 17.6315 6.49902 18.0254 7.16504C18.4193 7.83105 18.7201 8.54362 18.9277 9.30273C19.1354 10.0618 19.2428 10.8568 19.25 11.6875C19.25 12.5111 19.1462 13.3024 18.9385 14.0615C18.7308 14.8206 18.43 15.5332 18.0361 16.1992C17.6423 16.8652 17.1768 17.4668 16.6396 18.0039C16.1025 18.541 15.501 19.0065 14.835 19.4004C14.1689 19.7943 13.4564 20.0951 12.6973 20.3027C11.9382 20.5104 11.1432 20.6178 10.3125 20.625C9.48893 20.625 8.69759 20.5212 7.93848 20.3135C7.17936 20.1058 6.4668 19.805 5.80078 19.4111C5.13477 19.0173 4.5332 18.5518 3.99609 18.0146C3.45898 17.4775 2.99349 16.876 2.59961 16.21C2.20573 15.5439 1.90495 14.8314 1.69727 14.0723C1.48958 13.3132 1.38216 12.5182 1.375 11.6875C1.375 10.8639 1.47884 10.0726 1.68652 9.31348C1.89421 8.55436 2.19499 7.8418 2.58887 7.17578C2.98275 6.50977 3.44824 5.9082 3.98535 5.37109C4.52246 4.83398 5.12402 4.36849 5.79004 3.97461C6.45605 3.58073 7.16862 3.27995 7.92773 3.07227C8.68685 2.86458 9.48177 2.75716 10.3125 2.75ZM10.3125 19.25C11.2005 19.25 12.0563 19.1032 12.8799 18.8096C13.7035 18.516 14.459 18.0791 15.1465 17.499L4.50098 6.85352C3.92806 7.53385 3.49479 8.28581 3.20117 9.10938C2.90755 9.93294 2.75716 10.7923 2.75 11.6875C2.75 12.3822 2.83952 13.0518 3.01855 13.6963C3.19759 14.3408 3.45182 14.9424 3.78125 15.501C4.11068 16.0596 4.50456 16.568 4.96289 17.0264C5.42122 17.4847 5.93327 17.8822 6.49902 18.2188C7.06478 18.5553 7.66634 18.8096 8.30371 18.9814C8.94108 19.1533 9.61068 19.2428 10.3125 19.25ZM16.124 16.5215C16.6969 15.8411 17.1302 15.0892 17.4238 14.2656C17.7174 13.4421 17.8678 12.5827 17.875 11.6875C17.875 10.9928 17.7855 10.3232 17.6064 9.67871C17.4274 9.03418 17.1732 8.43262 16.8438 7.87402C16.5143 7.31543 16.1204 6.80697 15.6621 6.34863C15.2038 5.8903 14.6917 5.49284 14.126 5.15625C13.5602 4.81966 12.9587 4.56543 12.3213 4.39355C11.6839 4.22168 11.0143 4.13216 10.3125 4.125C9.42448 4.125 8.56869 4.27181 7.74512 4.56543C6.92155 4.85905 6.16602 5.2959 5.47852 5.87598L16.124 16.5215Z" fill="black"/>
</svg>
