<svg width="22" height="22" viewBox="0 0 22 22" fill="none" xmlns="http://www.w3.org/2000/svg">
<g clip-path="url(#clip0_162_3347)">
<path d="M11 1.22266C9.06609 1.22266 7.17566 1.79611 5.56771 2.87051C3.95976 3.94491 2.70652 5.47199 1.96646 7.25864C1.2264 9.0453 1.03277 11.0113 1.41005 12.908C1.78733 14.8047 2.71857 16.5469 4.08602 17.9144C5.45346 19.2818 7.1957 20.2131 9.0924 20.5903C10.9891 20.9676 12.9551 20.774 14.7417 20.0339C16.5284 19.2939 18.0555 18.0406 19.1299 16.4327C20.2043 14.8247 20.7777 12.9343 20.7777 11.0004C20.7777 8.40721 19.7476 5.92019 17.9139 4.0865C16.0802 2.25281 13.5932 1.22266 11 1.22266ZM11 19.556C9.30782 19.556 7.65369 19.0542 6.24674 18.1141C4.83978 17.174 3.7432 15.8378 3.09565 14.2745C2.4481 12.7112 2.27867 10.9909 2.60879 9.33133C2.93891 7.67171 3.75374 6.14726 4.95026 4.95074C6.14677 3.75423 7.67123 2.93939 9.33084 2.60927C10.9905 2.27915 12.7107 2.44858 14.274 3.09613C15.8373 3.74368 17.1735 4.84027 18.1136 6.24722C19.0537 7.65418 19.5555 9.30831 19.5555 11.0004C19.5555 13.2695 18.6541 15.4456 17.0496 17.0501C15.4452 18.6546 13.269 19.556 11 19.556Z" fill="black"/>
<path d="M11.5621 11.2441V6.56912C11.5621 6.40704 11.4977 6.2516 11.3831 6.137C11.2685 6.02239 11.113 5.95801 10.951 5.95801C10.7889 5.95801 10.6334 6.02239 10.5188 6.137C10.4042 6.2516 10.3398 6.40704 10.3398 6.56912V11.898L13.9454 14.3425C14.0118 14.3924 14.0877 14.4283 14.1685 14.4479C14.2492 14.4675 14.3331 14.4705 14.4151 14.4565C14.497 14.4426 14.5752 14.4121 14.645 14.367C14.7147 14.3218 14.7745 14.2628 14.8207 14.1938C14.8669 14.1247 14.8986 14.0469 14.9137 13.9652C14.9288 13.8834 14.9271 13.7995 14.9086 13.7185C14.8902 13.6374 14.8554 13.561 14.8064 13.4939C14.7574 13.4267 14.6953 13.3703 14.6237 13.328L11.5621 11.2441Z" fill="black"/>
<path d="M4.88871 10.9629C4.88313 9.8635 5.176 8.78322 5.7361 7.83722C6.29621 6.89122 7.10254 6.11496 8.06914 5.5912C9.03574 5.06744 10.1264 4.81583 11.2247 4.86318C12.3231 4.91053 13.388 5.25508 14.3059 5.86008L14.8254 5.02897C13.9535 4.45783 12.9659 4.08688 11.9336 3.94278C10.9013 3.79868 9.84984 3.885 8.85485 4.19554C7.85986 4.50608 6.946 5.03313 6.17891 5.73884C5.41183 6.44454 4.81056 7.31138 4.4183 8.27707C4.02605 9.24277 3.85254 10.2834 3.91024 11.3241C3.96794 12.3648 4.25542 13.3798 4.75204 14.2963C5.24865 15.2127 5.94206 16.0077 6.78246 16.6243C7.62286 17.2409 8.58938 17.6637 9.6126 17.8623L9.7776 16.9273C8.40137 16.6464 7.16392 15.9 6.2735 14.8137C5.38308 13.7273 4.89405 12.3675 4.88871 10.9629Z" fill="black"/>
</g>
<defs>
<clipPath id="clip0_162_3347">
<rect width="22" height="22" fill="white"/>
</clipPath>
</defs>
</svg>
