<svg width="25" height="25" viewBox="0 0 25 25" fill="none" xmlns="http://www.w3.org/2000/svg">
<mask id="mask0_162_3808" style="mask-type:luminance" maskUnits="userSpaceOnUse" x="1" y="5" width="23" height="15">
<path d="M12.6865 18.5C18.2095 18.5 22.6865 12.5 22.6865 12.5C22.6865 12.5 18.2095 6.5 12.6865 6.5C7.16352 6.5 2.68652 12.5 2.68652 12.5C2.68652 12.5 7.16352 18.5 12.6865 18.5Z" fill="#555555" stroke="white" stroke-width="2" stroke-linejoin="round"/>
<path d="M12.6865 15C13.3496 15 13.9854 14.7366 14.4543 14.2678C14.9231 13.7989 15.1865 13.163 15.1865 12.5C15.1865 11.837 14.9231 11.2011 14.4543 10.7322C13.9854 10.2634 13.3496 10 12.6865 10C12.0235 10 11.3876 10.2634 10.9188 10.7322C10.4499 11.2011 10.1865 11.837 10.1865 12.5C10.1865 13.163 10.4499 13.7989 10.9188 14.2678C11.3876 14.7366 12.0235 15 12.6865 15Z" fill="#555555" stroke="white" stroke-width="2" stroke-linejoin="round"/>
</mask>
<g mask="url(#mask0_162_3808)">
<path d="M0.686523 0.5H24.6865V24.5H0.686523V0.5Z" fill="#F9B34E"/>
</g>
</svg>
