<svg width="24" height="24" viewBox="0 0 24 24" fill="none" xmlns="http://www.w3.org/2000/svg">
<g clip-path="url(#clip0_162_3675)">
<path d="M11.9277 1.97611C11.8952 1.98198 11.863 1.98995 11.8315 1.99995C11.6579 2.03888 11.5031 2.13682 11.3935 2.27708C11.284 2.41735 11.2265 2.59126 11.2308 2.76919V3.53842H4.30769C3.69565 3.53842 3.10868 3.78155 2.67591 4.21432C2.24313 4.6471 2 5.23407 2 5.84611L2 15.8461C2 17.12 3.03385 18.1538 4.30769 18.1538H11.2308V18.4423L7.04769 20.5338C6.86286 20.6231 6.72105 20.7821 6.65346 20.9759C6.58588 21.1697 6.59805 21.3824 6.68731 21.5673C6.77656 21.7521 6.93559 21.8939 7.1294 21.9615C7.32321 22.0291 7.53593 22.0169 7.72077 21.9276L11.2308 20.173V20.4615C11.2308 20.6655 11.3118 20.8612 11.4561 21.0054C11.6003 21.1497 11.796 21.2307 12 21.2307C12.204 21.2307 12.3997 21.1497 12.5439 21.0054C12.6882 20.8612 12.7692 20.6655 12.7692 20.4615V20.173L16.2792 21.9276C16.4641 22.0169 16.6768 22.0291 16.8706 21.9615C17.0644 21.8939 17.2234 21.7521 17.3127 21.5673C17.4019 21.3824 17.4141 21.1697 17.3465 20.9759C17.279 20.7821 17.1371 20.6231 16.9523 20.5338L12.7692 18.4423V18.1538H19.6923C20.9662 18.1538 22 17.12 22 15.8461V5.84611C22 5.23407 21.7569 4.6471 21.3241 4.21432C20.8913 3.78155 20.3043 3.53842 19.6923 3.53842H12.7692V2.76919C12.7731 2.6598 12.7536 2.55084 12.712 2.4496C12.6704 2.34835 12.6077 2.25715 12.5281 2.18208C12.4484 2.10701 12.3536 2.0498 12.2501 2.01429C12.1466 1.97877 12.0367 1.96575 11.9277 1.97611ZM3.53846 5.84611H20.4615V15.8461H3.53846V5.84611ZM18.0577 6.61534C17.8854 6.63386 17.7244 6.71003 17.6008 6.83149L15.0769 9.35611L13.3223 7.59995C13.2383 7.51373 13.1352 7.44844 13.0213 7.40933C12.9075 7.37021 12.786 7.35837 12.6667 7.37476C12.5474 7.39115 12.4337 7.4353 12.3346 7.50368C12.2355 7.57205 12.1538 7.66273 12.0962 7.76842L9.81231 11.7592L8.87462 9.40303C8.82908 9.28138 8.75348 9.17323 8.65486 9.08869C8.55625 9.00414 8.43783 8.94594 8.31065 8.91953C8.18346 8.89311 8.05166 8.89932 7.92753 8.9376C7.8034 8.97587 7.69099 9.04496 7.60077 9.13841L5.29308 11.4461C5.22035 11.5188 5.16264 11.6051 5.12326 11.7001C5.08388 11.795 5.06359 11.8969 5.06355 11.9997C5.06352 12.1025 5.08374 12.2043 5.12305 12.2993C5.16237 12.3943 5.22001 12.4807 5.29269 12.5534C5.36537 12.6261 5.45167 12.6839 5.54665 12.7232C5.64163 12.7626 5.74344 12.7829 5.84627 12.7829C5.94909 12.783 6.05091 12.7628 6.14592 12.7234C6.24093 12.6841 6.32727 12.6265 6.4 12.5538L7.86615 11.0876L8.97231 13.8276C9.02451 13.9651 9.115 14.0846 9.23306 14.1722C9.35112 14.2598 9.4918 14.3117 9.63845 14.3219C9.78511 14.332 9.93159 14.2999 10.0606 14.2293C10.1895 14.1588 10.2956 14.0527 10.3662 13.9238L12.9385 9.42841L14.5246 11.0153C14.5963 11.0895 14.6823 11.1486 14.7773 11.1889C14.8723 11.2292 14.9745 11.2499 15.0777 11.2499C15.1809 11.2499 15.2831 11.2292 15.3781 11.1889C15.4731 11.1486 15.559 11.0895 15.6308 11.0153L18.7077 7.93842C18.8292 7.82592 18.9112 7.67722 18.9414 7.51441C18.9717 7.3516 18.9485 7.18338 18.8755 7.03476C18.8025 6.88613 18.6835 6.76504 18.5361 6.68947C18.3888 6.61391 18.221 6.58791 18.0577 6.61534Z" fill="#1E252B"/>
</g>
<defs>
<clipPath id="clip0_162_3675">
<rect width="20" height="20" fill="white" transform="translate(2 2)"/>
</clipPath>
</defs>
</svg>
