<svg width="144" height="144" viewBox="0 0 144 144" fill="none" xmlns="http://www.w3.org/2000/svg">
<g clip-path="url(#clip0_122_2097)">
<path d="M144 72.0151C144 68.2212 142.595 64.3965 139.758 61.4697C137.01 58.6016 135.516 54.8076 135.516 50.9229C135.516 49.6982 135.665 48.5029 135.933 47.2783C136.232 46.0537 136.381 44.8291 136.381 43.6338C136.381 37.001 132.021 30.9365 125.388 28.9941C122.878 28.2778 120.637 26.9331 118.844 25.1401C117.053 23.3486 115.708 21.1367 114.99 18.6274C113.049 11.9961 106.985 7.63379 100.352 7.63379C99.1567 7.63379 97.9321 7.7832 96.7075 8.08203C91.6289 9.33594 86.2808 7.90185 82.5161 4.28809C79.6187 1.41992 75.8247 0.0151367 72 0.0151367C68.2061 0.0151367 64.3813 1.41992 61.4546 4.25732C58.5864 7.00684 54.791 8.49951 50.9077 8.49951C49.7124 8.49951 48.4878 8.3501 47.2925 8.08203C46.0679 7.7832 44.8433 7.63379 43.6479 7.63379C37.0151 7.63379 30.9507 11.9961 29.0098 18.6274C28.292 21.1367 26.9473 23.3779 25.1558 25.1401C23.3628 26.9331 21.1523 28.2778 18.6123 28.9941C11.9795 30.9365 7.61865 37.001 7.61865 43.6338C7.61865 44.8291 7.76807 46.0537 8.06689 47.2783C8.36572 48.4736 8.48438 49.6982 8.48438 50.9229C8.48438 54.8076 7.021 58.6016 4.24219 61.4697C1.40479 64.3965 0 68.2212 0 72.0151C0 75.8091 1.40479 79.6338 4.24219 82.562C7.85742 86.3252 9.2915 91.6733 8.03613 96.752C7.7373 97.9766 7.58789 99.2026 7.58789 100.396C7.58789 107.029 11.9502 113.094 18.583 115.007C21.0923 115.723 23.3335 117.068 25.125 118.861C26.918 120.652 28.2627 122.894 28.979 125.403C30.9214 132.036 36.9858 136.396 43.6187 136.396C44.814 136.396 46.0386 136.247 47.2632 135.95C48.4585 135.651 49.6831 135.501 50.9077 135.501C54.791 135.501 58.5864 136.994 61.4546 139.744C64.4121 142.581 68.2061 143.986 72 143.986C75.7939 143.986 79.6187 142.581 82.5454 139.744C85.4136 136.994 89.209 135.501 93.0923 135.501C94.2876 135.501 95.5122 135.651 96.7368 135.95C97.9614 136.247 99.1567 136.396 100.381 136.396C107.014 136.396 113.079 132.036 115.021 125.403C115.737 122.894 117.082 120.652 118.875 118.861C120.667 117.068 122.878 115.723 125.417 115.007C133.245 112.736 137.905 104.669 135.964 96.752C135.665 95.5566 135.545 94.332 135.545 93.1367C135.545 89.2534 137.01 85.4595 139.787 82.5913C142.595 79.6045 144 75.8091 144 72.0151Z" fill="#6ECE7B"/>
<path d="M54.1641 95.228C53.6265 95.228 53.1182 95.168 52.6113 94.9893C51.0278 94.5117 49.7124 93.3765 49.0562 91.8516L38.7188 67.9512C37.4941 65.1431 38.8081 61.8574 41.6162 60.6328C44.4243 59.4082 47.7114 60.7222 48.936 63.5303L56.6147 81.3062L99.9331 52.1177C102.473 50.4155 105.939 51.0718 107.672 53.6118C109.374 56.1504 108.716 59.6162 106.178 61.3491L57.271 94.2715C56.3452 94.8999 55.27 95.228 54.1641 95.228ZM81.5903 130.72C84.6079 127.852 88.8193 126.627 93.0615 127.644C94.1675 127.912 95.2734 128.032 96.3486 128.032C102.473 128.032 107.94 123.939 109.644 118.053C110.21 116.051 111.286 114.229 112.78 112.765C114.245 111.302 116.067 110.225 118.068 109.629C125.178 107.566 129.391 100.337 127.658 93.1362L127.629 93.0469C127.389 92.0918 127.27 91.106 127.27 90.1201C127.27 86.9224 128.495 83.8755 130.705 81.5757C133.185 78.9756 134.559 75.5698 134.559 71.9854C134.559 68.3994 133.185 64.9937 130.705 62.4243C128.495 60.1245 127.27 57.0776 127.27 53.8799C127.27 52.894 127.389 51.8789 127.629 50.9224C127.897 49.8472 128.046 48.7412 128.046 47.606C128.046 41.5122 123.954 36.0454 118.068 34.3418C116.096 33.7749 114.245 32.6982 112.78 31.2056C111.316 29.7407 110.241 27.9185 109.644 25.9175C107.94 20.0317 102.473 15.939 96.3779 15.939C95.2427 15.939 94.1382 16.0884 93.0615 16.3271C92.1065 16.5659 91.1206 16.686 90.1348 16.686C86.9385 16.686 83.8901 15.46 81.5903 13.2495C79.021 10.7695 75.6152 9.39551 72 9.39551C68.4155 9.39551 65.0098 10.7695 62.4097 13.2495C60.1099 15.46 57.0615 16.686 53.8652 16.686C52.8794 16.686 51.8936 16.5659 50.9385 16.3271C49.8618 16.0576 48.7573 15.9082 47.6221 15.9082C41.5269 15.9082 36.0601 20.001 34.3564 25.8867C33.7896 27.8892 32.7144 29.7114 31.2202 31.1748C29.7554 32.6397 27.9331 33.7148 25.9321 34.3125C20.0464 36.0146 15.9536 41.4814 15.9536 47.5767C15.9536 48.7119 16.103 49.8179 16.3418 50.8931C16.5806 51.8496 16.7007 52.8355 16.7007 53.8506C16.7007 57.0469 15.4761 60.0952 13.2642 62.395C10.7856 64.9644 9.41016 68.3701 9.41016 71.9546C9.41016 75.5405 10.7856 78.9463 13.2642 81.5449C16.1924 84.5933 17.3584 88.894 16.3418 93.0176L16.3125 93.1069C16.043 94.1528 15.9243 95.228 15.9243 96.334C15.9243 102.459 20.0171 107.896 25.9014 109.598C27.8745 110.167 29.7261 111.242 31.1895 112.736C32.6543 114.199 33.7295 116.021 34.3271 118.024C36.0293 123.908 41.4976 128.001 47.6221 128.001C48.6973 128.001 49.8018 127.852 50.9077 127.613C55.1499 126.598 59.3921 127.793 62.3804 130.69C64.979 133.17 68.3848 134.544 71.9707 134.544C75.5845 134.574 78.9902 133.2 81.5903 130.72ZM50.6089 126.209C49.6231 126.448 48.6079 126.568 47.6514 126.568C42.1846 126.568 37.314 122.893 35.7905 117.665C35.1343 115.424 33.939 113.392 32.2954 111.75C30.6519 110.106 28.5908 108.882 26.3804 108.253C21.1523 106.73 17.4771 101.861 17.4771 96.4233C17.4771 95.4082 17.5972 94.4209 17.8359 93.4658L17.8652 93.3765C18.9712 88.7754 17.6558 83.9956 14.3994 80.5898C12.189 78.2886 10.9644 75.2417 10.9644 72.0454C10.9644 68.8477 12.189 65.8008 14.3994 63.501C16.8794 60.9316 18.2534 57.5259 18.2534 53.9106C18.2534 52.8047 18.1348 51.6694 17.8652 50.5942C17.6265 49.6377 17.5063 48.6519 17.5063 47.6367C17.5063 42.1992 21.1523 37.3301 26.4097 35.8052C28.6509 35.1782 30.6826 33.9536 32.3247 32.3101C33.9683 30.6665 35.1929 28.6362 35.8213 26.395C37.3447 21.167 42.2139 17.4917 47.6514 17.4917C48.6665 17.4917 49.6538 17.6118 50.6089 17.8506C51.6841 18.1201 52.79 18.2388 53.896 18.2388C57.4805 18.2388 60.8862 16.8647 63.4849 14.3848C65.7861 12.1743 68.833 10.9497 72.0293 10.9497C75.2271 10.9497 78.2739 12.1743 80.5737 14.3848C83.1431 16.8647 86.5488 18.2388 90.1348 18.2388C91.2393 18.2388 92.3452 18.1201 93.4512 17.8506C94.4063 17.6118 95.3921 17.4917 96.4087 17.4917C101.846 17.4917 106.715 21.167 108.239 26.395C108.896 28.6362 110.092 30.6665 111.734 32.3101C113.377 33.9536 115.438 35.1782 117.65 35.8052C122.878 37.3301 126.552 42.1992 126.552 47.6367C126.552 48.6519 126.434 49.6377 126.195 50.5942C125.925 51.6694 125.805 52.7754 125.805 53.8799C125.805 57.4658 127.181 60.8716 129.659 63.4702C131.871 65.7715 133.096 68.7891 133.096 72.0147C133.096 75.2109 131.871 78.2593 129.659 80.5591C127.181 83.1284 125.805 86.5342 125.805 90.1494C125.805 91.2246 125.925 92.2998 126.164 93.3457L126.195 93.4351C127.778 99.8892 124.043 106.371 117.65 108.224C115.409 108.851 113.377 110.076 111.734 111.719C110.092 113.363 108.866 115.424 108.239 117.634C106.715 122.864 101.846 126.538 96.3779 126.538C95.4229 126.538 94.437 126.419 93.4204 126.179C92.3159 125.911 91.21 125.791 90.1348 125.791C86.5488 125.791 83.1431 127.165 80.5737 129.645C78.2739 131.855 75.2271 133.081 72.0293 133.081C68.833 133.081 65.7861 131.855 63.4849 129.645C60.8862 127.165 57.5098 125.791 53.9253 125.791C52.8193 125.791 51.6841 125.94 50.6089 126.209Z" fill="white"/>
</g>
<defs>
<clipPath id="clip0_122_2097">
<rect width="144" height="144" fill="white"/>
</clipPath>
</defs>
</svg>
