<svg width="24" height="24" viewBox="0 0 24 24" fill="none" xmlns="http://www.w3.org/2000/svg">
<path d="M21 7H18.603C17.7991 7.00006 17.007 7.19397 16.294 7.56528C15.581 7.93659 14.968 8.47437 14.507 9.133L14.33 9.386M10.67 14.613L10.493 14.867C10.032 15.5256 9.41904 16.0634 8.70601 16.4347C7.99298 16.806 7.20092 16.9999 6.397 17H3" stroke="#B5B5B5" stroke-width="2" stroke-linecap="round" stroke-linejoin="round"/>
<path d="M6 20L3 17L6 14M21 17H18.603C17.7991 16.9999 17.007 16.806 16.294 16.4347C15.581 16.0634 14.968 15.5256 14.507 14.867L10.493 9.133C10.032 8.47437 9.41904 7.93659 8.70601 7.56528C7.99298 7.19397 7.20092 7.00006 6.397 7L3 7" stroke="#B5B5B5" stroke-width="2" stroke-linecap="round" stroke-linejoin="round"/>
<path d="M6 4L3 7L6 10" stroke="#B5B5B5" stroke-width="2" stroke-linecap="round" stroke-linejoin="round"/>
</svg>
