<svg width="20" height="20" viewBox="0 0 20 20" fill="none" xmlns="http://www.w3.org/2000/svg">
<path d="M8.12487 10.9373C8.12487 11.1227 8.06989 11.304 7.96688 11.4581C7.86386 11.6123 7.71744 11.7325 7.54614 11.8034C7.37483 11.8744 7.18633 11.8929 7.00448 11.8568C6.82262 11.8206 6.65557 11.7313 6.52446 11.6002C6.39335 11.4691 6.30406 11.302 6.26789 11.1202C6.23171 10.9383 6.25028 10.7498 6.32124 10.5785C6.39219 10.4072 6.51235 10.2608 6.66653 10.1578C6.8207 10.0548 7.00195 9.99978 7.18737 9.99978C7.43601 9.99978 7.67447 10.0986 7.85029 10.2744C8.0261 10.4502 8.12487 10.6886 8.12487 10.9373ZM12.8124 9.99978C12.627 9.99978 12.4457 10.0548 12.2915 10.1578C12.1374 10.2608 12.0172 10.4072 11.9462 10.5785C11.8753 10.7498 11.8567 10.9383 11.8929 11.1202C11.9291 11.302 12.0183 11.4691 12.1495 11.6002C12.2806 11.7313 12.4476 11.8206 12.6295 11.8568C12.8113 11.8929 12.9998 11.8744 13.1711 11.8034C13.3424 11.7325 13.4889 11.6123 13.5919 11.4581C13.6949 11.304 13.7499 11.1227 13.7499 10.9373C13.7499 10.6886 13.6511 10.4502 13.4753 10.2744C13.2995 10.0986 13.061 9.99978 12.8124 9.99978ZM18.6288 15.0701L13.3944 17.3912C13.237 17.4612 13.067 17.4982 12.8947 17.5C12.7225 17.5019 12.5517 17.4685 12.3929 17.4019C12.234 17.3353 12.0905 17.237 11.971 17.1129C11.8516 16.9888 11.7588 16.8415 11.6983 16.6802L11.0647 14.9615C10.7147 14.9849 10.3598 14.9969 9.99987 14.9974C9.63998 14.998 9.28503 14.986 8.93503 14.9615L8.30144 16.6802C8.24088 16.8415 8.14803 16.9886 8.02857 17.1126C7.90911 17.2367 7.76557 17.335 7.60674 17.4016C7.44792 17.4682 7.27717 17.5016 7.10497 17.4998C6.93277 17.498 6.76275 17.461 6.60534 17.3912L1.37097 15.0701C1.1008 14.952 0.881349 14.7418 0.751719 14.4769C0.62209 14.2121 0.590704 13.9098 0.663154 13.624L2.96862 4.53103C3.02947 4.29455 3.15795 4.08095 3.33834 3.91638C3.51873 3.75181 3.74319 3.64341 3.98425 3.60447L6.80144 3.14119C7.112 3.09123 7.43005 3.15858 7.69372 3.33012C7.95738 3.50166 8.14782 3.76514 8.228 4.06931L8.48269 5.07244C8.97904 5.024 9.48477 4.99978 9.99987 4.99978C10.515 4.99978 11.0202 5.024 11.5155 5.07244L11.7702 4.06931C11.8502 3.76505 12.0406 3.50146 12.3043 3.32989C12.568 3.15832 12.8862 3.09105 13.1967 3.14119L16.0155 3.60447C16.2566 3.64341 16.481 3.75181 16.6614 3.91638C16.8418 4.08095 16.9703 4.29455 17.0311 4.53103L19.3382 13.6232C19.4107 13.9093 19.3792 14.2119 19.2493 14.477C19.1193 14.742 18.8994 14.9522 18.6288 15.0701ZM18.1249 13.9279L15.8178 4.84353C15.8178 4.84353 15.8178 4.84353 15.8116 4.84353L12.9944 4.37478C12.9924 4.37361 12.9901 4.373 12.9878 4.373C12.9854 4.373 12.9831 4.37361 12.9811 4.37478L12.76 5.24509C13.1507 5.31853 13.5413 5.40603 13.9186 5.51228C14.0674 5.5502 14.197 5.64155 14.2827 5.76891C14.3685 5.89627 14.4043 6.05073 14.3835 6.20283C14.3626 6.35494 14.2865 6.49404 14.1696 6.59362C14.0528 6.69319 13.9034 6.74628 13.7499 6.74275C13.6928 6.74259 13.6361 6.7347 13.5811 6.71931C12.4139 6.40258 11.2093 6.24465 9.99987 6.24978C8.79048 6.24439 7.58589 6.40206 6.41862 6.71853C6.33889 6.74318 6.25502 6.75161 6.17197 6.74333C6.08892 6.73504 6.00837 6.7102 5.93508 6.67028C5.86178 6.63036 5.79722 6.57616 5.74521 6.51089C5.6932 6.44561 5.65479 6.37058 5.63225 6.29022C5.60971 6.20986 5.60349 6.1258 5.61396 6.043C5.62443 5.9602 5.65138 5.88033 5.69322 5.80811C5.73506 5.73589 5.79094 5.67279 5.85756 5.62251C5.92418 5.57224 6.0002 5.53582 6.08112 5.5154C6.45768 5.40915 6.84519 5.32165 7.23894 5.24822L7.01784 4.37478C7.01784 4.37478 7.01784 4.37478 7.00847 4.37478L4.18815 4.83806C4.18585 4.83743 4.18342 4.83743 4.18112 4.83806L1.87487 13.9318L7.10925 16.2498C7.11189 16.2512 7.11484 16.252 7.11784 16.252C7.12084 16.252 7.1238 16.2512 7.12644 16.2498L7.65612 14.8217C7.12541 14.7405 6.6 14.6278 6.08269 14.4842C5.9286 14.4349 5.79961 14.3279 5.72282 14.1855C5.64603 14.0431 5.62744 13.8765 5.67094 13.7207C5.71444 13.5649 5.81665 13.4321 5.95609 13.3501C6.09552 13.2681 6.26132 13.2433 6.41862 13.281C7.58581 13.5979 8.79046 13.7555 9.99987 13.7498C11.2093 13.7555 12.4139 13.5979 13.5811 13.281C13.7408 13.2363 13.9117 13.2568 14.0562 13.338C14.2007 13.4193 14.3071 13.5546 14.3518 13.7142C14.3966 13.8739 14.3761 14.0448 14.2948 14.1893C14.2136 14.3338 14.0783 14.4402 13.9186 14.4849C13.4008 14.6283 12.8748 14.7408 12.3436 14.8217L12.871 16.2498C12.8735 16.2511 12.8763 16.2519 12.8792 16.2519C12.882 16.2519 12.8849 16.2511 12.8874 16.2498L18.1249 13.9279Z" fill="white"/>
</svg>
