<svg width="20" height="20" viewBox="0 0 20 20" fill="none" xmlns="http://www.w3.org/2000/svg">
<path d="M18.5068 2.04595C18.4099 1.96233 18.2921 1.90672 18.166 1.88511C18.0399 1.86349 17.9103 1.8767 17.7911 1.92329L1.95831 8.11939C1.73393 8.20664 1.54396 8.36443 1.41701 8.56899C1.29005 8.77355 1.23299 9.01382 1.2544 9.25362C1.27582 9.49342 1.37456 9.71977 1.53575 9.8986C1.69694 10.0774 1.91186 10.1991 2.14816 10.2452L6.2505 11.0506V15.6249C6.24969 15.874 6.32374 16.1177 6.46303 16.3242C6.60233 16.5308 6.80046 16.6908 7.03175 16.7835C7.26268 16.8778 7.51664 16.9004 7.76061 16.8484C8.00458 16.7964 8.22727 16.6723 8.39972 16.492L10.3778 14.4405L13.5161 17.1874C13.7425 17.3882 14.0346 17.4993 14.3372 17.4999C14.4698 17.4998 14.6016 17.4789 14.7278 17.4381C14.9341 17.3727 15.1195 17.2544 15.2658 17.095C15.412 16.9356 15.514 16.7406 15.5614 16.5295L18.7325 2.73423C18.7609 2.60982 18.7549 2.48003 18.7151 2.35878C18.6753 2.23753 18.6033 2.12939 18.5068 2.04595ZM13.7302 4.85845L6.73097 9.87095L2.85597 9.11079L13.7302 4.85845ZM7.5005 15.6249V11.9155L9.43722 13.6139L7.5005 15.6249ZM14.3388 16.2499L7.87941 10.5858L17.1763 3.92251L14.3388 16.2499Z" fill="white"/>
</svg>
