<svg width="30" height="30" viewBox="0 0 30 30" fill="none" xmlns="http://www.w3.org/2000/svg">
<path d="M14.469 15.4037L5.70549 8.55205L5 8L5.70806 8.55463V22H25V8.55463L16.2314 15.4037C15.9794 15.6006 15.6693 15.7075 15.3502 15.7075C15.031 15.7075 14.721 15.6006 14.469 15.4037Z" fill="#7C7E89" fill-opacity="0.3"/>
<path d="M24 7L24.9975 8.40278L24.297 9L25 8.40278L24.0025 7H24Z" fill="#7C7E89" fill-opacity="0.3"/>
<path d="M25.2143 6H4.78571C4.35112 6 4 6.34531 4 6.77273V22.2273C4 22.6547 4.35112 23 4.78571 23H25.2143C25.6489 23 26 22.6547 26 22.2273V6.77273C26 6.34531 25.6489 6 25.2143 6ZM22.894 7.74105L15 13.7756L7.10603 7.74105H22.894ZM24.2321 8.67557V21.2614H5.76786V8.67557L5.09018 8.15639L5.7654 8.67315L14.1529 15.0868C14.3941 15.2711 14.6909 15.3711 14.9963 15.3711C15.3018 15.3711 15.5985 15.2711 15.8397 15.0868L24.2321 8.67557L24.9098 8.15639L23.9449 6.93693H23.9473L24.9123 8.15639L24.2321 8.67557Z" fill="#B5B5B5"/>
</svg>
