<svg width="32" height="32" viewBox="0 0 32 32" fill="none" xmlns="http://www.w3.org/2000/svg">
<path d="M25.7423 2.18188H6.25579C4.01514 2.18188 2.18188 4.01514 2.18188 6.25579V25.7443C2.18188 27.985 4.01514 29.8182 6.25579 29.8182H25.7443C27.985 29.8182 29.8182 27.985 29.8182 25.7443V6.25579C29.8162 4.01514 27.985 2.18188 25.7423 2.18188ZM25.4806 16.9325H22.2011V28.7977H17.294V16.9325H14.8395V12.8423H17.294V10.3877C17.294 7.05122 18.6792 5.06621 22.6207 5.06621H25.8971V9.15539H23.8479C22.3161 9.15539 22.2143 9.7288 22.2143 10.7951L22.2011 12.8423H25.9134L25.4806 16.9325Z" fill="#C868C4" fill-opacity="0.6"/>
</svg>
