<svg width="28" height="28" viewBox="0 0 28 28" fill="none" xmlns="http://www.w3.org/2000/svg">
<path d="M23.7422 0.181885H4.25573C2.01508 0.181885 0.181824 2.01514 0.181824 4.25579V23.7443C0.181824 25.985 2.01508 27.8182 4.25573 27.8182H23.7443C25.9849 27.8182 27.8182 25.985 27.8182 23.7443V4.25579C27.8161 2.01514 25.9849 0.181885 23.7422 0.181885ZM23.4805 14.9325H20.201V26.7977H15.294V14.9325H12.8395V10.8423H15.294V8.38775C15.294 5.05122 16.6791 3.06621 20.6206 3.06621H23.8971V7.15539H21.8479C20.3161 7.15539 20.2142 7.7288 20.2142 8.79514L20.201 10.8423H23.9133L23.4805 14.9325Z" fill="#C868C4" fill-opacity="0.6"/>
</svg>
