<svg width="28" height="28" viewBox="0 0 28 28" fill="none" xmlns="http://www.w3.org/2000/svg">
<path d="M4.12988 0C1.95228 0 0.181824 1.79375 0.181824 4V24C0.181824 26.2062 1.95228 28 4.12988 28H23.8701C26.0477 28 27.8182 26.2062 27.8182 24V4C27.8182 1.79375 26.0477 0 23.8701 0H4.12988ZM22.4575 5.25L16.0542 12.6625L23.5864 22.75H17.689L13.0747 16.6313L7.78799 22.75H4.8578L11.7052 14.8188L4.4815 5.25H10.527L14.7033 10.8438L19.5273 5.25H22.4575ZM20.1257 20.975L9.64481 6.93125H7.89903L18.4971 20.975H20.1195H20.1257Z" fill="#C868C4" fill-opacity="0.6"/>
</svg>
