<svg width="28" height="28" viewBox="0 0 28 28" fill="none" xmlns="http://www.w3.org/2000/svg">
<path d="M25.2273 0.181885H2.77273C1.34773 0.181885 0.181824 1.34779 0.181824 2.77279V25.2273C0.181824 26.6523 1.34773 27.8182 2.77273 27.8182H25.2273C26.6523 27.8182 27.8182 26.6523 27.8182 25.2273V2.77279C27.8182 1.34779 26.6523 0.181885 25.2273 0.181885ZM10.5455 22.6364H7.09091V10.5455H10.5455V22.6364ZM8.81819 8.81825C8.36009 8.81825 7.92075 8.63627 7.59682 8.31234C7.27289 7.98841 7.09091 7.54908 7.09091 7.09098C7.09091 6.63287 7.27289 6.19354 7.59682 5.86961C7.92075 5.54568 8.36009 5.3637 8.81819 5.3637C9.27629 5.3637 9.71563 5.54568 10.0396 5.86961C10.3635 6.19354 10.5455 6.63287 10.5455 7.09098C10.5455 7.54908 10.3635 7.98841 10.0396 8.31234C9.71563 8.63627 9.27629 8.81825 8.81819 8.81825ZM22.6364 22.6364H19.1818V15.7273C19.1818 15.2692 18.9998 14.8299 18.6759 14.506C18.352 14.182 17.9127 14.0001 17.4545 14.0001C16.9964 14.0001 16.5571 14.182 16.2332 14.506C15.9093 14.8299 15.7273 15.2692 15.7273 15.7273V22.6364H12.2727V10.5455H15.7273V12.6891C16.4389 11.7114 17.5306 10.5455 18.75 10.5455C20.8987 10.5455 22.6364 12.4783 22.6364 14.8637V22.6364Z" fill="#C868C4" fill-opacity="0.6"/>
</svg>
