<svg width="32" height="32" viewBox="0 0 32 32" fill="none" xmlns="http://www.w3.org/2000/svg">
<path d="M16.0001 12.5732C15.3223 12.5732 14.6597 12.7741 14.0962 13.1507C13.5326 13.5272 13.0934 14.0625 12.834 14.6886C12.5746 15.3148 12.5068 16.0039 12.639 16.6686C12.7712 17.3334 13.0976 17.944 13.5769 18.4233C14.0561 18.9025 14.6668 19.2289 15.3315 19.3611C15.9963 19.4934 16.6853 19.4255 17.3115 19.1661C17.9377 18.9067 18.4729 18.4675 18.8494 17.904C19.226 17.3404 19.427 16.6778 19.427 16.0001C19.427 15.55 19.3383 15.1044 19.1661 14.6886C18.9939 14.2729 18.7415 13.8951 18.4233 13.5769C18.105 13.2587 17.7273 13.0062 17.3115 12.834C16.8957 12.6618 16.4501 12.5732 16.0001 12.5732ZM29.7215 9.1877C29.7142 8.1206 29.5178 7.06326 29.1412 6.06479C28.8638 5.33417 28.4347 4.67067 27.8821 4.11807C27.3295 3.56547 26.666 3.13633 25.9353 2.85898C24.9369 2.48238 23.8795 2.28588 22.8124 2.27861C21.0299 2.18188 20.5048 2.18188 16.0001 2.18188C11.4953 2.18188 10.9702 2.18188 9.1877 2.27861C8.1206 2.28588 7.06326 2.48238 6.06479 2.85898C5.33417 3.13633 4.67067 3.56547 4.11807 4.11807C3.56547 4.67067 3.13633 5.33417 2.85898 6.06479C2.48238 7.06326 2.28588 8.1206 2.27861 9.1877C2.18188 10.9702 2.18188 11.4953 2.18188 16.0001C2.18188 20.5048 2.18188 21.0299 2.27861 22.8124C2.29349 23.8833 2.48972 24.9439 2.85898 25.9492C3.1351 26.6764 3.56388 27.3361 4.11643 27.8837C4.66666 28.4396 5.33159 28.8688 6.06479 29.1412C7.06326 29.5178 8.1206 29.7142 9.1877 29.7215C10.9702 29.8182 11.4953 29.8182 16.0001 29.8182C20.5048 29.8182 21.0299 29.8182 22.8124 29.7215C23.8795 29.7142 24.9369 29.5178 25.9353 29.1412C26.6685 28.8688 27.3335 28.4396 27.8837 27.8837C28.4363 27.3361 28.865 26.6764 29.1412 25.9492C29.5174 24.9458 29.7138 23.884 29.7215 22.8124C29.8182 21.0299 29.8182 20.5048 29.8182 16.0001C29.8182 11.4953 29.8182 10.9702 29.7215 9.1877ZM26.2117 20.2422C26.1674 21.095 25.9854 21.9349 25.6728 22.7295C25.4045 23.3924 25.0057 23.9945 24.5001 24.5001C23.9945 25.0057 23.3924 25.4045 22.7295 25.6728C21.9274 25.9679 21.0828 26.1313 20.2284 26.1564H11.7717C10.9174 26.1313 10.0727 25.9679 9.27061 25.6728C8.58537 25.4181 7.96656 25.0119 7.46043 24.4844C6.95975 23.9887 6.57309 23.3898 6.32734 22.7295C6.03102 21.9282 5.87218 21.0826 5.85752 20.2284V11.7717C5.87218 10.9175 6.03102 10.0719 6.32734 9.27061C6.58198 8.58537 6.98823 7.96656 7.5157 7.46043C8.01362 6.96246 8.61185 6.5762 9.27061 6.32734C10.0727 6.03219 10.9174 5.86887 11.7717 5.8437H20.2284C21.0828 5.86887 21.9274 6.03219 22.7295 6.32734C23.4148 6.58198 24.0336 6.98823 24.5397 7.5157C25.0404 8.01143 25.427 8.61029 25.6728 9.27061C25.9679 10.0727 26.1313 10.9174 26.1564 11.7717V16.0001C26.1564 18.8466 26.2532 19.1368 26.2117 20.2284V20.2422ZM24.0008 9.96152C23.8363 9.51517 23.5769 9.10983 23.2405 8.77345C22.9041 8.43708 22.4988 8.17768 22.0524 8.01316C21.4396 7.80072 20.7941 7.69781 20.1455 7.70916H11.8546C11.2028 7.71553 10.5572 7.83716 9.9477 8.06843C9.50819 8.22548 9.10713 8.47429 8.7712 8.79831C8.43527 9.12233 8.17215 9.51414 7.99934 9.9477C7.79867 10.5631 7.70063 11.2074 7.70916 11.8546V20.1455C7.72286 20.7966 7.84426 21.441 8.06843 22.0524C8.23295 22.4988 8.49235 22.9041 8.82872 23.2405C9.1651 23.5769 9.57044 23.8363 10.0168 24.0008C10.6064 24.2176 11.2268 24.3389 11.8546 24.3601H20.1455C20.7974 24.3537 21.443 24.2321 22.0524 24.0008C22.4988 23.8363 22.9041 23.5769 23.2405 23.2405C23.5769 22.9041 23.8363 22.4988 24.0008 22.0524C24.2321 21.443 24.3537 20.7974 24.3601 20.1455V11.8546C24.3605 11.2021 24.2386 10.5553 24.0008 9.9477V9.96152ZM16.0001 21.2786C15.3075 21.2786 14.6218 21.142 13.9821 20.8765C13.3425 20.6111 12.7615 20.2221 12.2724 19.7317C11.7834 19.2414 11.3959 18.6594 11.1321 18.019C10.8684 17.3787 10.7335 16.6926 10.7353 16.0001C10.7353 14.9555 11.0453 13.9344 11.6259 13.066C12.2065 12.1977 13.0317 11.5211 13.9971 11.122C14.9624 10.7229 16.0245 10.6192 17.0488 10.824C18.0731 11.0288 19.0136 11.5329 19.7513 12.2725C20.4889 13.0121 20.9906 13.9539 21.1927 14.9788C21.3948 16.0036 21.2883 17.0654 20.8866 18.0297C20.485 18.994 19.8063 19.8174 18.9364 20.3957C18.0666 20.9741 17.0446 21.2813 16.0001 21.2786ZM21.5273 11.7579C21.2219 11.7256 20.9392 11.5813 20.7337 11.353C20.5283 11.1246 20.4146 10.8283 20.4146 10.5212C20.4146 10.214 20.5283 9.91769 20.7337 9.68934C20.9392 9.461 21.2219 9.31676 21.5273 9.28443C21.8328 9.31676 22.1155 9.461 22.3209 9.68934C22.5264 9.91769 22.6401 10.214 22.6401 10.5212C22.6401 10.8283 22.5264 11.1246 22.3209 11.353C22.1155 11.5813 21.8328 11.7256 21.5273 11.7579Z" fill="#C868C4" fill-opacity="0.6"/>
</svg>
