<svg width="32" height="32" viewBox="0 0 32 32" fill="none" xmlns="http://www.w3.org/2000/svg">
<path d="M27.2273 2.18188H4.77279C3.34779 2.18188 2.18188 3.34779 2.18188 4.77279V27.2273C2.18188 28.6523 3.34779 29.8182 4.77279 29.8182H27.2273C28.6523 29.8182 29.8182 28.6523 29.8182 27.2273V4.77279C29.8182 3.34779 28.6523 2.18188 27.2273 2.18188ZM12.5455 24.6364H9.09098V12.5455H12.5455V24.6364ZM10.8182 10.8182C10.3601 10.8182 9.92081 10.6363 9.59688 10.3123C9.27296 9.98841 9.09098 9.54908 9.09098 9.09098C9.09098 8.63287 9.27296 8.19354 9.59688 7.86961C9.92081 7.54568 10.3601 7.3637 10.8182 7.3637C11.2763 7.3637 11.7157 7.54568 12.0396 7.86961C12.3635 8.19354 12.5455 8.63287 12.5455 9.09098C12.5455 9.54908 12.3635 9.98841 12.0396 10.3123C11.7157 10.6363 11.2763 10.8182 10.8182 10.8182ZM24.6364 24.6364H21.1819V17.7273C21.1819 17.2692 20.9999 16.8299 20.676 16.506C20.3521 16.182 19.9127 16.0001 19.4546 16.0001C18.9965 16.0001 18.5572 16.182 18.2332 16.506C17.9093 16.8299 17.7273 17.2692 17.7273 17.7273V24.6364H14.2728V12.5455H17.7273V14.6891C18.439 13.7114 19.5306 12.5455 20.7501 12.5455C22.8988 12.5455 24.6364 14.4783 24.6364 16.8637V24.6364Z" fill="#C868C4" fill-opacity="0.6"/>
</svg>
