<svg width="28" height="28" viewBox="0 0 28 28" fill="none" xmlns="http://www.w3.org/2000/svg">
<path d="M14 10.5732C13.3222 10.5732 12.6597 10.7741 12.0961 11.1507C11.5326 11.5272 11.0933 12.0625 10.834 12.6886C10.5746 13.3148 10.5067 14.0039 10.6389 14.6686C10.7712 15.3334 11.0976 15.944 11.5768 16.4233C12.0561 16.9025 12.6667 17.2289 13.3314 17.3611C13.9962 17.4934 14.6852 17.4255 15.3114 17.1661C15.9376 16.9067 16.4728 16.4675 16.8494 15.904C17.2259 15.3404 17.4269 14.6778 17.4269 14.0001C17.4269 13.55 17.3383 13.1044 17.1661 12.6886C16.9938 12.2729 16.7414 11.8951 16.4232 11.5769C16.105 11.2587 15.7272 11.0062 15.3114 10.834C14.8957 10.6618 14.45 10.5732 14 10.5732ZM27.7215 7.1877C27.7142 6.1206 27.5177 5.06326 27.1411 4.06479C26.8637 3.33417 26.4346 2.67067 25.882 2.11807C25.3294 1.56547 24.6659 1.13633 23.9353 0.858976C22.9368 0.48238 21.8795 0.285882 20.8124 0.278612C19.0298 0.181885 18.5047 0.181885 14 0.181885C9.49528 0.181885 8.97019 0.181885 7.18764 0.278612C6.12054 0.285882 5.06319 0.48238 4.06473 0.858976C3.33411 1.13633 2.67061 1.56547 2.11801 2.11807C1.56541 2.67067 1.13627 3.33417 0.858915 4.06479C0.482319 5.06326 0.285821 6.1206 0.278551 7.1877C0.181824 8.97025 0.181824 9.49534 0.181824 14.0001C0.181824 18.5048 0.181824 19.0299 0.278551 20.8124C0.293425 21.8833 0.489657 22.9439 0.858915 23.9492C1.13504 24.6764 1.56382 25.3361 2.11637 25.8837C2.6666 26.4396 3.33153 26.8688 4.06473 27.1412C5.06319 27.5178 6.12054 27.7142 7.18764 27.7215C8.97019 27.8182 9.49528 27.8182 14 27.8182C18.5047 27.8182 19.0298 27.8182 20.8124 27.7215C21.8795 27.7142 22.9368 27.5178 23.9353 27.1412C24.6685 26.8688 25.3334 26.4396 25.8836 25.8837C26.4362 25.3361 26.865 24.6764 27.1411 23.9492C27.5173 22.9458 27.7138 21.884 27.7215 20.8124C27.8182 19.0299 27.8182 18.5048 27.8182 14.0001C27.8182 9.49534 27.8182 8.97025 27.7215 7.1877ZM24.2116 18.2422C24.1673 19.095 23.9853 19.9349 23.6727 20.7295C23.4045 21.3924 23.0057 21.9945 22.5001 22.5001C21.9944 23.0057 21.3923 23.4045 20.7295 23.6728C19.9273 23.9679 19.0827 24.1313 18.2284 24.1564H9.77164C8.9173 24.1313 8.07268 23.9679 7.27055 23.6728C6.58531 23.4181 5.9665 23.0119 5.46037 22.4844C4.95969 21.9887 4.57303 21.3898 4.32728 20.7295C4.03096 19.9282 3.87212 19.0826 3.85746 18.2284V9.7717C3.87212 8.9175 4.03096 8.07191 4.32728 7.27061C4.58192 6.58537 4.98817 5.96656 5.51564 5.46043C6.01356 4.96246 6.61179 4.5762 7.27055 4.32734C8.07268 4.03219 8.9173 3.86887 9.77164 3.8437H18.2284C19.0827 3.86887 19.9273 4.03219 20.7295 4.32734C21.4147 4.58198 22.0335 4.98823 22.5396 5.5157C23.0403 6.01143 23.427 6.61029 23.6727 7.27061C23.9679 8.07274 24.1312 8.91737 24.1564 9.7717V14.0001C24.1564 16.8466 24.2531 17.1368 24.2116 18.2284V18.2422ZM22.0007 7.96152C21.8362 7.51517 21.5768 7.10983 21.2404 6.77345C20.9041 6.43708 20.4987 6.17768 20.0524 6.01316C19.4395 5.80072 18.794 5.69781 18.1455 5.70916H9.85455C9.2027 5.71553 8.55712 5.83716 7.94764 6.06843C7.50812 6.22548 7.10707 6.47429 6.77114 6.79831C6.43521 7.12233 6.17209 7.51414 5.99928 7.9477C5.79861 8.56312 5.70057 9.20736 5.7091 9.85461V18.1455C5.7228 18.7966 5.84419 19.441 6.06837 20.0524C6.23289 20.4988 6.49229 20.9041 6.82866 21.2405C7.16504 21.5769 7.57038 21.8363 8.01673 22.0008C8.60631 22.2176 9.22672 22.3389 9.85455 22.3601H18.1455C18.7973 22.3537 19.4429 22.2321 20.0524 22.0008C20.4987 21.8363 20.9041 21.5769 21.2404 21.2405C21.5768 20.9041 21.8362 20.4988 22.0007 20.0524C22.232 19.443 22.3536 18.7974 22.36 18.1455V9.85461C22.3604 9.20211 22.2385 8.55532 22.0007 7.9477V7.96152ZM14 19.2786C13.3075 19.2786 12.6217 19.142 11.9821 18.8765C11.3424 18.6111 10.7614 18.2221 10.2724 17.7317C9.78333 17.2414 9.39582 16.6594 9.13206 16.019C8.8683 15.3787 8.73346 14.6926 8.73528 14.0001C8.73528 12.9555 9.04521 11.9344 9.62584 11.066C10.2065 10.1977 11.0317 9.52113 11.997 9.12202C12.9623 8.72291 14.0244 8.61918 15.0487 8.82398C16.073 9.02878 17.0135 9.53288 17.7512 10.2725C18.4889 11.0121 18.9905 11.9539 19.1926 12.9788C19.3947 14.0036 19.2882 15.0654 18.8866 16.0297C18.4849 16.994 17.8062 17.8174 16.9364 18.3957C16.0665 18.9741 15.0446 19.2813 14 19.2786ZM19.5273 9.75788C19.2218 9.72555 18.9391 9.58132 18.7337 9.35297C18.5282 9.12462 18.4145 8.82832 18.4145 8.52116C18.4145 8.21399 18.5282 7.91769 18.7337 7.68934C18.9391 7.461 19.2218 7.31676 19.5273 7.28443C19.8327 7.31676 20.1154 7.461 20.3209 7.68934C20.5263 7.91769 20.64 8.21399 20.64 8.52116C20.64 8.82832 20.5263 9.12462 20.3209 9.35297C20.1154 9.58132 19.8327 9.72555 19.5273 9.75788Z" fill="#C868C4" fill-opacity="0.6"/>
</svg>
