<svg width="32" height="32" viewBox="0 0 32 32" fill="none" xmlns="http://www.w3.org/2000/svg">
<path d="M6.12994 2C3.95234 2 2.18188 3.79375 2.18188 6V26C2.18188 28.2062 3.95234 30 6.12994 30H25.8702C28.0478 30 29.8182 28.2062 29.8182 26V6C29.8182 3.79375 28.0478 2 25.8702 2H6.12994ZM24.4575 7.25L18.0543 14.6625L25.5864 24.75H19.689L15.0747 18.6313L9.78805 24.75H6.85786L13.7053 16.8188L6.48156 7.25H12.527L16.7033 12.8438L21.5273 7.25H24.4575ZM22.1257 22.975L11.6449 8.93125H9.89909L20.4971 22.975H22.1195H22.1257Z" fill="#C868C4" fill-opacity="0.6"/>
</svg>
